<svg width="81" height="41" viewBox="0 0 81 41" fill="none" xmlns="http://www.w3.org/2000/svg">
<path d="M28.6926 27.6779V31.7601H19.6576C18.3371 31.7847 17.0167 31.7059 15.7085 31.5245C12.535 30.9769 10.2771 29.4035 8.93467 26.8042C8.04723 25.0684 7.60352 22.9186 7.60352 20.3547C7.60352 17.2762 8.28093 14.7677 9.63575 12.8293C10.6074 11.4432 11.9757 10.3836 13.5609 9.78978C15.1941 9.15319 17.3136 8.83386 19.9194 8.83179H28.6926V12.914H20.5468C18.0845 12.914 16.2751 13.4971 15.1188 14.6631C14.1746 15.6242 13.7013 17.3695 13.6989 19.899C13.6989 23.2825 14.4392 25.5054 15.9197 26.5677C16.9505 27.3078 18.5687 27.677 20.7562 27.677L28.6926 27.6779Z" fill="white"/>
<path d="M39.5515 12.9123H31.293V8.83008H53.6378V12.9123H45.0567V31.7593H39.5515V12.9123Z" fill="white"/>
<path d="M57.7808 31.7593V27.6771H69.6033C71.5064 27.6771 72.7683 27.5102 73.398 27.1725C73.8143 26.9858 74.1663 26.6805 74.4101 26.2948C74.654 25.9092 74.7788 25.4603 74.7691 25.0041C74.782 24.4837 74.6361 23.9717 74.3507 23.5363C74.0653 23.101 73.6541 22.7629 73.1717 22.5672C72.2445 22.224 71.2564 22.0758 70.2693 22.1319H65.4687C62.5325 22.1319 60.4208 21.6624 59.1337 20.7235C58.3283 20.1402 57.6764 19.3702 57.2337 18.4796C56.7803 17.5879 56.5462 16.6008 56.5508 15.6003C56.5488 13.9865 57.1114 12.4227 58.1411 11.18C59.1803 9.89501 60.844 9.14497 63.1321 8.92992C63.9068 8.8678 65.0547 8.83008 66.5856 8.83008H79.4326V12.9123H67.8373C66.6832 12.8835 65.5288 12.9515 64.386 13.1155C63.2208 13.3723 62.6388 14.1501 62.64 15.449C62.6047 15.9287 62.7292 16.4065 62.9941 16.8079C63.259 17.2092 63.6494 17.5116 64.1043 17.6676C65.1632 17.9769 66.2665 18.1065 67.3683 18.051H71.5264C73.1286 17.9926 74.7313 18.1569 76.2884 18.5391C78.1209 19.0893 79.3801 20.0523 80.0658 21.4282C80.6205 22.5323 80.9052 23.7524 80.8964 24.9881C80.9137 26.3156 80.5378 27.6185 79.8159 28.7327C79.3097 29.5111 78.6364 30.167 77.8449 30.6525C77.0534 31.1381 76.1636 31.4411 75.2403 31.5396C73.7678 31.7113 72.2854 31.7845 70.8031 31.7588L57.7808 31.7593Z" fill="white"/>
<path d="M36.116 39.5665H21.2873C19.0425 39.608 16.7979 39.4745 14.5739 39.1672C9.2803 38.2549 5.46165 35.5966 3.22486 31.269C1.73707 28.363 0.983193 24.6979 0.983193 20.3752C0.983193 15.1983 2.13331 10.9266 4.39983 7.6804C6.02732 5.36656 8.31404 3.5966 10.962 2.60115C13.7153 1.52735 17.34 0.983348 21.7346 0.983348H28.3713V0.221924H21.7359C17.2459 0.221924 13.5271 0.783673 10.6873 1.89164C7.89902 2.9413 5.49144 4.80633 3.77818 7.24379C1.41892 10.6209 0.222656 15.0395 0.222656 20.3752C0.222656 24.8199 1.00494 28.6018 2.54863 31.6168C4.90035 36.1689 8.90447 38.9608 14.447 39.917C16.7132 40.2319 19.0006 40.369 21.2882 40.327H39.6005V39.5656H36.1169L36.116 39.5665Z" fill="white"/>
<path d="M39.8225 40.5497H21.2883C18.9885 40.5914 16.689 40.4533 14.4107 40.1366C8.7954 39.1684 4.73759 36.3366 2.35171 31.7193C0.792037 28.6727 0 24.8567 0 20.376C0 14.9937 1.20958 10.533 3.59413 7.11771C5.33222 4.6439 7.77531 2.75111 10.6049 1.68613C13.474 0.567512 17.219 0 21.7347 0H28.5937V0.98373H28.4974V1.20559H21.7365C17.3689 1.20559 13.7722 1.74515 11.0428 2.8083C8.43559 3.78784 6.18393 5.53016 4.5814 7.80813C2.34017 11.0167 1.20381 15.2449 1.20381 20.3756C1.20381 24.6633 1.9497 28.2946 3.42241 31.1682C5.62547 35.4305 9.38999 38.048 14.6112 38.9475C16.8228 39.2529 19.0548 39.3855 21.287 39.3441H39.8211L39.8225 40.5497ZM21.7365 0.444166C17.2762 0.444166 13.5854 1.00103 10.7682 2.09968C8.02059 3.13302 5.64813 4.97031 3.96019 7.37196C1.62756 10.7114 0.444606 15.0864 0.444606 20.376C0.444606 24.7853 1.21889 28.5338 2.74573 31.5165C5.06505 36.0025 9.0146 38.7558 14.4848 39.6991C16.7386 40.0116 19.0133 40.1477 21.2883 40.106H39.3787V39.7883H21.2883C19.0312 39.8296 16.7743 39.6951 14.538 39.3859C9.17168 38.4611 5.29934 35.7647 3.02883 31.3714C1.52462 28.434 0.762311 24.7347 0.762311 20.376C0.762311 15.153 1.92574 10.8392 4.22021 7.55254C5.87267 5.20306 8.1947 3.40598 10.8835 2.39563C13.6626 1.31163 17.3135 0.762304 21.7365 0.762304H28.1518V0.444166H21.7365Z" fill="white"/>
<path d="M47.7457 36.9528H21.1154C19.1748 36.9886 17.2343 36.8732 15.3116 36.6076C10.7351 35.8191 7.43378 33.521 5.50005 29.78C4.21327 27.2682 3.56189 24.1005 3.56189 20.3621C3.56189 15.8868 4.55626 12.1937 6.51706 9.38716C7.92379 7.38622 9.90065 5.85545 12.19 4.99435C14.5701 4.06609 17.7041 3.59574 21.5032 3.59574H53.585V2.93726H21.5041C17.6229 2.93726 14.4086 3.42535 11.9517 4.38112C9.54099 5.28837 7.45944 6.90079 5.97838 9.00823C3.93728 11.9279 2.9043 15.7479 2.9043 20.3608C2.9043 24.2038 3.58052 27.4732 4.91523 30.0782C6.94968 34.014 10.4102 36.4279 15.202 37.2545C17.1612 37.5266 19.1386 37.6453 21.1163 37.6095H57.9175V36.951H47.7457V36.9528Z" fill="white"/>
<path d="M58.1386 37.8332H21.116C19.1259 37.8702 17.1359 37.7515 15.1643 37.4782C10.2999 36.6365 6.78515 34.1836 4.71742 30.183C3.3663 27.5442 2.68164 24.2407 2.68164 20.3622C2.68164 15.7031 3.72926 11.8428 5.79566 8.88315C7.30135 6.73914 9.41823 5.09868 11.8702 4.17574C14.355 3.20799 17.5942 2.7168 21.5033 2.7168H53.807V3.81899H21.5042C17.7326 3.81899 14.6266 4.28401 12.2713 5.20251C10.0231 6.04722 8.08133 7.54915 6.69863 9.51279C4.76446 12.2816 3.7834 15.9312 3.7834 20.3608C3.7834 24.0628 4.42767 27.1972 5.6976 29.6789C7.5976 33.3547 10.8447 35.6124 15.3494 36.3884C17.2603 36.6523 19.189 36.7667 21.1177 36.7305H58.1403L58.1386 37.8332ZM21.5042 3.16052C17.651 3.16052 14.4646 3.64105 12.0321 4.58928C9.66226 5.48094 7.61596 7.06584 6.15995 9.1374C4.14724 12.0189 3.12625 15.7959 3.12625 20.3635C3.12625 24.1711 3.79493 27.4067 5.11322 29.9816C7.11306 33.8504 10.5204 36.2256 15.2398 37.0398C17.1867 37.3097 19.1517 37.427 21.1168 37.3908H57.6957V37.176H21.116C19.1628 37.2121 17.2098 37.0957 15.2748 36.8277C10.6255 36.029 7.27103 33.6902 5.30269 29.8835C4.00037 27.3388 3.33968 24.1365 3.33968 20.3635C3.33968 15.8411 4.34781 12.1059 6.33478 9.26121C7.76703 7.22487 9.77922 5.66694 12.1093 4.79029C14.5152 3.85226 17.6758 3.37661 21.5033 3.37661H53.3633V3.16184L21.5042 3.16052Z" fill="white"/>
</svg>
