<svg width="220" height="41" viewBox="0 0 220 41" fill="none" xmlns="http://www.w3.org/2000/svg">
<g id="Group 43596">
<g id="Group 93">
<g id="Group 92">
<g id="Group 91">
<g id="Group 82">
<path id="Path 69" d="M105.345 25.4158C105.73 25.4031 106.113 25.4686 106.471 25.6083C106.83 25.7479 107.156 25.9588 107.431 26.2282C107.706 26.4915 107.923 26.8096 108.068 27.1621C108.213 27.5145 108.282 27.8934 108.272 28.2742C108.28 28.6477 108.207 29.0185 108.06 29.3616C107.912 29.7047 107.692 30.0121 107.416 30.263C106.837 30.7902 106.076 31.0717 105.294 31.0479C104.911 31.0573 104.53 30.9909 104.174 30.8527C103.817 30.7144 103.491 30.5069 103.214 30.2421C102.943 29.9865 102.729 29.6765 102.585 29.3325C102.442 28.9884 102.372 28.618 102.382 28.2454C102.373 27.8687 102.442 27.4942 102.586 27.1459C102.73 26.7977 102.945 26.4833 103.217 26.2229C103.5 25.9535 103.834 25.7434 104.2 25.6048C104.565 25.4662 104.955 25.4019 105.345 25.4158ZM105.283 26.4C105.044 26.3917 104.805 26.433 104.583 26.5212C104.36 26.6094 104.159 26.7426 103.99 26.9125C103.823 27.0876 103.692 27.2944 103.605 27.5206C103.519 27.7469 103.478 27.9882 103.486 28.2303C103.478 28.4693 103.519 28.7074 103.608 28.9296C103.697 29.1517 103.83 29.3531 104 29.5211C104.177 29.6909 104.385 29.8232 104.614 29.9101C104.843 29.9971 105.087 30.0368 105.332 30.0269C105.573 30.0355 105.814 29.9948 106.039 29.9072C106.265 29.8197 106.47 29.6871 106.642 29.5175C106.814 29.3491 106.949 29.1468 107.038 28.9234C107.127 28.7 107.169 28.4605 107.16 28.2201C107.166 27.9769 107.122 27.735 107.03 27.5098C106.937 27.2847 106.799 27.0813 106.624 26.9125C106.263 26.5707 105.78 26.3863 105.283 26.4Z" fill="white"/>
</g>
<g id="Group 83">
<path id="Path 70" d="M120.609 22.5609H121.707V30.9472H120.609V22.5609Z" fill="white"/>
</g>
<g id="Group 84">
<path id="Path 71" d="M137.585 30.9445V30.2346C137.364 30.4851 137.094 30.6871 136.791 30.8278C136.515 30.9664 136.212 31.0402 135.903 31.0435C135.564 31.0439 135.231 30.953 134.94 30.7804C134.654 30.6123 134.422 30.3659 134.272 30.0704C134.091 29.598 134.014 29.092 134.046 28.5871V25.4291H135.137V28.5742C135.101 28.9957 135.189 29.4185 135.39 29.7909C135.497 29.9137 135.632 30.0088 135.784 30.0681C135.936 30.1273 136.1 30.149 136.262 30.1312C136.529 30.1259 136.79 30.0533 137.022 29.9202C137.253 29.7871 137.447 29.5978 137.586 29.3698V25.4291H138.678V30.9445H137.585Z" fill="white"/>
</g>
<g id="Group 85">
<path id="Path 72" d="M151.016 26.2988L153.066 24.2799V25.4291H154.814V26.4102H153.066V29.1102C153.066 29.7438 153.329 30.0602 153.852 30.0602C154.293 30.0479 154.721 29.9138 155.091 29.6729V30.6907C154.675 30.9314 154.202 31.0549 153.722 31.0479C153.264 31.0616 152.816 30.9034 152.468 30.6042C152.369 30.5185 152.285 30.4172 152.219 30.3043C152.139 30.1708 152.079 30.0266 152.041 29.8761C151.984 29.54 151.96 29.199 151.97 28.8582V26.408H151.017L151.016 26.2988Z" fill="white"/>
</g>
<g id="Group 86">
<path id="Path 73" d="M168.065 23.1005C168.15 23.0991 168.235 23.1155 168.315 23.1486C168.394 23.1816 168.465 23.2307 168.525 23.2926C168.588 23.3501 168.638 23.4204 168.671 23.4989C168.705 23.5774 168.721 23.6621 168.719 23.7474C168.72 23.8327 168.704 23.9174 168.671 23.9959C168.637 24.0744 168.587 24.1449 168.525 24.2027C168.465 24.2649 168.394 24.3143 168.315 24.3478C168.236 24.3814 168.15 24.3985 168.065 24.3979C167.98 24.3973 167.896 24.3794 167.819 24.3452C167.742 24.311 167.672 24.2613 167.615 24.1991C167.495 24.0792 167.428 23.9168 167.428 23.7474C167.428 23.578 167.495 23.4156 167.615 23.2957C167.673 23.2346 167.742 23.1858 167.82 23.1522C167.897 23.1187 167.98 23.1011 168.065 23.1005ZM167.522 25.4291H168.611V30.9446H167.522V25.4291Z" fill="white"/>
</g>
<g id="Group 87">
<path id="Path 74" d="M184.018 25.4158C184.403 25.4036 184.788 25.4693 185.147 25.6088C185.507 25.7484 185.835 25.9591 186.111 26.2282C186.384 26.4932 186.598 26.8119 186.741 27.164C186.885 27.5162 186.953 27.8942 186.943 28.2742C186.952 28.6466 186.882 29.0166 186.736 29.3596C186.591 29.7025 186.374 30.0105 186.1 30.263C185.519 30.7911 184.755 31.0726 183.97 31.0479C183.588 31.0579 183.208 30.9918 182.851 30.8535C182.495 30.7152 182.17 30.5073 181.894 30.2421C181.623 29.9865 181.408 29.6766 181.265 29.3326C181.121 28.9885 181.052 28.618 181.061 28.2454C181.052 27.868 181.122 27.4928 181.267 27.1443C181.413 26.7958 181.63 26.4818 181.904 26.2229C182.185 25.9541 182.517 25.7442 182.88 25.6056C183.243 25.467 183.63 25.4024 184.018 25.4158ZM183.955 26.4C183.716 26.392 183.479 26.4334 183.256 26.5216C183.034 26.6097 182.833 26.7428 182.665 26.9124C182.497 27.0875 182.366 27.2942 182.279 27.5205C182.192 27.7468 182.152 27.9881 182.159 28.2303C182.151 28.47 182.193 28.7087 182.283 28.9311C182.373 29.1534 182.509 29.3544 182.681 29.5211C183.043 29.8473 183.514 30.0276 184.001 30.0269C184.489 30.0262 184.959 29.8448 185.321 29.5175C185.652 29.1635 185.834 28.6961 185.831 28.2115C185.828 27.727 185.639 27.2621 185.303 26.9124C184.94 26.5697 184.455 26.3853 183.955 26.4Z" fill="white"/>
</g>
<g id="Group 88">
<path id="Path 75" d="M200.398 25.4291V26.1302C200.599 25.8831 200.852 25.6829 201.138 25.5432C201.425 25.4035 201.738 25.3278 202.057 25.3213C202.399 25.3169 202.734 25.4106 203.024 25.5911C203.316 25.7624 203.551 26.0156 203.7 26.3192C203.88 26.7883 203.957 27.2905 203.926 27.7919V30.9467H202.836V27.8057C202.87 27.3872 202.782 26.9679 202.582 26.5987C202.48 26.4697 202.347 26.3683 202.195 26.3041C202.044 26.2399 201.879 26.2149 201.715 26.2313C201.447 26.2372 201.186 26.3116 200.955 26.4473C200.725 26.5831 200.533 26.7758 200.398 27.007V30.9445H199.281V25.4291H200.398Z" fill="white"/>
</g>
<g id="Group 89">
<path id="Path 76" d="M216.014 30.5527V29.3795C216.308 29.5853 216.624 29.7593 216.956 29.8987C217.215 30.0199 217.495 30.0898 217.78 30.1046C217.987 30.1083 218.19 30.0496 218.363 29.936C218.433 29.894 218.491 29.8358 218.534 29.7663C218.577 29.6967 218.602 29.618 218.607 29.5366C218.608 29.3855 218.549 29.2402 218.444 29.1319C218.235 28.9561 218.007 28.8034 217.765 28.6767C217.245 28.4291 216.775 28.0888 216.378 27.6725C216.167 27.4164 216.051 27.0946 216.051 26.7625C216.045 26.5633 216.086 26.3656 216.171 26.1853C216.256 26.005 216.382 25.8472 216.539 25.7246C216.907 25.4436 217.363 25.3021 217.826 25.3253C218.407 25.3349 218.976 25.4902 219.481 25.777V26.8592C219.011 26.5303 218.464 26.3283 217.893 26.2726C217.713 26.2625 217.534 26.309 217.381 26.4057C217.321 26.4434 217.272 26.4958 217.238 26.5579C217.204 26.62 217.186 26.6899 217.187 26.7607C217.19 26.8299 217.207 26.8979 217.237 26.9604C217.267 27.0229 217.309 27.0788 217.361 27.1246C217.551 27.29 217.759 27.4327 217.982 27.5496L218.37 27.7684C219.292 28.2875 219.755 28.867 219.755 29.494C219.76 29.7086 219.714 29.9212 219.621 30.1149C219.529 30.3086 219.392 30.478 219.223 30.6095C218.835 30.9115 218.354 31.0668 217.863 31.0479C217.564 31.0504 217.267 31.0131 216.978 30.937C216.645 30.8391 216.322 30.7104 216.014 30.5527Z" fill="white"/>
</g>
<g id="Group 90">
<path id="Path 77" d="M87.1895 30.5527V29.3795C87.487 29.5848 87.8049 29.7587 88.1381 29.8987C88.3923 30.0205 88.6682 30.0905 88.9497 30.1046C89.1596 30.1088 89.3659 30.05 89.5421 29.9359C89.6117 29.8939 89.6702 29.8356 89.7124 29.7661C89.7547 29.6965 89.7795 29.6178 89.7848 29.5366C89.7865 29.3856 89.7282 29.2401 89.6228 29.1319C89.4123 28.9558 89.1831 28.8031 88.9395 28.6767C88.4204 28.4291 87.951 28.0888 87.5542 27.6725C87.345 27.415 87.2293 27.0942 87.2258 26.7625C87.2204 26.5627 87.2623 26.3645 87.3483 26.1841C87.4342 26.0037 87.5616 25.8462 87.7201 25.7246C88.0848 25.4436 88.5378 25.302 88.9976 25.3253C89.5803 25.3345 90.1513 25.4898 90.6584 25.777V26.8592C90.1877 26.5291 89.6392 26.327 89.0668 26.2726C88.8861 26.2636 88.707 26.3101 88.5534 26.4057C88.494 26.4439 88.4452 26.4964 88.4114 26.5585C88.3777 26.6205 88.3601 26.6901 88.3604 26.7607C88.3633 26.8307 88.3809 26.8993 88.4121 26.962C88.4433 27.0247 88.4874 27.0801 88.5415 27.1245C88.728 27.2902 88.9337 27.4329 89.1542 27.5496L89.5469 27.7684C90.469 28.2875 90.9322 28.867 90.9322 29.494C90.9365 29.7089 90.8903 29.9219 90.7971 30.1156C90.704 30.3094 90.5667 30.4786 90.3962 30.6095C90.0081 30.9117 89.5256 31.067 89.034 31.0479C88.7382 31.0506 88.4434 31.0133 88.1577 30.937C87.8235 30.8397 87.4994 30.711 87.1895 30.5527Z" fill="white"/>
</g>
</g>
</g>
</g>
<g id="Group 113">
<g id="Group 112">
<g id="Group 94">
<path id="Path 78" d="M95.9432 17.1387V18.9136C94.6815 19.5777 93.2718 19.9105 91.8463 19.8809C90.7303 19.9164 89.6248 19.6547 88.6431 19.1226C87.7757 18.6276 87.0585 17.9069 86.5679 17.0371C86.0578 16.1627 85.7919 15.1674 85.798 14.1551C85.7823 13.381 85.9302 12.6124 86.2321 11.8994C86.5339 11.1865 86.983 10.5453 87.5498 10.0179C88.124 9.46677 88.8017 9.03485 89.5437 8.74705C90.2857 8.45925 91.0773 8.32126 91.873 8.34107C93.2391 8.38206 94.5831 8.6976 95.8247 9.26889V11.0029C94.6583 10.2935 93.3253 9.90441 91.9604 9.87501C91.3703 9.85429 90.782 9.95171 90.2301 10.1616C89.6782 10.3714 89.1738 10.6895 88.7465 11.097C88.3432 11.4959 88.0227 11.9706 87.8033 12.4937C87.5838 13.0168 87.4699 13.5781 87.4679 14.1454C87.4659 14.7126 87.576 15.2747 87.7917 15.7994C88.0075 16.324 88.3247 16.8008 88.7252 17.2026C89.1564 17.6041 89.6626 17.9167 90.2148 18.1222C90.7669 18.3278 91.3543 18.4224 91.9431 18.4006C93.3709 18.3783 94.7611 17.9398 95.9432 17.1387Z" fill="white"/>
</g>
<g id="Group 95">
<path id="Path 79" d="M99.2959 12.3336V14.0344L99.3753 13.9057C100.088 12.7609 100.797 12.188 101.502 12.1868C102.168 12.237 102.79 12.5384 103.241 13.0298L102.463 14.3193C102.101 13.9056 101.594 13.6461 101.047 13.5942C100.803 13.5995 100.564 13.6636 100.35 13.781C100.136 13.8984 99.954 14.0657 99.8186 14.2687C99.4661 14.7287 99.2811 15.2952 99.2941 15.8745V19.7544H97.8223V12.3336H99.2959Z" fill="white"/>
</g>
<g id="Group 96">
<path id="Path 80" d="M110.257 16.1714H105.041C105.044 16.4873 105.109 16.7997 105.232 17.0906C105.355 17.3815 105.535 17.6453 105.76 17.8668C105.986 18.0789 106.253 18.2435 106.544 18.3512C106.835 18.4589 107.144 18.5074 107.454 18.4938C108.421 18.495 109.362 18.1775 110.131 17.5904V19.0227C109.718 19.3079 109.264 19.5263 108.784 19.6701C108.277 19.8082 107.753 19.8739 107.227 19.8653C106.53 19.8968 105.84 19.721 105.243 19.3599C104.729 19.0133 104.312 18.5412 104.031 17.9884C103.714 17.3756 103.557 16.6925 103.576 16.0028C103.532 14.9975 103.874 14.0135 104.532 13.2517C104.845 12.9029 105.231 12.627 105.662 12.4434C106.093 12.2598 106.559 12.173 107.028 12.189C107.472 12.1718 107.915 12.2558 108.322 12.4347C108.73 12.6136 109.091 12.8826 109.379 13.2215C109.998 14.0079 110.31 14.9922 110.257 15.9912V16.1714ZM105.068 15.295H108.804C108.803 14.7934 108.617 14.3097 108.282 13.9368C108.116 13.7762 107.919 13.6511 107.704 13.5694C107.488 13.4877 107.258 13.451 107.028 13.4616C106.548 13.4447 106.08 13.6151 105.723 13.9368C105.368 14.3097 105.139 14.7848 105.068 15.295Z" fill="white"/>
</g>
<g id="Group 97">
<path id="Path 81" d="M116.507 15.295V18.4454C116.507 18.6944 116.593 18.8262 116.765 18.8262C117.071 18.7668 117.357 18.6292 117.594 18.4268V19.3231C117.341 19.4953 117.071 19.642 116.789 19.7611C116.589 19.8415 116.376 19.8816 116.162 19.8791C115.533 19.8791 115.164 19.6297 115.048 19.1407C114.484 19.6022 113.78 19.8568 113.051 19.8622C112.813 19.8682 112.576 19.8258 112.354 19.7376C112.133 19.6494 111.931 19.5172 111.762 19.349C111.593 19.1808 111.46 18.9801 111.371 18.759C111.281 18.5379 111.238 18.3009 111.243 18.0625C111.244 17.5956 111.427 17.1475 111.751 16.8121C112.148 16.406 112.639 16.1048 113.181 15.9358L115.063 15.2919V14.8926C115.063 14.0029 114.613 13.5614 113.722 13.5614C112.923 13.5614 112.143 13.9756 111.382 14.8038V13.1958C111.691 12.8526 112.073 12.5835 112.5 12.4087C112.927 12.234 113.388 12.1581 113.848 12.1868C114.545 12.1512 115.23 12.3758 115.771 12.8169C115.947 12.9696 116.095 13.1515 116.209 13.3547C116.329 13.5612 116.411 13.7878 116.45 14.0233C116.497 14.4455 116.516 14.8703 116.507 15.295ZM115.064 18.2848V16.0871L114.082 16.4611C113.694 16.5949 113.335 16.8007 113.023 17.0677C112.92 17.1634 112.838 17.2803 112.783 17.4105C112.728 17.5406 112.702 17.681 112.707 17.822C112.702 17.9604 112.726 18.0982 112.777 18.2269C112.828 18.3555 112.905 18.4724 113.003 18.5701C113.104 18.6663 113.224 18.7411 113.355 18.7903C113.485 18.8394 113.624 18.8619 113.764 18.8563C114.008 18.8515 114.248 18.7985 114.471 18.7005C114.694 18.6024 114.896 18.4611 115.064 18.2848Z" fill="white"/>
</g>
<g id="Group 98">
<path id="Path 82" d="M117.854 13.5099L120.611 10.8001V12.3336H122.963V13.6537H120.611V17.2922C120.611 18.1353 120.96 18.5661 121.673 18.5661C122.265 18.5432 122.84 18.3603 123.337 18.0368V19.4079C122.773 19.7243 122.136 19.8881 121.489 19.8831C120.876 19.9039 120.277 19.6934 119.812 19.2934C119.676 19.1796 119.559 19.0448 119.466 18.894C119.361 18.7129 119.284 18.5176 119.236 18.3141C119.158 17.8623 119.127 17.4038 119.141 16.9457V13.6528H117.854L117.854 13.5099Z" fill="white"/>
</g>
<g id="Group 99">
<path id="Path 83" d="M125.149 9.21296C125.265 9.21148 125.38 9.23325 125.488 9.277C125.595 9.32074 125.693 9.38558 125.775 9.46766C125.858 9.54549 125.924 9.6401 125.968 9.74525C126.012 9.85041 126.034 9.96374 126.031 10.0778C126.032 10.1918 126.01 10.3048 125.966 10.41C125.922 10.5151 125.857 10.6102 125.775 10.6892C125.694 10.7729 125.596 10.8391 125.489 10.8837C125.381 10.9283 125.266 10.9505 125.149 10.9488C125.038 10.9482 124.927 10.9243 124.825 10.8784C124.724 10.8326 124.632 10.7658 124.558 10.6826C124.476 10.6047 124.411 10.511 124.366 10.4071C124.322 10.3033 124.299 10.1914 124.299 10.0784C124.299 9.96543 124.322 9.85362 124.366 9.74976C124.411 9.64591 124.476 9.55219 124.558 9.47431C124.633 9.39247 124.725 9.32704 124.827 9.28208C124.928 9.23711 125.038 9.21358 125.149 9.21296ZM124.427 12.3336H125.894V19.7544H124.427V12.3336Z" fill="white"/>
</g>
<g id="Group 100">
<path id="Path 84" d="M132.562 12.3336H134.16L130.876 19.8822H130.379L127.029 12.3336H128.63L130.634 16.8995L132.562 12.3336Z" fill="white"/>
</g>
<g id="Group 101">
<path id="Path 85" d="M141.244 16.1714H136.025C136.026 16.4868 136.09 16.7989 136.211 17.0899C136.333 17.3808 136.511 17.6449 136.735 17.8668C136.964 18.0786 137.232 18.243 137.524 18.3506C137.816 18.4583 138.126 18.5069 138.438 18.4938C139.405 18.4939 140.345 18.1765 141.114 17.5904V19.0227C140.702 19.3067 140.249 19.5251 139.77 19.6701C139.261 19.8076 138.735 19.8733 138.207 19.8653C137.509 19.8977 136.817 19.7218 136.22 19.36C135.71 19.0103 135.295 18.5389 135.013 17.9884C134.695 17.3762 134.537 16.6927 134.556 16.0028C134.514 14.9977 134.855 14.014 135.512 13.2517C135.824 12.9033 136.21 12.6276 136.64 12.444C137.071 12.2604 137.537 12.1733 138.004 12.189C138.45 12.1727 138.894 12.257 139.302 12.4358C139.71 12.6146 140.073 12.8831 140.364 13.2215C140.981 14.0086 141.294 14.9921 141.244 15.9912V16.1714ZM136.052 15.295H139.788C139.786 14.7936 139.6 14.3105 139.265 13.9368C139.099 13.7759 138.901 13.6507 138.684 13.569C138.467 13.4873 138.235 13.4507 138.004 13.4616C137.527 13.4447 137.062 13.6152 136.709 13.9368C136.351 14.3078 136.121 14.7838 136.053 15.295H136.052Z" fill="white"/>
</g>
<g id="Group 102">
<path id="Path 86" d="M144.596 8.46973H154.003V9.90382H150.08V19.7544H148.454V9.90382H144.594L144.596 8.46973Z" fill="white"/>
</g>
<g id="Group 103">
<path id="Path 87" d="M159.17 16.1714H153.957C153.961 16.8086 154.217 17.4183 154.67 17.8668C155.13 18.2923 155.74 18.5178 156.367 18.4938C157.335 18.4966 158.276 18.1789 159.045 17.5904V19.0227C158.634 19.3086 158.18 19.5272 157.7 19.6701C157.193 19.8083 156.668 19.874 156.143 19.8653C155.447 19.8968 154.757 19.7209 154.161 19.3599C153.645 19.0147 153.228 18.5422 152.949 17.9884C152.631 17.3756 152.472 16.6929 152.486 16.0028C152.445 14.9971 152.789 14.0137 153.446 13.2517C153.759 12.9034 154.144 12.6278 154.575 12.4442C155.005 12.2606 155.471 12.1735 155.939 12.189C156.384 12.1716 156.828 12.2555 157.236 12.4343C157.645 12.6132 158.007 12.8823 158.297 13.2215C158.913 14.0088 159.223 14.9928 159.17 15.9912V16.1714ZM153.987 15.295H157.729C157.718 14.7934 157.529 14.3119 157.196 13.9368C157.03 13.7754 156.833 13.6498 156.616 13.5681C156.399 13.4863 156.168 13.4501 155.937 13.4616C155.462 13.4439 154.999 13.6148 154.65 13.9368C154.287 14.305 154.054 14.782 153.987 15.295Z" fill="white"/>
</g>
<g id="Group 104">
<path id="Path 88" d="M166.324 18.0217V19.4678C165.635 19.7352 164.904 19.8756 164.165 19.8822C163.657 19.9069 163.149 19.8282 162.672 19.651C162.195 19.4737 161.758 19.2016 161.389 18.851C161.037 18.4853 160.764 18.0514 160.587 17.576C160.409 17.1006 160.331 16.5939 160.356 16.0871C160.306 15.0501 160.666 14.035 161.358 13.261C161.699 12.9044 162.113 12.6243 162.57 12.4393C163.028 12.2543 163.52 12.1685 164.013 12.1877C164.359 12.1834 164.705 12.2213 165.042 12.3004C165.426 12.3974 165.8 12.5311 166.159 12.6997V14.2691C165.556 13.8425 164.844 13.5962 164.106 13.5592C163.8 13.5496 163.494 13.6069 163.212 13.7272C162.93 13.8474 162.677 14.0276 162.472 14.2554C162.04 14.7452 161.813 15.3822 161.838 16.0347C161.822 16.3663 161.874 16.6978 161.992 17.0081C162.11 17.3185 162.291 17.601 162.524 17.838C162.774 18.0676 163.067 18.2451 163.386 18.3602C163.705 18.4753 164.044 18.5257 164.383 18.5084C165.057 18.484 165.718 18.3182 166.324 18.0217Z" fill="white"/>
</g>
<g id="Group 105">
<path id="Path 89" d="M167.961 8.48837H169.436V13.3098C169.702 12.9579 170.047 12.6731 170.443 12.4782C170.838 12.2833 171.274 12.1838 171.716 12.1877C172.186 12.1809 172.649 12.3109 173.047 12.5617C173.439 12.8028 173.745 13.1613 173.921 13.5863C174.143 14.2085 174.241 14.8682 174.208 15.528V19.7544H172.74V15.1632C172.765 14.6928 172.623 14.2287 172.337 13.8538C172.216 13.694 172.057 13.5657 171.876 13.4796C171.694 13.3934 171.495 13.3519 171.294 13.3586C170.971 13.3564 170.653 13.4426 170.376 13.608C170.022 13.8346 169.706 14.1141 169.437 14.4369V19.7544H167.962L167.961 8.48837Z" fill="white"/>
</g>
<g id="Group 106">
<path id="Path 90" d="M177.722 12.3336V13.2797C177.992 12.946 178.332 12.6753 178.718 12.4867C179.103 12.2981 179.526 12.196 179.955 12.1877C180.409 12.1849 180.855 12.3097 181.242 12.548C181.634 12.7799 181.95 13.1216 182.15 13.5308C182.394 14.1598 182.501 14.8335 182.465 15.5071V19.7544H181.001V15.528C181.045 14.9629 180.923 14.3972 180.648 13.9013C180.509 13.731 180.331 13.5976 180.128 13.5132C179.925 13.4288 179.704 13.396 179.485 13.4177C179.128 13.4264 178.778 13.5262 178.47 13.7075C178.161 13.8889 177.904 14.1459 177.723 14.4542V19.7544H176.223V12.3336H177.722Z" fill="white"/>
</g>
<g id="Group 107">
<path id="Path 91" d="M193.477 8.48837H194.947V19.7544H193.477V8.48837Z" fill="white"/>
</g>
<g id="Group 108">
<path id="Path 92" d="M200.608 12.3172C201.127 12.3033 201.644 12.3927 202.128 12.5804C202.612 12.7681 203.054 13.0503 203.428 13.4105C203.793 13.7658 204.081 14.1932 204.273 14.6655C204.465 15.1379 204.556 15.6449 204.542 16.1545C204.554 16.6548 204.46 17.152 204.264 17.6125C204.068 18.073 203.775 18.4862 203.406 18.8239C202.628 19.5367 201.602 19.9165 200.547 19.8822C200.034 19.8978 199.522 19.8104 199.043 19.6253C198.564 19.4401 198.126 19.1608 197.757 18.804C197.39 18.4609 197.101 18.0441 196.907 17.581C196.714 17.1179 196.621 16.619 196.634 16.1172C196.621 15.6106 196.715 15.1069 196.91 14.6393C197.105 14.1716 197.397 13.7506 197.767 13.4039C198.145 13.0439 198.591 12.7625 199.079 12.5759C199.567 12.3894 200.087 12.3015 200.608 12.3172ZM200.529 13.6435C200.209 13.6322 199.89 13.6875 199.592 13.8058C199.294 13.9241 199.024 14.1028 198.799 14.3308C198.573 14.5653 198.397 14.8429 198.281 15.147C198.165 15.4512 198.112 15.7756 198.125 16.1008C198.112 16.4225 198.167 16.7432 198.286 17.0422C198.405 17.3412 198.586 17.6117 198.817 17.8362C199.052 18.0619 199.331 18.2378 199.636 18.3536C199.941 18.4694 200.266 18.5227 200.592 18.5102C200.918 18.5237 201.243 18.47 201.547 18.3524C201.852 18.2347 202.129 18.0557 202.361 17.8264C202.811 17.3541 203.059 16.725 203.054 16.0725C203.048 15.42 202.789 14.7954 202.331 14.3308C202.091 14.1017 201.809 13.9228 201.499 13.8048C201.19 13.6867 200.86 13.6319 200.529 13.6435Z" fill="white"/>
</g>
<g id="Group 109">
<path id="Path 93" d="M187.985 12.3172C188.504 12.303 189.021 12.3923 189.505 12.58C189.99 12.7677 190.432 13.0501 190.806 13.4105C191.171 13.7658 191.459 14.1932 191.651 14.6655C191.843 15.1379 191.934 15.6449 191.919 16.1545C191.932 16.6547 191.837 17.1517 191.642 17.6122C191.446 18.0726 191.154 18.4858 190.785 18.8239C190.007 19.5357 188.981 19.9154 187.927 19.8822C187.413 19.898 186.902 19.8107 186.422 19.6255C185.943 19.4404 185.506 19.161 185.136 18.8039C184.78 18.4502 184.497 18.0292 184.304 17.5654C184.111 17.1015 184.013 16.6041 184.014 16.1018C184.015 15.5995 184.115 15.1024 184.31 14.6393C184.504 14.1762 184.789 13.7563 185.147 13.4039C185.524 13.0441 185.97 12.7627 186.457 12.5762C186.944 12.3897 187.463 12.3017 187.985 12.3172ZM187.907 13.6435C187.587 13.6322 187.267 13.6875 186.97 13.8058C186.672 13.9241 186.402 14.1029 186.176 14.3308C185.95 14.5651 185.774 14.8427 185.658 15.1469C185.543 15.4511 185.489 15.7756 185.502 16.1008C185.489 16.4225 185.544 16.7434 185.663 17.0425C185.783 17.3415 185.964 17.612 186.195 17.8362C186.431 18.0619 186.709 18.2379 187.014 18.3537C187.319 18.4695 187.644 18.5227 187.97 18.5102C188.296 18.5236 188.621 18.4698 188.925 18.3521C189.229 18.2345 189.506 18.0556 189.738 17.8264C190.188 17.354 190.437 16.7248 190.431 16.0721C190.425 15.4195 190.165 14.7949 189.706 14.3308C189.467 14.1019 189.186 13.9232 188.877 13.8051C188.568 13.687 188.239 13.6321 187.909 13.6435H187.907Z" fill="white"/>
</g>
<g id="Group 110">
<path id="Path 94" d="M205.794 14.8939C205.78 14.5356 205.852 14.1792 206.003 13.8542C206.155 13.5291 206.381 13.2449 206.665 13.025C207.351 12.531 208.186 12.287 209.03 12.3336H212.087V13.4815H210.591C210.834 13.7174 211.038 13.9892 211.198 14.2873C211.308 14.5492 211.364 14.8307 211.363 15.1149C211.358 15.5181 211.243 15.9125 211.031 16.2552C210.829 16.6118 210.537 16.9085 210.183 17.1152C209.645 17.3678 209.069 17.5285 208.478 17.5904C207.918 17.6711 207.643 17.8668 207.643 18.1672C207.649 18.2596 207.681 18.3483 207.736 18.4225C207.792 18.4968 207.867 18.5533 207.954 18.5852C208.314 18.7462 208.693 18.8627 209.081 18.9322C209.675 19.0433 210.26 19.2 210.831 19.4007C211.096 19.5111 211.336 19.6752 211.535 19.8826C211.713 20.056 211.853 20.2645 211.946 20.4949C212.039 20.7254 212.082 20.9726 212.074 21.2209C212.079 21.5596 211.995 21.8935 211.829 22.1889C211.663 22.4843 211.422 22.7307 211.131 22.903C210.376 23.3589 209.502 23.5788 208.621 23.5344C207.731 23.5784 206.849 23.3579 206.084 22.9008C205.792 22.7249 205.551 22.4754 205.386 22.1772C205.22 21.8791 205.136 21.5428 205.141 21.2018C205.141 20.1972 205.755 19.5503 207 19.2605C206.504 18.9402 206.258 18.6269 206.258 18.3132C206.262 18.1891 206.292 18.0672 206.348 17.9561C206.403 17.8449 206.482 17.7471 206.578 17.6694C206.825 17.4595 207.119 17.3137 207.434 17.2447C206.949 17.0748 206.529 16.7563 206.235 16.3343C205.94 15.9123 205.786 15.4084 205.794 14.8939ZM208.211 20.0947C207.784 20.0758 207.361 20.1874 206.998 20.4146C206.856 20.4967 206.738 20.6141 206.656 20.7553C206.573 20.8965 206.528 21.0568 206.526 21.2204C206.526 21.986 207.214 22.3681 208.589 22.3666C209.11 22.3913 209.629 22.2931 210.105 22.0799C210.263 22.0112 210.397 21.8982 210.492 21.7546C210.587 21.6111 210.638 21.4431 210.64 21.271C210.64 20.924 210.412 20.6441 209.957 20.4249C209.407 20.1857 208.811 20.0729 208.211 20.0947ZM208.557 13.608C208.369 13.6042 208.182 13.6381 208.007 13.7076C207.832 13.7771 207.673 13.8808 207.539 14.0127C207.405 14.135 207.299 14.284 207.227 14.4501C207.155 14.6161 207.119 14.7955 207.121 14.9764C207.117 15.155 207.151 15.3324 207.221 15.4967C207.291 15.661 207.395 15.8083 207.527 15.9287C207.817 16.1803 208.191 16.3128 208.574 16.2996C208.955 16.3116 209.326 16.175 209.609 15.9184C209.742 15.7984 209.849 15.6508 209.92 15.4858C209.991 15.3208 210.026 15.1424 210.022 14.9627C210.027 14.7807 209.992 14.5998 209.921 14.4324C209.85 14.2649 209.743 14.1148 209.609 13.9923C209.32 13.7339 208.944 13.5963 208.557 13.608Z" fill="white"/>
</g>
<g id="Group 111">
<path id="Path 95" d="M218.357 12.3336H219.998L214.747 23.5345H213.109L215.628 18.1655L212.762 12.3354H214.436L216.433 16.5272L218.357 12.3336Z" fill="white"/>
</g>
</g>
</g>
<g id="Group 122">
<g id="Group 117">
<g id="Group 114">
<path id="Path 96" d="M28.6926 27.6779V31.7601H19.6576C18.3371 31.7846 17.0167 31.7058 15.7085 31.5244C12.535 30.9769 10.2771 29.4035 8.93467 26.8042C8.04723 25.0683 7.60352 22.9185 7.60352 20.3547C7.60352 17.2762 8.28093 14.7677 9.63575 12.8292C10.6074 11.4432 11.9757 10.3836 13.5609 9.78974C15.1941 9.15316 17.3136 8.83383 19.9194 8.83176H28.6926V12.914H20.5468C18.0845 12.914 16.2751 13.497 15.1188 14.6631C14.1746 15.6242 13.7013 17.3695 13.6989 19.899C13.6989 23.2825 14.4392 25.5054 15.9197 26.5677C16.9505 27.3078 18.5687 27.677 20.7562 27.677L28.6926 27.6779Z" fill="white"/>
</g>
<g id="Group 115">
<path id="Path 97" d="M39.5515 12.9122H31.293V8.83002H53.6378V12.9122H45.0567V31.7592H39.5515V12.9122Z" fill="white"/>
</g>
<g id="Group 116">
<path id="Path 98" d="M57.7808 31.7592V27.677H69.6033C71.5064 27.677 72.7683 27.5102 73.398 27.1725C73.8143 26.9857 74.1663 26.6804 74.4101 26.2948C74.654 25.9091 74.7788 25.4602 74.7691 25.004C74.782 24.4836 74.6361 23.9716 74.3507 23.5363C74.0653 23.1009 73.6541 22.7629 73.1717 22.5671C72.2445 22.224 71.2564 22.0758 70.2693 22.1318H65.4687C62.5325 22.1318 60.4208 21.6624 59.1337 20.7235C58.3283 20.1401 57.6764 19.3701 57.2337 18.4796C56.7803 17.5878 56.5462 16.6007 56.5508 15.6003C56.5488 13.9864 57.1114 12.4226 58.1411 11.18C59.1803 9.89495 60.844 9.14491 63.1321 8.92986C63.9068 8.86774 65.0547 8.83002 66.5856 8.83002H79.4326V12.9122H67.8373C66.6832 12.8834 65.5288 12.9514 64.386 13.1155C63.2208 13.3722 62.6388 14.1501 62.64 15.449C62.6047 15.9286 62.7292 16.4064 62.9941 16.8078C63.259 17.2092 63.6494 17.5115 64.1043 17.6676C65.1632 17.9769 66.2665 18.1064 67.3683 18.0509H71.5264C73.1286 17.9925 74.7313 18.1568 76.2884 18.539C78.1209 19.0893 79.3801 20.0523 80.0658 21.4281C80.6205 22.5323 80.9052 23.7524 80.8964 24.9881C80.9137 26.3155 80.5378 27.6184 79.8159 28.7326C79.3097 29.5111 78.6364 30.1669 77.8449 30.6525C77.0534 31.138 76.1636 31.4411 75.2403 31.5396C73.7678 31.7112 72.2854 31.7845 70.8031 31.7588L57.7808 31.7592Z" fill="white"/>
</g>
</g>
<g id="Group 119">
<g id="Group 118">
<path id="Path 99" d="M36.116 39.5665H21.2873C19.0425 39.608 16.7979 39.4744 14.5739 39.1671C9.2803 38.2548 5.46165 35.5965 3.22486 31.2689C1.73707 28.363 0.983193 24.6979 0.983193 20.3751C0.983193 15.1983 2.13331 10.9266 4.39983 7.68034C6.02732 5.3665 8.31404 3.59654 10.962 2.60109C13.7153 1.52728 17.34 0.983286 21.7346 0.983286H28.3713V0.221863H21.7359C17.2459 0.221863 13.5271 0.783612 10.6873 1.89158C7.89902 2.94124 5.49144 4.80627 3.77818 7.24373C1.41892 10.6209 0.222656 15.0394 0.222656 20.3751C0.222656 24.8199 1.00494 28.6017 2.54863 31.6168C4.90035 36.1689 8.90447 38.9608 14.447 39.917C16.7132 40.2318 19.0006 40.3689 21.2882 40.327H39.6005V39.5656H36.1169L36.116 39.5665Z" fill="white"/>
<path id="Path 100" d="M39.8225 40.5497H21.2883C18.9885 40.5914 16.689 40.4533 14.4107 40.1366C8.7954 39.1684 4.73759 36.3366 2.35171 31.7193C0.792037 28.6727 0 24.8567 0 20.376C0 14.9937 1.20958 10.533 3.59413 7.11771C5.33222 4.6439 7.77531 2.75111 10.6049 1.68613C13.474 0.567512 17.219 0 21.7347 0H28.5937V0.98373H28.4974V1.20559H21.7365C17.3689 1.20559 13.7722 1.74515 11.0428 2.8083C8.43559 3.78784 6.18393 5.53016 4.5814 7.80813C2.34017 11.0167 1.20381 15.2449 1.20381 20.3756C1.20381 24.6633 1.9497 28.2946 3.42241 31.1682C5.62547 35.4305 9.38999 38.048 14.6112 38.9475C16.8228 39.2529 19.0548 39.3855 21.287 39.3441H39.8211L39.8225 40.5497ZM21.7365 0.444166C17.2762 0.444166 13.5854 1.00103 10.7682 2.09968C8.02059 3.13302 5.64813 4.97031 3.96019 7.37196C1.62756 10.7114 0.444606 15.0864 0.444606 20.376C0.444606 24.7853 1.21889 28.5338 2.74573 31.5165C5.06505 36.0025 9.0146 38.7558 14.4848 39.6991C16.7386 40.0116 19.0133 40.1477 21.2883 40.106H39.3787V39.7883H21.2883C19.0312 39.8296 16.7743 39.6951 14.538 39.3859C9.17168 38.4611 5.29934 35.7647 3.02883 31.3714C1.52462 28.434 0.762311 24.7347 0.762311 20.376C0.762311 15.153 1.92574 10.8392 4.22021 7.55254C5.87267 5.20306 8.1947 3.40598 10.8835 2.39563C13.6626 1.31163 17.3135 0.762304 21.7365 0.762304H28.1518V0.444166H21.7365Z" fill="white"/>
</g>
</g>
<g id="Group 121">
<g id="Group 120">
<path id="Path 101" d="M47.7457 36.953H21.1154C19.1748 36.9888 17.2343 36.8734 15.3116 36.6077C10.7351 35.8193 7.43378 33.5212 5.50005 29.7802C4.21327 27.2683 3.56189 24.1006 3.56189 20.3623C3.56189 15.8869 4.55626 12.1939 6.51706 9.38735C7.92379 7.38641 9.90065 5.85563 12.19 4.99453C14.5701 4.06627 17.7041 3.59592 21.5032 3.59592H53.585V2.93744H21.5041C17.6229 2.93744 14.4086 3.42553 11.9517 4.3813C9.54099 5.28855 7.45944 6.90097 5.97838 9.00841C3.93728 11.9281 2.9043 15.7481 2.9043 20.361C2.9043 24.204 3.58052 27.4733 4.91523 30.0784C6.94968 34.0142 10.4103 36.428 15.202 37.2547C17.1612 37.5268 19.1386 37.6455 21.1163 37.6097H57.9175V36.9512H47.7457V36.953Z" fill="white"/>
<path id="Path 102" d="M58.1386 37.8333H21.116C19.1259 37.8703 17.1359 37.7516 15.1643 37.4783C10.2999 36.6366 6.78515 34.1837 4.71742 30.1831C3.3663 27.5443 2.68164 24.2409 2.68164 20.3623C2.68164 15.7032 3.72926 11.8429 5.79566 8.88327C7.30135 6.73927 9.41823 5.09881 11.8702 4.17587C14.355 3.20811 17.5942 2.71692 21.5033 2.71692H53.807V3.81911H21.5042C17.7326 3.81911 14.6266 4.28413 12.2713 5.20263C10.0231 6.04734 8.08133 7.54927 6.69863 9.51291C4.76446 12.2817 3.7834 15.9313 3.7834 20.361C3.7834 24.0629 4.42767 27.1973 5.6976 29.6791C7.5976 33.3548 10.8447 35.6125 15.3494 36.3885C17.2603 36.6524 19.189 36.7668 21.1177 36.7306H58.1403L58.1386 37.8333ZM21.5042 3.16064C17.651 3.16064 14.4646 3.64117 12.0321 4.5894C9.66226 5.48106 7.61596 7.06596 6.15995 9.13752C4.14724 12.019 3.12625 15.796 3.12625 20.3636C3.12625 24.1712 3.79493 27.4068 5.11322 29.9817C7.11306 33.8505 10.5204 36.2257 15.2398 37.0399C17.1867 37.3098 19.1517 37.4271 21.1168 37.3909H57.6957V37.1761H21.116C19.1628 37.2122 17.2098 37.0958 15.2748 36.8278C10.6255 36.0291 7.27103 33.6903 5.30269 29.8836C4.00037 27.3389 3.33968 24.1366 3.33968 20.3636C3.33968 15.8412 4.34781 12.106 6.33478 9.26133C7.76703 7.22499 9.77922 5.66706 12.1093 4.79041C14.5152 3.85238 17.6758 3.37673 21.5033 3.37673H53.3633V3.16197L21.5042 3.16064Z" fill="white"/>
</g>
</g>
</g>
</g>
</svg>
