<svg width="403" height="455" viewBox="0 0 403 455" fill="none" xmlns="http://www.w3.org/2000/svg">
<g clip-path="url(#clip0_738_421838)">
<path d="M100.701 183.36V92.29C100.701 85.53 106.341 79.89 113.111 79.89C119.881 79.89 125.281 85.53 125.281 92.29V183.36C125.281 190.35 119.861 195.76 113.111 195.76C106.361 195.76 100.701 190.35 100.701 183.36ZM113.111 237.7C106.341 237.7 100.701 232.29 100.701 225.3V220.79C100.701 214.03 106.341 208.39 113.111 208.39C119.881 208.39 125.281 214.03 125.281 220.79V225.3C125.281 232.29 119.861 237.7 113.111 237.7Z" fill="#FFCACA"/>
<path d="M365.1 173.23L354.93 51.81C354.17 42.79 361.06 34.65 370.09 33.89C379.1 33.14 386.94 40.04 387.7 49.06L397.87 170.48C398.65 179.8 392.03 187.62 383.03 188.37C374 189.13 365.88 182.55 365.1 173.22V173.23ZM387.71 244.28C378.68 245.04 370.56 238.46 369.78 229.13L369.28 223.12C368.52 214.1 375.41 205.96 384.44 205.2C393.45 204.45 401.29 211.35 402.05 220.37L402.55 226.38C403.33 235.7 396.71 243.52 387.71 244.27V244.28Z" fill="#FFCACA"/>
<path d="M16.3909 376.74L0.180947 281.29C-1.01905 274.2 3.88095 267.29 10.9809 266.09C18.0609 264.89 24.7409 269.83 25.9409 276.92L42.1509 372.36C43.3909 379.69 38.6809 386.32 31.6009 387.52C24.5009 388.73 17.6309 384.06 16.3909 376.73V376.74ZM39.0609 431.47C31.9609 432.68 25.0909 428.01 23.8509 420.68L23.0509 415.96C21.8509 408.87 26.7509 401.96 33.8509 400.76C40.9309 399.56 47.6109 404.5 48.8109 411.59L49.6109 416.31C50.8509 423.64 46.1409 430.27 39.0609 431.47Z" fill="#FFCACA"/>
<path d="M141.162 133.48L151.162 52.5001C151.902 46.4901 157.532 42.0901 163.552 42.8401C169.562 43.5801 173.752 49.1901 173.012 55.2001L163.012 136.18C162.242 142.4 156.832 146.61 150.832 145.87C144.812 145.13 140.392 139.7 141.162 133.48ZM146.232 183.15C140.212 182.41 135.792 176.98 136.562 170.76L137.052 166.75C137.792 160.74 143.422 156.34 149.442 157.09C155.452 157.83 159.642 163.44 158.902 169.45L158.412 173.46C157.642 179.68 152.232 183.89 146.232 183.15Z" fill="#FFCACA"/>
<path d="M0.0605469 453.66C128.991 453.05 273.621 453.04 402.551 453.66C273.621 454.28 128.991 454.27 0.0605469 453.66Z" fill="#1B224C"/>
<path d="M151.17 238.61L217.6 26.95C223.9 6.88998 245.85 -4.57003 265.93 1.72997C285.96 8.01997 296.77 29.77 290.48 49.82L224.05 261.48C217.54 282.22 196.45 293.21 176.42 286.92C156.34 280.62 144.66 259.34 151.17 238.6V238.61ZM137.4 411.27C117.32 404.97 105.65 383.66 112.15 362.95L116.34 349.59C122.64 329.53 144.59 318.07 164.67 324.37C184.7 330.66 195.51 352.41 189.22 372.46L185.03 385.82C178.53 406.53 157.43 417.55 137.4 411.26V411.27Z" fill="#F3223C"/>
<path d="M36.0294 203.37L12.9194 69.95C10.7294 57.31 19.4394 44.95 32.0994 42.76C44.7294 40.57 56.6694 49.35 58.8594 62L81.9794 195.42C84.2394 208.49 75.8694 220.35 63.2494 222.54C50.5894 224.73 38.3094 216.45 36.0394 203.38L36.0294 203.37ZM76.8194 300.91C64.1594 303.1 51.8694 294.81 49.6094 281.75L48.1494 273.33C45.9594 260.69 54.6694 248.33 67.3294 246.14C79.9594 243.95 91.8994 252.73 94.0894 265.38L95.5494 273.8C97.8094 286.85 89.4394 298.73 76.8194 300.92V300.91Z" fill="#F3223C"/>
<path d="M313.45 256.51L344 124.59C346.89 112.09 359.72 104.09 372.24 106.98C384.72 109.87 392.32 122.6 389.42 135.1L358.87 267.02C355.88 279.94 343.56 287.62 331.07 284.73C318.55 281.83 310.45 269.43 313.44 256.5L313.45 256.51ZM313.14 362.23C300.62 359.33 292.53 346.91 295.51 334L297.44 325.67C300.33 313.17 313.16 305.17 325.68 308.07C338.16 310.96 345.76 323.69 342.86 336.19L340.93 344.52C337.94 357.43 325.62 365.12 313.13 362.23H313.14Z" fill="#F3223C"/>
<g opacity="0.2">
<path d="M72.4209 140.3L32.0909 180.65L19.6309 108.66L59.9609 68.3301L72.4209 140.3Z" fill="white"/>
<path d="M189.22 372.47L188.27 375.49L150.77 412.99C146.37 413.22 141.86 412.68 137.4 411.29C119.08 405.55 107.77 387.33 110.85 368.48L156.54 322.78C159.26 323.01 161.98 323.53 164.67 324.38C184.7 330.67 195.51 352.42 189.22 372.47Z" fill="white"/>
<path d="M190.74 288.58L226.9 252.41L224.05 261.49C219.09 277.27 205.69 287.41 190.74 288.58Z" fill="white"/>
<path d="M389.43 135.11L377.61 186.16L315.33 248.43L340.77 138.55L372.32 107.01C384.76 109.93 392.31 122.63 389.44 135.11H389.43Z" fill="white"/>
<path d="M93.9205 264.45L60.5405 297.83C54.9805 294.46 50.8305 288.79 49.6205 281.74L48.1605 273.33C48.1205 273.09 48.0805 272.84 48.0605 272.6L74.6005 246.06C83.9705 247.49 91.8505 254.75 93.9305 264.45H93.9205Z" fill="white"/>
<path d="M290.491 49.83L282.231 76.15L165.551 192.83L182.811 137.85L291.271 29.39C292.801 35.95 292.641 42.99 290.491 49.83Z" fill="white"/>
<path d="M342.861 336.2L341.801 340.77L319.771 362.8C317.601 362.93 315.361 362.76 313.131 362.24C305.451 360.47 299.431 355.09 296.621 348.23L333.381 311.48C341.081 316.77 345.101 326.56 342.871 336.2H342.861Z" fill="white"/>
<path d="M55.1302 52.76L16.6002 91.29L14.9102 81.51L49.5102 46.91C51.6902 48.51 53.6002 50.49 55.1302 52.76Z" fill="white"/>
<path d="M371.28 213.48L367.82 228.41L318.78 277.45C316.91 275.37 315.43 272.96 314.41 270.34L371.27 213.48H371.28Z" fill="white"/>
<path d="M95.87 276.59C96.58 288.51 88.54 298.88 76.82 300.92C74.94 301.25 73.08 301.34 71.25 301.22L95.87 276.6V276.59Z" fill="white"/>
<path d="M275.779 96.6801L270.539 113.4L153.859 230.07L159.099 213.36L275.779 96.6801Z" fill="white"/>
<path d="M75.1098 155.84L34.7798 196.17L33.0898 186.39L73.4198 146.06L75.1098 155.84Z" fill="white"/>
</g>
<path d="M314.14 382.47C314.14 382.47 314.86 428.06 314.86 428.09C314.75 436.63 314.5 444.12 314.01 447.98C314.01 448 314.01 448.02 314.01 448.04C313.83 449.5 313.61 450.43 313.35 450.67C313.33 450.69 313.32 450.71 313.3 450.72C310.74 452.41 242.43 453.51 240.04 452.75C237.64 452 239.63 445.1 242.25 442.94C244.89 440.78 270.84 428.66 270.84 428.66L270.55 382.45H314.16L314.14 382.47Z" fill="#F9ACB6"/>
<path d="M315.03 418.92C315.03 418.92 314.86 428.06 314.86 428.09C314.75 436.63 314.5 444.12 314.01 447.98C314.01 448 314.01 448.02 314.01 448.04C313.74 449.48 313.51 450.43 313.35 450.67C313.33 450.69 313.32 450.71 313.3 450.72C310.74 452.41 242.43 453.51 240.04 452.75C237.64 452 239.63 445.1 242.25 442.94C244.89 440.78 270.84 428.66 270.84 428.66L270.88 419.35L315.04 418.9L315.03 418.92Z" fill="white"/>
<path d="M266.64 428.66C271.19 427.96 276.71 428.82 280.07 432.16C280.2 432.29 280.01 432.47 279.87 432.42C275.45 430.87 271.3 429.84 266.64 429.23C266.31 429.19 266.31 428.71 266.64 428.66Z" fill="#1B224C"/>
<path d="M263.31 430.52C267.87 429.82 273.38 430.68 276.74 434.02C276.87 434.15 276.68 434.33 276.54 434.28C272.12 432.73 267.97 431.7 263.31 431.09C262.98 431.05 262.98 430.57 263.31 430.52Z" fill="#1B224C"/>
<path d="M259.98 432.39C264.53 431.69 270.05 432.55 273.41 435.89C273.54 436.02 273.35 436.2 273.21 436.15C268.79 434.6 264.64 433.57 259.98 432.96C259.65 432.92 259.65 432.44 259.98 432.39Z" fill="#1B224C"/>
<path d="M240.03 452.76C242.43 453.53 310.69 453.67 313.26 451.98C314.25 451.35 314.7 440.14 314.86 428.09C314.86 427.96 314.86 427.84 314.86 427.71L270.79 427.93L270.82 428.68C270.82 428.68 244.87 440.79 242.23 442.96C239.62 445.11 237.62 452.01 240.02 452.76H240.03Z" fill="#129ADE"/>
<path d="M240.76 450.1C252.27 449.63 298.73 448.83 310.14 449.24C310.23 449.24 310.23 449.31 310.14 449.31C298.74 450.02 252.28 450.45 240.76 450.29C240.52 450.29 240.51 450.11 240.76 450.1Z" fill="#1B224C"/>
<path opacity="0.1" d="M274.29 428.04L248.65 453.13C243.77 453.04 240.52 452.9 240.03 452.75C237.63 451.99 239.63 445.1 242.24 442.94C244.87 440.78 270.83 428.66 270.83 428.66L270.8 427.92L274.16 427.9L274.29 428.03V428.04Z" fill="#1B224C"/>
<path d="M316.441 427.51L266.641 428.1C266.641 428.1 265.491 343.83 265.541 316.99C265.601 286.34 270.191 194.9 270.191 194.9L307.131 195.26C307.131 195.26 312.981 208.22 315.171 224.12C315.761 228.39 315.091 240.84 313.611 246.52L312.291 321L316.431 427.5L316.441 427.51Z" fill="#1B224C"/>
<path d="M273.501 374.29C273.061 360.98 272.801 344.64 272.571 331.33C272.101 304.7 272.181 278.07 272.781 251.44C273.121 236.5 273.661 221.57 274.251 206.64C274.251 206.47 274.001 206.48 273.991 206.64C272.311 233.36 271.511 260.14 271.221 286.91C270.931 313.54 271.181 343.21 272.241 369.82C272.831 384.76 273.591 399.7 274.851 414.6C274.861 414.73 275.061 414.73 275.051 414.6C274.581 401.16 273.951 387.72 273.511 374.28L273.501 374.29Z" fill="#00679A"/>
<path d="M273.2 418.49C283.13 417.82 293.11 417.8 303.06 417.99C305.87 418.04 308.68 418.12 311.49 418.26C311.59 418.26 311.59 418.41 311.49 418.42C301.56 419.03 291.58 419.15 281.63 418.95C278.82 418.89 276.01 418.81 273.2 418.65C273.09 418.65 273.1 418.49 273.2 418.48V418.49Z" fill="#00679A"/>
<path d="M246.51 385.83C246.51 385.83 246.34 428.71 246.34 428.74C246.23 437.28 245.98 444.77 245.49 448.63C245.49 448.65 245.49 448.67 245.49 448.69C245.31 450.15 245.09 451.08 244.83 451.32C244.81 451.34 244.8 451.36 244.78 451.37C242.21 453.06 173.91 454.16 171.52 453.4C169.12 452.65 171.11 445.75 173.73 443.59C176.37 441.43 202.32 429.31 202.32 429.31L204.83 385.94L246.53 385.82L246.51 385.83Z" fill="#F9ACB6"/>
<path d="M246.51 419.57C246.51 419.57 246.34 428.71 246.34 428.74C246.23 437.28 245.98 444.77 245.49 448.63C245.49 448.65 245.49 448.67 245.49 448.69C245.22 450.13 244.99 451.08 244.83 451.32C244.81 451.34 244.8 451.36 244.78 451.37C242.21 453.06 173.91 454.16 171.52 453.4C169.12 452.65 171.11 445.75 173.73 443.59C176.37 441.43 202.32 429.31 202.32 429.31L202.36 420L246.52 419.55L246.51 419.57Z" fill="white"/>
<path d="M198.121 429.31C202.671 428.61 208.191 429.47 211.551 432.81C211.681 432.94 211.501 433.12 211.351 433.07C206.931 431.52 202.781 430.49 198.121 429.88C197.791 429.84 197.791 429.36 198.121 429.31Z" fill="#1B224C"/>
<path d="M194.79 431.18C199.34 430.48 204.86 431.34 208.22 434.68C208.35 434.81 208.16 434.99 208.02 434.94C203.6 433.39 199.45 432.36 194.79 431.75C194.46 431.71 194.46 431.23 194.79 431.18Z" fill="#1B224C"/>
<path d="M191.46 433.05C196.01 432.35 201.53 433.21 204.89 436.55C205.02 436.68 204.84 436.86 204.69 436.81C200.27 435.26 196.12 434.23 191.46 433.62C191.13 433.58 191.13 433.1 191.46 433.05Z" fill="#1B224C"/>
<path d="M171.501 453.41C173.901 454.18 242.431 454.6 245.001 452.91C245.991 452.28 246.171 440.8 246.331 428.75C246.331 428.62 246.331 428.5 246.331 428.37L202.261 428.59L202.291 429.34C202.291 429.34 176.341 441.45 173.701 443.62C171.091 445.77 169.091 452.67 171.491 453.42L171.501 453.41Z" fill="#129ADE"/>
<path d="M172.231 450.55C183.741 450.15 230.201 449.62 241.611 450.1C241.701 450.1 241.701 450.17 241.611 450.17C230.211 450.82 183.741 450.97 172.231 450.73C171.991 450.73 171.991 450.55 172.231 450.54V450.55Z" fill="#1B224C"/>
<path d="M285.241 242.35C285.241 242.35 257.941 306.99 255.521 317.33C253.241 327.08 249.201 428.75 249.201 428.75L200.531 428.37C200.531 428.37 207.691 325.61 208.591 315.18C209.781 301.49 221.701 270.27 234.331 236.89C239.681 222.75 246.881 208.88 250.661 194.72L305.981 195.26C305.981 195.26 305.251 220.24 293.711 238.2C293.711 238.2 288.541 240.53 285.231 242.35H285.241Z" fill="#1B224C"/>
<path d="M205.022 419.25C214.962 418.77 224.942 418.94 234.882 419.32C237.692 419.43 240.502 419.56 243.302 419.75C243.402 419.75 243.392 419.9 243.302 419.91C233.362 420.33 223.382 420.26 213.442 419.87C210.632 419.76 207.822 419.62 205.022 419.41C204.912 419.41 204.922 419.25 205.022 419.24V419.25Z" fill="#00679A"/>
<path d="M272.532 243.45C275.092 243.43 277.642 243.28 280.162 242.83C282.712 242.38 285.092 241.56 287.562 240.86C289.912 240.19 292.402 240.11 294.812 239.75C297.252 239.38 299.692 238.77 301.932 237.71C302.042 237.66 302.122 237.82 302.022 237.87C299.802 238.98 297.572 240.03 295.192 240.75C292.752 241.49 290.212 241.57 287.732 242.15C285.182 242.75 282.732 243.55 280.112 243.82C277.582 244.09 275.022 244.05 272.502 243.62C272.402 243.6 272.442 243.45 272.532 243.45Z" fill="#00679A"/>
<path d="M267.771 283.83C268.301 282.32 268.811 280.8 269.371 279.3C270.511 276.26 271.671 273.21 272.931 270.19C275.441 264.19 277.821 258.16 280.471 252.19C281.971 248.81 283.331 245.38 285.091 242.07C285.131 241.99 285.291 242.03 285.261 242.11C284.361 245.21 283.101 248.23 281.971 251.28C280.841 254.33 279.631 257.36 278.431 260.39C276.031 266.41 273.671 272.45 271.061 278.43C270.331 280.11 269.571 281.77 268.781 283.43C267.971 285.13 267.331 286.88 266.361 288.53C266.311 288.62 266.141 288.58 266.171 288.48C266.551 286.9 267.221 285.37 267.771 283.82V283.83Z" fill="#00679A"/>
<path d="M257.642 198.11C257.672 197.94 257.822 198.05 257.802 198.18C257.382 202.64 256.602 207.47 255.042 211.7L250.342 224.73L240.912 250.78C233.922 270.34 226.642 289.81 220.162 309.53C219.382 311.71 219.122 313.92 218.942 316.22C216.722 341.28 213.452 387.22 211.332 412.83C211.332 412.92 211.092 413.03 211.092 412.83C211.092 412.43 212.902 385.21 212.902 385.21C214.042 368.76 215.542 346.1 216.842 329.94C217.212 325.34 217.562 320.73 217.992 316.13C218.162 313.82 218.442 311.44 219.222 309.24C228.392 281.54 239.692 252.03 249.872 224.55L254.802 211.6C256.482 207.3 257.122 202.67 257.632 198.1L257.642 198.11Z" fill="#00679A"/>
<path d="M277.97 138.39C280.94 139.24 288.52 135.1 292.08 130.94C292.32 130.65 292.54 127.16 293.01 122.92C293.3 120.35 293.69 117.49 294.23 114.91L277.22 115.44C277.22 115.44 277.67 121.18 276.7 125.67C276.61 126.04 276.5 126.39 276.37 126.71C276.35 126.76 276.33 126.81 276.31 126.88C275.56 128.82 273.31 137.06 277.97 138.38V138.39Z" fill="#F9ACB6"/>
<path d="M276.32 126.89C276.81 127.07 277.36 127.22 277.96 127.33C286.98 129.02 291.75 118.66 293.16 114.96L277.23 115.46C277.23 115.46 277.68 121.2 276.71 125.69C276.62 126.06 276.52 126.4 276.37 126.72C276.36 126.77 276.33 126.83 276.32 126.89Z" fill="#1B224C"/>
<path d="M301.839 99.08C301.429 105.18 292.549 119.89 287.329 121.93C279.749 124.9 270.339 121.88 268.569 113.46C266.859 105.29 278.769 86.34 284.329 84.78C292.519 82.49 302.439 90.06 301.849 99.08H301.839Z" fill="#F9ACB6"/>
<path d="M282.42 102.41C282.42 102.41 282.47 102.5 282.44 102.54C281.82 103.51 281.26 104.74 281.97 105.6C281.99 105.63 281.96 105.68 281.93 105.65C280.93 104.84 281.67 103.23 282.42 102.4V102.41Z" fill="#1B224C"/>
<path d="M283.93 101.9C285.6 102.73 283.81 106.01 282.26 105.24C280.74 104.48 282.53 101.2 283.93 101.9Z" fill="#1B224C"/>
<path d="M276.45 99.3699C276.45 99.3699 276.34 99.3699 276.32 99.4199C275.8 100.45 275.03 101.55 273.92 101.38C273.89 101.38 273.86 101.43 273.9 101.44C275.11 101.89 276.12 100.43 276.45 99.3699Z" fill="#1B224C"/>
<path d="M276.129 97.8099C274.559 96.7899 272.649 99.9999 274.099 100.94C275.529 101.87 277.439 98.6599 276.129 97.8099Z" fill="#1B224C"/>
<path d="M286.039 101.11C285.649 100.75 285.359 100.36 285.009 99.97C284.619 99.53 284.269 99.22 284.189 98.61C284.149 98.28 284.449 97.9 284.759 97.83C285.489 97.66 286.099 98.09 286.589 98.6C287.119 99.16 287.389 99.72 287.449 100.49C287.509 101.23 286.549 101.59 286.039 101.12V101.11Z" fill="#1B224C"/>
<path d="M275.759 95.4699C276.249 95.6399 276.739 95.7199 277.249 95.8399C277.819 95.9799 278.259 96.1399 278.839 95.9299C279.149 95.8199 279.339 95.3699 279.259 95.0599C279.069 94.3399 278.409 94 277.719 93.8C276.979 93.59 276.359 93.6199 275.649 93.9199C274.969 94.2199 275.099 95.2299 275.759 95.4599V95.4699Z" fill="#1B224C"/>
<path d="M278.219 112.35C277.849 112.45 277.429 112.65 277.039 112.48C276.669 112.32 276.339 111.93 276.089 111.63C276.059 111.6 276.009 111.62 276.019 111.66C276.069 112.19 276.489 112.74 277.009 112.92C277.509 113.09 277.959 112.82 278.299 112.46C278.349 112.41 278.279 112.35 278.229 112.36L278.219 112.35Z" fill="#1B224C"/>
<path d="M278.809 108.72C277.759 109.29 276.659 109.32 275.659 109C275.209 108.86 274.779 108.64 274.379 108.38C274.299 108.33 274.219 108.28 274.159 108.22C274.089 108.17 274.029 108.13 273.959 108.06C273.849 107.98 273.839 107.84 273.879 107.72C273.879 107.72 273.919 107.65 273.949 107.61L273.999 107.51C274.409 106.72 275.129 105.57 275.129 105.57C274.769 105.56 272.949 105.42 273.199 105.02C275.249 101.75 277.519 98.11 280.249 95.29C280.329 95.19 280.489 95.31 280.419 95.42C278.579 98.64 276.179 101.52 274.279 104.73C274.839 104.81 275.779 104.89 276.179 105.13C276.269 105.22 274.739 107.32 274.589 107.69C274.589 107.69 274.589 107.7 274.579 107.73C275.799 108.61 277.009 108.76 278.769 108.57C278.879 108.55 278.919 108.67 278.819 108.71L278.809 108.72Z" fill="#1B224C"/>
<path d="M274.889 108.27C274.889 108.27 275.119 109.58 275.919 110.41C276.209 110.72 276.569 110.96 277.029 111.05C277.969 111.25 278.369 110.5 278.539 109.77C278.679 109.17 278.669 108.59 278.669 108.59C278.669 108.59 276.889 109.12 274.899 108.27H274.889Z" fill="#1B224C"/>
<path d="M275.918 110.41C276.208 110.72 276.568 110.96 277.028 111.05C277.968 111.25 278.368 110.5 278.538 109.77C277.608 109.42 276.428 109.58 275.918 110.4V110.41Z" fill="#FF9ABB"/>
<path opacity="0.3" d="M268.559 113.46C270.329 121.88 279.749 124.9 287.329 121.93C289.439 121.1 292.169 118.19 294.679 114.62L293.679 107.06C293.679 107.06 290.049 111.13 287.419 111.52C283.809 112.06 278.149 110.2 277.659 106.34L275.879 105.42C275.879 105.42 271.069 106.09 270.779 102.44C268.979 106.63 267.969 110.67 268.559 113.46Z" fill="#1B224C"/>
<path d="M295.75 112.4C293.23 111.9 292.95 109.39 293.08 107.73C293.21 106.07 297.92 97.92 297.89 95.32C297.86 92.72 296.14 90.41 294.05 90.03C291.96 89.65 288.41 90.85 287.13 90.05C285.85 89.25 286.99 86.19 286.06 85.72C284.01 84.68 279.28 88.66 277.77 90.72C277.77 90.72 282.58 81.05 292.86 85.13C302.89 89.11 302.65 97.26 302.03 100.58C300.84 106.93 295.74 112.4 295.74 112.4H295.75Z" fill="#1B224C"/>
<path d="M279.81 108.91C277.53 107.17 277.09 103.91 278.82 101.63C280.56 99.3499 283.82 98.9099 286.1 100.64C288.38 102.38 288.82 105.64 287.09 107.92C285.62 109.85 283.06 110.46 280.92 109.56C280.53 109.39 280.16 109.18 279.8 108.91H279.81ZM279.37 102.04C277.87 104.02 278.25 106.85 280.23 108.35C282.2 109.86 285.04 109.47 286.54 107.49C288.04 105.51 287.66 102.68 285.68 101.18C285.38 100.95 285.05 100.76 284.71 100.62C282.86 99.8299 280.64 100.37 279.37 102.04Z" fill="#0C96D8"/>
<path d="M270.289 103.44C268.439 102.38 268.089 99.4999 269.499 97.0099C270.179 95.8199 271.159 94.8899 272.249 94.3999C273.389 93.8899 274.509 93.8899 275.429 94.4099C276.349 94.9299 276.929 95.8999 277.059 97.1399C277.189 98.3399 276.889 99.6499 276.209 100.84C274.869 103.2 272.409 104.37 270.579 103.59C270.479 103.55 270.369 103.5 270.269 103.44H270.289ZM272.539 95.0299C271.569 95.4699 270.709 96.2899 270.099 97.3499C268.869 99.5099 269.109 101.97 270.629 102.83C272.159 103.7 274.389 102.65 275.619 100.49C276.229 99.4299 276.489 98.2599 276.379 97.2099C276.269 96.1999 275.809 95.4099 275.089 95.0099C275.009 94.9699 274.929 94.9299 274.849 94.8899C274.169 94.5999 273.359 94.6499 272.539 95.0199V95.0299Z" fill="#0C96D8"/>
<path d="M278.669 102.23L279.319 101.99C278.959 101.02 277.819 99.3499 276.039 99.8999L276.249 100.56C277.839 100.06 278.629 102.14 278.669 102.23Z" fill="#0C96D8"/>
<path d="M296.279 114.06L296.969 114.09C296.979 113.77 297.059 110.9 295.839 109.91C294.689 108.99 288.019 105.95 287.649 105.78L287.359 106.41C289.809 107.51 294.509 109.73 295.389 110.45C296.199 111.1 296.289 113.28 296.259 114.06H296.279Z" fill="#0C96D8"/>
<path d="M292.81 109.98C292.81 109.98 298.39 106.34 300.19 108.53C301.98 110.72 296.36 117 293.25 116.91C290.15 116.83 290.16 113.95 290.16 113.95L292.81 109.98Z" fill="#F9ACB6"/>
<path d="M298.529 110.29C298.529 110.29 298.559 110.37 298.519 110.37C296.319 110.37 294.609 111.73 293.179 113.27C294.029 112.8 294.949 112.72 295.619 113.77C295.649 113.83 295.579 113.88 295.529 113.85C294.819 113.37 294.209 113.28 293.429 113.69C292.879 113.98 292.399 114.43 291.929 114.84C291.769 114.97 291.499 114.76 291.649 114.59C291.659 114.58 291.669 114.56 291.679 114.55C292.599 112.12 295.839 109.49 298.529 110.29Z" fill="#1B224C"/>
<path d="M289.119 84.4899C291.119 84.3799 293.469 84.3699 295.969 84.9699C298.469 85.5699 305.769 88.9699 307.009 91.1599C308.249 93.3399 306.059 100.61 305.719 101.67C305.379 102.73 302.559 108.82 299.729 109.48C296.899 110.14 300.669 99.4099 298.419 94.5399C296.159 89.6599 289.129 84.5099 289.129 84.5099L289.119 84.4899Z" fill="#6977CF"/>
<path opacity="0.1" d="M289.119 84.49C289.119 84.49 296.149 89.65 298.409 94.52C300.669 99.39 296.889 110.12 299.729 109.47C300.979 109.18 301.839 108.37 302.869 106.86C303.559 103.57 304.119 98.27 302.779 93.95C301.529 89.91 297.939 86.75 293.659 84.57C292.029 84.38 290.499 84.41 289.119 84.49Z" fill="#1B224C"/>
<path d="M296.729 115.55C297.589 112.64 297.559 103.96 296.169 98.47C294.779 92.98 286.839 87.1 285.569 86.7C282.489 85.74 281.279 86.94 280.899 86.49C280.519 86.04 284.829 83.74 285.869 83.55C286.909 83.36 289.139 83.55 290.439 84.07C291.739 84.59 299.529 88.44 301.179 92.99C302.829 97.55 303.359 108.78 301.659 110.97C301.249 111.5 300.319 111.58 299.749 112.33C298.999 113.31 298.289 114.5 297.669 115.15C297.169 115.67 296.659 115.79 296.729 115.54V115.55Z" fill="#6977CF"/>
<path d="M296.197 96.2599C297.057 96.0899 297.877 95.8699 298.697 95.5599C299.507 95.2499 300.337 94.8899 301.047 94.3999C301.097 94.3599 301.167 94.4299 301.117 94.4799C300.417 95.0699 299.687 95.5699 298.837 95.9199C298.017 96.2499 297.097 96.4399 296.207 96.4399C296.107 96.4399 296.107 96.2899 296.197 96.2699V96.2599Z" fill="#1B224C"/>
<path d="M297.818 112.73C297.978 112.55 298.178 112.42 298.348 112.26C298.548 112.08 298.718 111.88 298.878 111.66C299.168 111.24 299.338 110.76 299.718 110.4C300.018 110.12 300.378 109.91 300.738 109.71C301.148 109.48 301.558 109.22 301.728 108.77C301.748 108.71 301.848 108.74 301.828 108.8C301.508 109.66 300.698 110.06 300.048 110.64C299.638 111.01 299.448 111.54 299.108 111.97C298.818 112.33 298.388 112.78 297.918 112.87C297.848 112.88 297.768 112.79 297.828 112.73H297.818Z" fill="#1B224C"/>
<path d="M297.987 109.3C298.377 109.08 298.777 108.9 299.147 108.64C299.497 108.39 299.838 108.1 300.158 107.81C300.468 107.52 300.758 107.2 301.068 106.9C301.428 106.55 301.838 106.23 302.188 105.86C302.228 105.81 302.298 105.89 302.258 105.94C301.898 106.32 301.608 106.77 301.258 107.17C300.958 107.51 300.627 107.83 300.277 108.13C299.947 108.42 299.598 108.68 299.228 108.9C298.868 109.11 298.428 109.32 298.008 109.37C297.978 109.37 297.957 109.33 297.987 109.32V109.3Z" fill="#1B224C"/>
<path d="M297.998 106.14C298.768 105.86 299.538 105.47 300.198 104.98C300.848 104.5 301.478 103.97 302.098 103.44C302.138 103.4 302.208 103.46 302.168 103.51C301.618 104.16 301.078 104.8 300.378 105.3C300.048 105.54 299.698 105.77 299.318 105.92C298.908 106.09 298.468 106.18 298.028 106.24C297.968 106.24 297.938 106.16 297.998 106.14Z" fill="#1B224C"/>
<path d="M297.878 103.06C298.268 102.99 298.588 102.79 298.918 102.58C299.278 102.35 299.648 102.12 299.998 101.87C300.338 101.63 300.678 101.41 301.018 101.17C301.358 100.93 301.698 100.68 301.918 100.32C301.948 100.27 302.028 100.32 302.008 100.37C301.838 100.76 301.568 101.07 301.268 101.36C300.938 101.68 300.588 101.97 300.208 102.23C299.838 102.48 299.448 102.72 299.048 102.92C298.698 103.1 298.298 103.26 297.898 103.2C297.818 103.19 297.808 103.08 297.898 103.06H297.878Z" fill="#1B224C"/>
<path d="M298.327 99.3899C298.687 99.2299 299.047 99.0699 299.387 98.8799C299.727 98.6899 300.067 98.4899 300.397 98.2799C300.747 98.0599 301.097 97.8499 301.437 97.6099C301.487 97.5699 301.547 97.6399 301.507 97.6899C301.217 97.9899 300.927 98.2699 300.597 98.5299C300.267 98.7799 299.927 98.9899 299.567 99.1899C299.217 99.3799 298.857 99.5699 298.477 99.7099C298.117 99.8499 297.707 100.02 297.317 100.01C297.257 100.01 297.227 99.9199 297.277 99.8899C297.587 99.6699 297.977 99.5499 298.327 99.3999V99.3899Z" fill="#1B224C"/>
<path d="M294.637 93.8299C295.047 93.5899 295.447 93.3499 295.877 93.1399C296.317 92.9299 296.767 92.7599 297.227 92.5999C298.127 92.2899 299.037 92.0499 299.987 91.9399C300.037 91.9399 300.077 92.0099 300.017 92.0399C298.247 92.6799 296.437 93.2599 294.677 93.9199C294.617 93.9399 294.577 93.8599 294.637 93.8299Z" fill="#1B224C"/>
<path d="M293.828 90.7599C294.238 90.5299 294.678 90.3399 295.138 90.2099C296.098 89.9299 297.088 89.8299 298.078 89.7699C298.138 89.7699 298.158 89.8499 298.098 89.8699C297.178 90.0799 296.258 90.2799 295.348 90.5499C294.898 90.6799 294.448 90.8199 294.018 90.9999C293.588 91.1799 293.208 91.4499 292.788 91.6499C292.758 91.6699 292.718 91.6299 292.738 91.5899C293.008 91.2399 293.448 90.9799 293.828 90.7699V90.7599Z" fill="#1B224C"/>
<path d="M291.889 88.7599C292.279 88.5199 292.689 88.3299 293.119 88.1799C293.939 87.8899 294.779 87.7499 295.649 87.7399C295.709 87.7399 295.709 87.8299 295.649 87.8399C294.809 87.9999 293.969 88.2299 293.159 88.5199C292.759 88.6699 292.359 88.8399 291.959 89.0099C291.559 89.1699 291.179 89.4299 290.769 89.5499C290.739 89.5499 290.719 89.5099 290.739 89.4899C291.059 89.1899 291.499 88.9799 291.869 88.7499L291.889 88.7599Z" fill="#1B224C"/>
<path d="M290.708 86.6999C291.098 86.5699 291.488 86.4599 291.888 86.3499C292.278 86.2399 292.678 86.1499 293.078 86.1699C293.138 86.1699 293.138 86.2499 293.078 86.2699C292.328 86.5099 291.578 86.7699 290.828 87.0299C290.118 87.2699 289.548 87.7199 288.918 88.0899C288.888 88.1099 288.858 88.0699 288.878 88.0399C289.358 87.4199 289.958 86.9399 290.708 86.6899V86.6999Z" fill="#1B224C"/>
<path d="M288.747 85.44C289.487 85.11 290.277 85.01 291.087 84.97C291.147 84.97 291.147 85.06 291.087 85.07C290.327 85.14 289.577 85.42 288.877 85.72C288.167 86.02 287.517 86.44 286.887 86.89C286.857 86.91 286.807 86.88 286.837 86.84C287.337 86.22 288.027 85.76 288.747 85.43V85.44Z" fill="#1B224C"/>
<path d="M285.488 85.6699C285.608 85.5499 285.758 85.4399 285.898 85.3299C286.178 85.1199 286.498 84.9499 286.818 84.7999C287.478 84.4899 288.188 84.3299 288.888 84.1699C288.948 84.1599 288.968 84.2599 288.908 84.2699C288.218 84.4199 287.558 84.6699 286.928 84.9799C286.618 85.1299 286.318 85.3099 286.038 85.5099C285.898 85.6099 285.768 85.7099 285.638 85.8199C285.518 85.9199 285.388 86.0599 285.248 86.1299C285.208 86.1499 285.158 86.1099 285.178 86.0699C285.238 85.9299 285.378 85.7999 285.488 85.6899V85.6699Z" fill="#1B224C"/>
<path d="M283.718 85.1799C283.968 85.0199 284.218 84.8699 284.478 84.7399C284.738 84.6099 285.008 84.4899 285.278 84.3899C285.558 84.2899 285.848 84.1999 286.128 84.0899C286.198 84.0599 286.228 84.1599 286.158 84.1799C285.868 84.2699 285.598 84.4099 285.338 84.5499C285.088 84.6799 284.838 84.8099 284.578 84.9399C284.328 85.0699 284.078 85.1999 283.828 85.3399C283.578 85.4699 283.328 85.6499 283.068 85.7599C283.028 85.7799 282.998 85.7299 283.028 85.6899C283.218 85.4799 283.488 85.3299 283.728 85.1799H283.718Z" fill="#1B224C"/>
<path d="M313.52 215.13C313.27 215.13 246.47 208.51 245.85 207.72C245.68 207.5 243.03 202.38 244.02 198.02C247.95 180.68 262.99 140.09 273.33 128.12C276.57 124.38 288.44 122.37 292.96 126.21C305.76 137.1 314.99 184.79 317.35 204.89C317.9 209.61 314.36 215.13 313.52 215.13Z" fill="#0C96D8"/>
<path d="M275.079 141.76C264.069 159.68 246.88 182.94 235 183.9C226.61 184.58 189.65 165.83 183.16 159.52C180 156.44 199.599 130.21 203.759 132.44C209.309 135.42 231.53 151.78 234.36 151.16C238.7 150.22 251.869 140.39 265.869 131.67C283.45 120.72 280.019 133.72 275.079 141.76Z" fill="#F9ACB6"/>
<path d="M175.71 121.62C175 124.01 177.57 126.67 177.57 126.67C177.57 126.67 174.92 127.11 173.39 129.2C171.64 131.59 174.61 135.38 174.61 135.38C174.61 135.38 172.02 136.39 170.62 138.75C169.17 141.2 171.63 145.46 171.63 145.46C171.63 145.46 169.79 147.72 169.99 150.63C170.57 158.9 190.47 167.07 196.63 168.2L215.76 142.82C215.76 142.82 203.47 125.27 195.52 121.65C191.11 119.65 176.87 117.69 175.71 121.62Z" fill="#F9ACB6"/>
<path d="M177.679 126.6C182.949 127.14 188.079 128.95 193.019 130.74C193.129 130.78 193.069 130.94 192.959 130.91C187.949 129.41 182.579 128.49 177.629 126.85C177.489 126.8 177.539 126.59 177.689 126.6H177.679Z" fill="#1B224C"/>
<path d="M174.75 135.25C175.94 135.41 177.07 135.96 178.17 136.42C179.35 136.92 180.52 137.44 181.68 137.97C184.01 139.04 186.31 140.17 188.58 141.36C188.68 141.41 188.62 141.58 188.52 141.53C186.2 140.46 183.86 139.43 181.49 138.47C180.31 137.99 179.12 137.51 177.93 137.05C176.82 136.62 175.62 136.25 174.63 135.58C174.48 135.48 174.57 135.23 174.75 135.25Z" fill="#1B224C"/>
<path d="M171.73 145.5C172.77 145.6 173.83 146.27 174.75 146.72C175.8 147.23 176.85 147.74 177.91 148.23C180.02 149.23 182.13 150.22 184.28 151.15C184.39 151.2 184.32 151.37 184.22 151.32C182.04 150.39 179.84 149.49 177.66 148.55C176.59 148.08 175.52 147.61 174.46 147.14C173.56 146.73 172.38 146.33 171.68 145.61C171.64 145.57 171.68 145.5 171.73 145.51V145.5Z" fill="#1B224C"/>
<path d="M218.719 141.24C218.719 141.24 221.569 139.72 225.229 142.37C228.889 145.03 232.929 150.46 233.929 150.52C234.929 150.58 253.489 138.07 266.299 130.91C279.109 123.75 282.759 127.41 277.159 138.88C271.559 150.35 245.679 184.6 236.479 185.44C227.279 186.27 212.429 181.7 209.349 180.29C206.269 178.88 204.109 172.89 204.109 172.89L199.619 170.73L215.079 138.66L218.709 141.25L218.719 141.24Z" fill="#0C96D8"/>
<path d="M207.121 171.45C207.711 169.22 211.651 160.55 212.651 158.4C213.631 156.29 217.981 147.77 219.011 145.56C219.071 145.44 219.251 145.49 219.201 145.61C218.211 147.81 214.551 156.64 213.561 158.8C212.571 160.96 208.541 169.56 207.221 171.49C207.171 171.56 207.091 171.51 207.111 171.44L207.121 171.45Z" fill="#1B224C"/>
<path d="M251.391 173.94C258.851 164.19 267.001 154.24 274.121 144.25C268.021 155.16 260.011 164.93 251.391 173.94Z" fill="#1B224C"/>
<path d="M273.952 146.99C273.112 148.39 271.771 149.45 270.271 150.06C271.391 148.87 272.612 147.92 273.952 146.99Z" fill="#1B224C"/>
<path d="M279.36 123.96C280.87 123.07 290.84 121.64 297.7 122.26C303.01 122.74 311.26 129.24 312.44 132.45C313.94 136.55 315.95 154.67 302.73 156.11C291.66 157.31 279.91 127.05 276.26 126.75C275.25 126.67 277.2 125.23 279.37 123.96H279.36Z" fill="#00679A"/>
<path d="M365.89 62.82C365.89 78.19 353.43 90.65 338.06 90.65C331.85 90.65 326.12 88.61 321.48 85.16L307.85 88.64L313.53 75.94C311.42 72.03 310.24 67.55 310.24 62.81C310.24 47.44 322.7 34.98 338.07 34.98C353.44 34.98 365.9 47.44 365.9 62.81L365.89 62.82Z" fill="white"/>
<path d="M365.89 62.82C365.74 86.31 339 98.72 321.56 85.51L307.95 89.07L307.07 89.3L307.44 88.47L313.08 75.76L313.1 76.18C306.71 64.8 309.81 49.43 319.91 41.26C338.2 26.18 365.83 39.13 365.9 62.83L365.89 62.82ZM365.89 62.82C365.98 45.03 348.57 31.43 331.36 36.12C314.19 40.4 305.46 60.47 314.05 75.94L313.95 76.15L308.24 88.83L307.73 88.23L321.39 84.83C339.98 98.29 365.46 86.02 365.89 62.83V62.82Z" fill="#1B224C"/>
<path d="M328.07 70.15V47.8C328.07 46.14 329.45 44.76 331.12 44.76C332.79 44.76 334.11 46.14 334.11 47.8V70.15C334.11 71.87 332.78 73.19 331.12 73.19C329.46 73.19 328.07 71.86 328.07 70.15ZM331.12 83.48C329.46 83.48 328.07 82.15 328.07 80.44V79.33C328.07 77.67 329.45 76.29 331.12 76.29C332.79 76.29 334.11 77.67 334.11 79.33V80.44C334.11 82.16 332.78 83.48 331.12 83.48Z" fill="#F3223C"/>
<path d="M340.439 66.24L343.409 44.08C343.629 42.43 345.189 41.25 346.829 41.47C348.469 41.69 349.609 43.24 349.389 44.88L346.419 67.04C346.189 68.74 344.699 69.88 343.059 69.66C341.409 69.44 340.219 67.94 340.449 66.24H340.439ZM341.679 79.86C340.029 79.64 338.839 78.14 339.069 76.44L339.219 75.34C339.439 73.69 340.999 72.51 342.639 72.73C344.279 72.95 345.419 74.5 345.199 76.14L345.049 77.24C344.819 78.94 343.329 80.08 341.679 79.86Z" fill="#F3223C"/>
</g>
<defs>
<clipPath id="clip0_738_421838">
<rect width="402.62" height="454.12" fill="white"/>
</clipPath>
</defs>
</svg>
