<svg xmlns="http://www.w3.org/2000/svg" width="19" height="18" viewBox="0 0 19 18" fill="none">
  <path fill-rule="evenodd" clip-rule="evenodd" d="M0 3.29268C0 1.47418 1.47418 0 3.29268 0H15.5854C17.4039 0 18.878 1.47418 18.878 3.29268C18.878 4.36979 18.3609 5.32609 17.5613 5.92683C18.3609 6.52756 18.878 7.48387 18.878 8.56098C18.878 10.3795 17.4039 11.8537 15.5854 11.8537H10.0976V13.2616C10.9017 13.489 11.5354 14.1227 11.7628 14.9268H18.2195C18.5832 14.9268 18.878 15.2217 18.878 15.5854C18.878 15.9491 18.5832 16.2439 18.2195 16.2439H11.7628C11.4761 17.2574 10.5443 18 9.43902 18C8.33374 18 7.40193 17.2574 7.11529 16.2439H0.658537C0.29484 16.2439 0 15.9491 0 15.5854C0 15.2217 0.29484 14.9268 0.658537 14.9268H7.11529C7.34273 14.1227 7.97637 13.489 8.78049 13.2616V11.8537H3.29268C1.47418 11.8537 0 10.3795 0 8.56098C0 7.48387 0.517179 6.52756 1.31675 5.92683C0.517179 5.32609 0 4.36979 0 3.29268ZM3.29268 5.26829C2.20158 5.26829 1.31707 4.38378 1.31707 3.29268C1.31707 2.20158 2.20158 1.31707 3.29268 1.31707H15.5854C16.6764 1.31707 17.561 2.20158 17.561 3.29268C17.561 4.38378 16.6764 5.26829 15.5854 5.26829H3.29268ZM15.5854 6.58537H3.29268C2.20158 6.58537 1.31707 7.46988 1.31707 8.56098C1.31707 9.65204 2.20158 10.5366 3.29268 10.5366H15.5854C16.6764 10.5366 17.561 9.65204 17.561 8.56098C17.561 7.46988 16.6764 6.58537 15.5854 6.58537ZM9.65854 3.29268C9.65854 2.92899 9.95338 2.63415 10.3171 2.63415H15.5854C15.9491 2.63415 16.2439 2.92899 16.2439 3.29268C16.2439 3.65638 15.9491 3.95122 15.5854 3.95122H10.3171C9.95338 3.95122 9.65854 3.65638 9.65854 3.29268ZM9.65854 8.56098C9.65854 8.19729 9.95338 7.90244 10.3171 7.90244H15.5854C15.9491 7.90244 16.2439 8.19729 16.2439 8.56098C16.2439 8.92466 15.9491 9.21951 15.5854 9.21951H10.3171C9.95338 9.21951 9.65854 8.92466 9.65854 8.56098ZM9.43902 14.4878C8.83282 14.4878 8.34146 14.9792 8.34146 15.5854C8.34146 16.1916 8.83282 16.6829 9.43902 16.6829C10.0452 16.6829 10.5366 16.1916 10.5366 15.5854C10.5366 14.9792 10.0452 14.4878 9.43902 14.4878Z" fill="#0067B3"/>
  <path d="M5.04907 3.2926C5.04907 3.77753 4.65595 4.17065 4.17102 4.17065C3.68609 4.17065 3.29297 3.77753 3.29297 3.2926C3.29297 2.80767 3.68609 2.41455 4.17102 2.41455C4.65595 2.41455 5.04907 2.80767 5.04907 3.2926Z" fill="#0067B3"/>
  <path d="M5.04907 8.56091C5.04907 9.04586 4.65595 9.43896 4.17102 9.43896C3.68609 9.43896 3.29297 9.04586 3.29297 8.56091C3.29297 8.07596 3.68609 7.68286 4.17102 7.68286C4.65595 7.68286 5.04907 8.07596 5.04907 8.56091Z" fill="#0067B3"/>
</svg>