<svg xmlns="http://www.w3.org/2000/svg" width="20" height="20" viewBox="0 0 20 20" fill="none">
  <path d="M6.36779 9.36892L2.71808 11.2476C2.2685 11.479 1.98594 11.9423 1.98594 12.4479V13.15C1.98594 13.8956 2.59036 14.5 3.336 14.5C3.58453 14.5 3.786 14.7015 3.786 14.95C3.786 15.1985 3.58453 15.4 3.336 15.4C2.09331 15.4 1.08594 14.3927 1.08594 13.15V12.4479C1.08594 11.6052 1.55687 10.8331 2.30617 10.4474L5.32814 8.89184C4.36362 8.05086 3.78594 6.82508 3.78594 5.5C3.78594 3.01472 5.80066 1 8.28594 1C9.79487 1 11.1778 1.74875 12.0101 2.97329C12.1498 3.17884 12.0964 3.45872 11.8909 3.59842C11.6853 3.73812 11.4054 3.68474 11.2657 3.4792C10.5993 2.49863 9.49361 1.9 8.28594 1.9C6.29771 1.9 4.68594 3.51178 4.68594 5.5C4.68594 6.77054 5.34906 7.92611 6.41418 8.57583C6.62635 8.70526 6.69343 8.98217 6.564 9.19434C6.51556 9.27376 6.44644 9.33286 6.36779 9.36892ZM10.0511 13.2102L6.3773 14.88C5.89536 15.0991 5.58594 15.5796 5.58594 16.109V16.75C5.58594 17.4956 6.19035 18.1 6.93594 18.1H16.8359C17.5815 18.1 18.1859 17.4956 18.1859 16.75V16.109C18.1859 15.5796 17.8765 15.0991 17.3946 14.88L13.7208 13.2102C13.1604 13.4607 12.5395 13.6 11.8859 13.6C11.2324 13.6 10.6114 13.4607 10.0511 13.2102ZM9.11588 12.6466C8.06282 11.823 7.38594 10.5405 7.38594 9.1C7.38594 6.61472 9.40066 4.6 11.8859 4.6C14.3712 4.6 16.3859 6.61472 16.3859 9.1C16.3859 10.5405 15.7091 11.823 14.656 12.6466L17.767 14.0607C18.5702 14.4258 19.0859 15.2267 19.0859 16.109V16.75C19.0859 17.9926 18.0786 19 16.8359 19H6.93594C5.6933 19 4.68594 17.9926 4.68594 16.75V16.109C4.68594 15.2267 5.20164 14.4258 6.00488 14.0607L9.11588 12.6466ZM11.8859 12.7C13.8742 12.7 15.4859 11.0882 15.4859 9.1C15.4859 7.11177 13.8742 5.5 11.8859 5.5C9.89771 5.5 8.28594 7.11177 8.28594 9.1C8.28594 11.0882 9.89771 12.7 11.8859 12.7Z" fill="#0067B3" stroke="#0067B3" stroke-width="0.4"/>
</svg>