<svg xmlns="http://www.w3.org/2000/svg" width="18" height="18" viewBox="0 0 18 18" fill="none">
  <path fillRule="evenodd" clipRule="evenodd" d="M9.20926 1.32632C8.82381 1.26082 8.29838 1.25585 7.35049 1.25585C5.74583 1.25585 4.60526 1.25718 3.74051 1.37291C2.89335 1.48629 2.40657 1.69897 2.05274 2.05279C1.69843 2.4071 1.48606 2.89239 1.37282 3.73469C1.25714 4.59506 1.25581 5.72919 1.25581 7.32563V10.6745C1.25581 12.2708 1.25714 13.4049 1.37282 14.2653C1.48606 15.1076 1.69843 15.5929 2.05274 15.9472C2.40706 16.3016 2.89234 16.5139 3.73465 16.6272C4.59501 16.7429 5.72915 16.7442 7.32555 16.7442H10.6744C12.2708 16.7442 13.4049 16.7429 14.2653 16.6272C15.1075 16.5139 15.5929 16.3016 15.9472 15.9472C16.3015 15.5929 16.5139 15.1076 16.6271 14.2653C16.7428 13.4049 16.7441 12.2708 16.7441 10.6745V10.3084C16.7441 9.02248 16.7351 8.41291 16.5986 7.95354H13.9782C13.0298 7.95354 12.2548 7.95354 11.6429 7.87124C11.0033 7.78526 10.4488 7.59915 10.0062 7.15656C9.56356 6.71393 9.37745 6.15942 9.29147 5.51984C9.20926 4.90795 9.20926 4.13293 9.20926 3.18451V1.32632ZM10.4651 1.97539V3.13957C10.4651 4.14397 10.4664 4.83411 10.5361 5.3525C10.6034 5.85283 10.7238 6.09816 10.8942 6.26857C11.0646 6.43897 11.3099 6.55939 11.8103 6.62666C12.3287 6.69636 13.0188 6.69769 14.0232 6.69769H15.7139C15.4657 6.45695 15.1477 6.16851 14.7348 5.79687L11.4205 2.81399C11.0141 2.44827 10.7117 2.1783 10.4651 1.97539ZM7.47248 2.07921e-05C8.63167 -0.000288974 9.38055 -0.000481523 10.0698 0.264017C10.7591 0.528523 11.3133 1.02755 12.1707 1.79962C12.2003 1.82628 12.2302 1.85325 12.2606 1.88056L15.5749 4.86343C15.6102 4.89518 15.645 4.92654 15.6794 4.95751C16.6704 5.84884 17.3112 6.4252 17.6559 7.19915C18.0006 7.97304 18.0003 8.83495 17.9999 10.1678C17.9999 10.2141 17.9999 10.261 17.9999 10.3084V10.7217C17.9999 12.2602 17.9999 13.4789 17.8717 14.4327C17.7397 15.4142 17.4617 16.2086 16.8352 16.8352C16.2086 17.4618 15.4141 17.7398 14.4326 17.8717C13.4788 18 12.2602 18 10.7216 18H7.27832C5.73974 18 4.52107 18 3.56732 17.8717C2.58576 17.7398 1.79129 17.4618 1.16475 16.8352C0.538223 16.2086 0.26017 15.4142 0.12821 14.4327C-2.47885e-05 13.4789 -1.63647e-05 12.2602 3.79423e-07 10.7217V7.27836C-1.63647e-05 5.73977 -2.47885e-05 4.52111 0.12821 3.56736C0.26017 2.5858 0.538223 1.79134 1.16475 1.1648C1.79178 0.537783 2.58891 0.260032 3.57392 0.128205C4.53165 2.08213e-05 5.75637 2.90985e-05 7.30338 4.58426e-05H7.35049C7.3916 4.58426e-05 7.43229 3.75362e-05 7.47248 2.07921e-05Z" fill="black"/>
  <path fillRule="evenodd" clipRule="evenodd" d="M5.33398 10.8335C5.33398 10.0051 6.00557 9.3335 6.83398 9.3335C7.6624 9.3335 8.33398 10.0051 8.33398 10.8335C8.33398 11.6619 7.6624 12.3335 6.83398 12.3335C6.00557 12.3335 5.33398 11.6619 5.33398 10.8335Z" fill="#1ABCFE"/>
  <path fillRule="evenodd" clipRule="evenodd" d="M2.33398 13.8335C2.33398 13.0051 3.00556 12.3335 3.83398 12.3335H5.33398V13.8335C5.33398 14.6619 4.6624 15.3335 3.83398 15.3335C3.00556 15.3335 2.33398 14.6619 2.33398 13.8335Z" fill="#0ACF83"/>
  <path fillRule="evenodd" clipRule="evenodd" d="M5.33398 6.3335V9.3335H6.83398C7.6624 9.3335 8.33398 8.66191 8.33398 7.8335C8.33398 7.00507 7.6624 6.3335 6.83398 6.3335H5.33398Z" fill="#FF7262"/>
  <path fillRule="evenodd" clipRule="evenodd" d="M2.33398 7.8335C2.33398 8.66191 3.00556 9.3335 3.83398 9.3335H5.33398V6.3335H3.83398C3.00556 6.3335 2.33398 7.00507 2.33398 7.8335Z" fill="#F24E1E"/>
  <path fillRule="evenodd" clipRule="evenodd" d="M2.33398 10.8335C2.33398 11.6619 3.00556 12.3335 3.83398 12.3335H5.33398V9.3335H3.83398C3.00556 9.3335 2.33398 10.0051 2.33398 10.8335Z" fill="#A259FF"/>
</svg>