<svg xmlns="http://www.w3.org/2000/svg" width="12" height="18" viewBox="0 0 12 18" fill="none">
  <path fillRule="evenodd" clipRule="evenodd" d="M6 9C6 7.34317 7.34317 6 9 6C10.6568 6 12 7.34317 12 9C12 10.6568 10.6568 12 9 12C7.34317 12 6 10.6568 6 9Z" fill="#1ABCFE"/>
  <path fillRule="evenodd" clipRule="evenodd" d="M0 15C0 13.3432 1.34314 12 3 12H6V15C6 16.6568 4.65683 18 3 18C1.34314 18 0 16.6568 0 15Z" fill="#0ACF83"/>
  <path fillRule="evenodd" clipRule="evenodd" d="M6 0V6H9C10.6568 6 12 4.65683 12 3C12 1.34314 10.6568 0 9 0H6Z" fill="#FF7262"/>
  <path fillRule="evenodd" clipRule="evenodd" d="M0 3C0 4.65683 1.34314 6 3 6H6V0H3C1.34314 0 0 1.34314 0 3Z" fill="#F24E1E"/>
  <path fillRule="evenodd" clipRule="evenodd" d="M0 9C0 10.6568 1.34314 12 3 12H6V6H3C1.34314 6 0 7.34317 0 9Z" fill="#A259FF"/>
</svg>