<svg xmlns="http://www.w3.org/2000/svg" width="18" height="19" viewBox="0 0 18 19" fill="none">
  <path d="M12.3805 5.8999H9.98047" stroke="#0067B3" stroke-width="1.2" stroke-linecap="round"/>
  <path d="M3.18164 4.07387C3.18164 3.61495 3.18164 3.3855 3.22048 3.19436C3.39144 2.35296 4.10022 1.69482 5.00634 1.53606C5.21218 1.5 5.45928 1.5 5.9535 1.5C6.17004 1.5 6.27831 1.5 6.38236 1.50903C6.83097 1.54799 7.25652 1.71166 7.6034 1.97866C7.6838 2.0406 7.76036 2.11169 7.91348 2.25387L8.22164 2.54C8.67844 2.96421 8.90692 3.1763 9.18044 3.31762C9.33068 3.39525 9.49004 3.45655 9.6554 3.50032C9.95644 3.58 10.2795 3.58 10.9256 3.58H11.1348C12.6089 3.58 13.346 3.58 13.8251 3.98012C13.8692 4.01693 13.9111 4.05587 13.9508 4.09679C14.3816 4.54166 14.3816 5.22608 14.3816 6.59491V7.74C14.3816 9.70104 14.3816 10.6816 13.7256 11.2908C13.0695 11.9 12.0136 11.9 9.90164 11.9H7.66164C5.54975 11.9 4.4938 11.9 3.83772 11.2908C3.18164 10.6816 3.18164 9.70104 3.18164 7.74V4.07387Z" stroke="#0067B3" stroke-width="1.2"/>
  <path d="M16.7813 15.8999H10.3813M0.78125 15.8999H7.18125" stroke="#0067B3" stroke-width="1.2" stroke-linecap="round"/>
  <path d="M8.78125 14.2999V11.8999" stroke="#0067B3" stroke-width="1.2" stroke-linecap="round"/>
  <path d="M8.78164 17.5C9.6653 17.5 10.3816 16.7837 10.3816 15.9C10.3816 15.0164 9.6653 14.3 8.78164 14.3C7.89799 14.3 7.18164 15.0164 7.18164 15.9C7.18164 16.7837 7.89799 17.5 8.78164 17.5Z" stroke="#0067B3" stroke-width="1.2"/>
</svg>