<svg xmlns="http://www.w3.org/2000/svg" width="24" height="20" viewBox="0 0 24 20" fill="none">
  <path d="M20.5518 0.900391C21.9629 0.900391 23.0957 2.11856 23.0957 3.6084V5.66406L23.0977 5.67871C23.0986 5.68663 23.0996 5.69921 23.0996 5.71289C23.0996 5.72589 23.0986 5.73757 23.0977 5.74512C23.0966 5.75443 23.096 5.758 23.0957 5.76172V16.3916C23.0957 17.7874 22.1006 18.9465 20.8135 19.0859L20.5518 19.0996L3.44434 19.0986C2.03332 19.0986 0.900635 17.8812 0.900391 16.3916V3.6084C0.900391 2.11947 2.03315 0.900391 3.44434 0.900391H20.5518ZM2.07715 16.3916C2.07732 17.2559 2.70171 17.9395 3.44434 17.9395H20.5518C21.2944 17.9395 21.9188 17.2568 21.9189 16.3916V6.29199H2.07715V16.3916ZM12.7246 8.59277C12.875 8.37787 13.1572 8.28885 13.4111 8.38086H13.4199L13.4385 8.38867C13.7001 8.49735 13.8406 8.77196 13.7861 9.03711L13.751 9.14941L10.9766 15.5664C10.8806 15.7877 10.662 15.9188 10.4346 15.9189C10.3579 15.9189 10.2791 15.9048 10.2041 15.873V15.8721C9.90592 15.7476 9.76541 15.4077 9.89258 15.1123L12.667 8.69531L12.7246 8.59277ZM14.6133 9.2373C14.8401 9.086 15.1504 9.10733 15.3535 9.30273L17.8623 11.7158L17.9375 11.8047C18.0033 11.8998 18.04 12.0132 18.04 12.1309C18.04 12.2487 18.0035 12.3627 17.9375 12.458L17.8623 12.5469L15.3535 14.96L15.3525 14.959C15.2385 15.0686 15.0899 15.124 14.9424 15.124C14.79 15.124 14.6375 15.0654 14.5225 14.9502H14.5215C14.2944 14.7213 14.2982 14.3532 14.5312 14.1289L16.6074 12.1309L14.5312 10.1338C14.2985 9.90978 14.2932 9.54172 14.5215 9.3125L14.6133 9.2373ZM8.39648 9.22852C8.62602 9.08274 8.93556 9.11051 9.13477 9.31055L9.20996 9.40332C9.33749 9.59778 9.33466 9.85032 9.20312 10.042L9.12598 10.1328L7.04883 12.1299L9.12598 14.1279L9.20312 14.2188C9.35653 14.4425 9.33426 14.749 9.13574 14.9492H9.13477C9.01973 15.0644 8.86721 15.123 8.71484 15.123C8.60408 15.123 8.49256 15.0921 8.39551 15.0303L8.30371 14.959L5.79492 12.5459C5.6821 12.4374 5.61719 12.2869 5.61719 12.1299C5.6173 11.973 5.6822 11.8233 5.79492 11.7148L8.30371 9.30176L8.39648 9.22852ZM3.44434 2.05957C2.70157 2.05957 2.07715 2.74302 2.07715 3.6084V5.13281H21.9189V3.6084C21.9189 2.74391 21.2945 2.05957 20.5518 2.05957H3.44434ZM3.91309 2.88965C4.3033 2.88981 4.62376 3.20133 4.62402 3.58887C4.62402 3.97662 4.30346 4.2889 3.91309 4.28906C3.52258 4.28906 3.20215 3.97673 3.20215 3.58887C3.20241 3.20123 3.52274 2.88965 3.91309 2.88965ZM5.86816 2.88965C6.25844 2.88974 6.57884 3.20129 6.5791 3.58887C6.5791 3.97667 6.2586 4.28897 5.86816 4.28906C5.47766 4.28906 5.15723 3.97673 5.15723 3.58887C5.15749 3.20123 5.47782 2.88965 5.86816 2.88965ZM7.82324 2.88965C8.21358 2.88966 8.53392 3.20124 8.53418 3.58887C8.53418 3.97672 8.21374 4.28905 7.82324 4.28906C7.43273 4.28906 7.1123 3.97672 7.1123 3.58887C7.11257 3.20123 7.43289 2.88965 7.82324 2.88965Z" fill="#0067B3" stroke="#0067B3" stroke-width="0.2"/>
</svg>
