<svg xmlns="http://www.w3.org/2000/svg" width="18" height="18" viewBox="0 0 18 18" fill="none">
  <path fillRule="evenodd" clipRule="evenodd" d="M8.99999 0C13.9707 0 18 4.13093 18 9.22763C18 13.3037 15.4242 16.7615 11.8503 17.9828C11.394 18.0737 11.232 17.7856 11.232 17.5399C11.232 17.2357 11.2428 16.2421 11.2428 15.0073C11.2428 14.1469 10.9548 13.5854 10.6317 13.2992C12.636 13.0706 14.742 12.2902 14.742 8.74599C14.742 7.73799 14.3928 6.91543 13.815 6.26923C13.9086 6.03613 14.2173 5.09755 13.7268 3.82675C13.7268 3.82675 12.9726 3.5795 11.2545 4.77289C10.5354 4.56859 9.76499 4.4658 8.99999 4.4622C8.23499 4.4658 7.46549 4.56859 6.74729 4.77289C5.0274 3.5795 4.2714 3.82675 4.2714 3.82675C3.7827 5.09755 4.0914 6.03613 4.1841 6.26923C3.609 6.91543 3.2571 7.73799 3.2571 8.74599C3.2571 12.2812 5.3586 13.0735 7.35749 13.3066C7.10009 13.537 6.86699 13.9435 6.78599 14.5402C6.27299 14.776 4.96979 15.1841 4.16699 13.7738C4.16699 13.7738 3.6909 12.8871 2.7873 12.8223C2.7873 12.8223 1.9098 12.8107 2.7261 13.3831C2.7261 13.3831 3.3156 13.6666 3.7251 14.7331C3.7251 14.7331 4.2534 16.3801 6.75719 15.8221C6.76169 16.5934 6.76979 17.3203 6.76979 17.5399C6.76979 17.7838 6.60419 18.0692 6.15509 17.9837C2.57849 16.7642 0 13.3046 0 9.22763C0 4.13093 4.0302 0 8.99999 0Z" fill="black"/>
</svg>