<svg xmlns="http://www.w3.org/2000/svg" width="18" height="17" viewBox="0 0 18 17" fill="none">
  <path d="M9 0.400391C13.4735 0.400391 17.0996 4.02649 17.0996 8.5C17.0996 12.9735 13.4735 16.5996 9 16.5996C4.52649 16.5996 0.900391 12.9735 0.900391 8.5C0.900391 4.02649 4.52649 0.400391 9 0.400391ZM6.98926 11.7998C7.1969 12.9289 7.50061 13.876 7.85449 14.5439C8.03753 14.8893 8.23141 15.1559 8.42773 15.335C8.62407 15.514 8.81657 15.5996 9 15.5996C9.18343 15.5996 9.37593 15.514 9.57227 15.335C9.76859 15.1559 9.96247 14.8893 10.1455 14.5439C10.4994 13.876 10.8031 12.9289 11.0107 11.7998H6.98926ZM2.71484 11.7998C3.63086 13.5409 5.24718 14.8534 7.19043 15.3643C6.63958 14.5111 6.21935 13.2671 5.96777 11.7998H2.71484ZM12.0322 11.7998C11.7806 13.2674 11.3596 14.5111 10.8086 15.3643C12.7523 14.8535 14.369 13.5412 15.2852 11.7998H12.0322ZM12.1738 6.2002C12.2559 6.92964 12.2998 7.70162 12.2998 8.5C12.2998 9.29838 12.2559 10.0704 12.1738 10.7998H15.7178C15.9646 10.0785 16.0996 9.30525 16.0996 8.5C16.0996 7.69475 15.9646 6.92147 15.7178 6.2002H12.1738ZM6.83691 6.2002C6.74953 6.92126 6.7002 7.69456 6.7002 8.5C6.7002 9.30544 6.74953 10.0787 6.83691 10.7998H11.1631C11.2505 10.0787 11.2998 9.30544 11.2998 8.5C11.2998 7.69456 11.2505 6.92126 11.1631 6.2002H6.83691ZM2.28223 6.2002C2.03536 6.92147 1.90039 7.69475 1.90039 8.5C1.90039 9.30525 2.03536 10.0785 2.28223 10.7998H5.82617C5.74413 10.0704 5.7002 9.29838 5.7002 8.5C5.7002 7.70162 5.74413 6.92964 5.82617 6.2002H2.28223ZM10.8086 1.63477C11.3598 2.48796 11.7805 3.7322 12.0322 5.2002H15.2852C14.369 3.45876 12.7524 2.14544 10.8086 1.63477ZM9 1.40039C8.81657 1.40039 8.62407 1.48599 8.42773 1.66504C8.23141 1.84409 8.03753 2.11065 7.85449 2.45605C7.50061 3.12395 7.1969 4.07114 6.98926 5.2002H11.0107C10.8031 4.07114 10.4994 3.12395 10.1455 2.45605C9.96247 2.11065 9.76859 1.84409 9.57227 1.66504C9.37593 1.48599 9.18343 1.40039 9 1.40039ZM7.19043 1.63477C5.24707 2.14561 3.6309 3.45903 2.71484 5.2002H5.96777C6.21942 3.73246 6.63937 2.48795 7.19043 1.63477Z" fill="#0067B3" stroke="#0067B3" stroke-width="0.2"/>
</svg>