<svg xmlns="http://www.w3.org/2000/svg" width="19" height="18" viewBox="0 0 19 18" fill="none">
  <path d="M4.39315 18C3.8665 18 3.26462 17.7743 2.88845 17.3981L0.706627 15.2163C-0.120959 14.3887 -0.120959 13.0345 0.706627 12.2069L4.16744 8.74608C4.99503 7.9185 6.34926 7.9185 7.17685 8.74608L7.77873 9.34796L9.4339 7.69279L8.83202 7.09091C8.00443 6.26332 8.00443 4.90909 8.83202 4.0815L12.2928 0.62069C13.1204 -0.206897 14.4747 -0.206897 15.3022 0.62069L17.4841 2.80251C18.3116 3.63009 18.3116 4.98433 17.4841 5.81191L14.0232 9.27273C13.1957 10.1003 11.8414 10.1003 11.0138 9.27273L10.412 8.67085L8.75679 10.326L9.35867 10.9279C10.1863 11.7555 10.1863 13.1097 9.35867 13.9373L5.89785 17.3981C5.44644 17.7743 4.91979 18 4.39315 18ZM3.94174 16.3448C4.16744 16.5705 4.61885 16.5705 4.84456 16.3448L8.30537 12.884C8.45584 12.7335 8.45584 12.5831 8.45584 12.4326C8.45584 12.2821 8.38061 12.1317 8.30537 11.9812L7.70349 11.3793L5.82262 13.2602L4.76932 12.2069L6.6502 10.326L6.04832 9.72414C5.82262 9.49843 5.3712 9.49843 5.1455 9.72414L1.68468 13.185C1.45898 13.4107 1.45898 13.8621 1.68468 14.0878L3.94174 16.3448ZM11.4652 7.61756L12.0671 8.21944C12.2928 8.44514 12.7442 8.44514 12.97 8.21944L16.4308 4.75862C16.6565 4.53292 16.6565 4.0815 16.4308 3.8558L14.2489 1.67398C14.0232 1.44828 13.5718 1.44828 13.3461 1.67398L9.81008 5.05956C9.58437 5.28527 9.58437 5.73668 9.81008 5.96238L10.412 6.56426L12.2928 4.68339L13.3461 5.73668L11.4652 7.61756Z" fill="#0167B1"/>
</svg>