<svg xmlns="http://www.w3.org/2000/svg" width="18" height="18" viewBox="0 0 18 18" fill="none">
  <path fillRule="evenodd" clipRule="evenodd" d="M0.0394493 5.01334C0.0394493 4.09596 0.765048 3.3263 1.76695 3.32464C2.76896 3.32288 3.41622 3.3263 3.41622 3.3263C3.41622 3.3263 3.37317 2.34591 3.37317 1.56622C3.37317 0.786313 4.06414 0.00585577 5.06671 0.00585577C6.06928 0.00585577 15.3645 -0.0227846 16.3071 0.0466139C17.2498 0.116012 18 0.704577 18 1.65126C18 2.59794 17.994 11.9847 17.994 12.8542C17.994 13.7235 17.2084 14.5134 16.2343 14.5243C15.2603 14.5354 14.6001 14.5133 14.6001 14.5133C14.6001 14.5133 14.636 15.6116 14.636 16.2862C14.636 16.9607 13.8459 17.9403 12.9189 17.9403C11.9919 17.9403 2.5862 18 1.68872 18C0.791236 18 -0.0370057 17.2161 0.00127722 16.2389C0.0395601 15.2617 0.0394493 5.9305 0.0394493 5.01334ZM5.15049 1.87532L5.14294 12.6887C5.14294 12.8094 5.24215 12.9079 5.36476 12.9073L15.968 12.8511C16.027 12.8508 16.0834 12.8274 16.125 12.7859C16.1665 12.7443 16.1898 12.6882 16.1897 12.6297L16.1826 1.91332C16.1825 1.85466 16.159 1.79842 16.1172 1.75697C16.0754 1.71552 16.0187 1.69224 15.9596 1.69224L5.37353 1.65633C5.34436 1.65604 5.31543 1.66148 5.28839 1.67236C5.26136 1.68323 5.23677 1.69931 5.21603 1.71967C5.19529 1.74003 5.17882 1.76427 5.16757 1.79099C5.15632 1.8177 5.15052 1.84636 5.15049 1.87532ZM1.75474 5.46168L1.85639 16.0638C1.85712 16.1222 1.8811 16.1779 1.9231 16.2188C1.9651 16.2597 2.0217 16.2825 2.08054 16.2821L12.5251 16.2034C12.5833 16.203 12.6409 16.1913 12.6944 16.1688C12.748 16.1463 12.7966 16.1135 12.8374 16.0722C12.8782 16.031 12.9103 15.9822 12.932 15.9286C12.9537 15.875 12.9645 15.8176 12.9637 15.7599L12.9485 14.5331C12.9485 14.5331 5.97141 14.5967 5.06405 14.5967C4.15669 14.5967 3.35097 13.7441 3.35097 12.7846C3.35097 11.8252 3.41622 5.21691 3.41622 5.21691C3.41733 5.09574 3.31924 4.9977 3.19695 4.99935L2.19527 5.01367C2.07707 5.01527 1.96432 5.06332 1.88175 5.1473C1.79917 5.23128 1.7535 5.34433 1.75474 5.46168Z" fill="#0067B3"/>
</svg>