<svg width="535" height="465" viewBox="0 0 535 465" fill="none" xmlns="http://www.w3.org/2000/svg">
<g clip-path="url(#clip0_1071_215879)">
<path d="M525.167 187.515C524.497 181.075 519.304 175.789 512.863 174.952C510.034 174.58 507.354 175.082 505.008 176.18C505.027 175.734 505.083 175.287 505.083 174.84C505.083 159.15 492.351 146.42 476.66 146.42C470.647 146.42 465.063 148.3 460.466 151.501C455.757 132.2 437.683 118.148 416.593 119.73C396.509 121.238 380.148 137.263 378.193 157.308C377.579 163.543 378.379 169.517 380.241 174.989C379.645 174.915 379.068 174.859 378.454 174.859C375.68 174.859 373.112 175.659 370.915 177.036C370.915 176.776 370.953 176.534 370.953 176.273C370.953 161.347 358.854 149.249 343.926 149.249C328.997 149.249 316.898 161.347 316.898 176.273C316.898 177.725 317.047 179.158 317.271 180.554H271.891C265.618 180.554 260.518 185.654 260.518 191.926C260.518 198.198 265.618 203.298 271.891 203.298H515.916V202.404C521.798 200.245 525.856 194.327 525.13 187.552L525.167 187.515Z" fill="#DBE0FF"/>
<path d="M0 390.552C0 390.552 67.3257 262.837 147.532 264.177C262.881 266.113 334.972 376.519 334.972 376.519L0 390.552Z" fill="#ABB7FF"/>
<path d="M168.398 390.552C168.398 390.552 263.552 228.033 343.777 229.373C459.126 231.309 519.136 387.835 519.136 387.835L168.398 390.552Z" fill="#DBE0FF"/>
<path d="M534.548 411.975C534.548 440.227 408.18 440.06 265.524 459.305C42.6439 489.381 0 390.552 0 390.552C10.7215 363.77 146.843 328.537 279.466 328.537C412.088 328.537 534.548 383.722 534.548 411.975Z" fill="#1C4788"/>
<path d="M284.269 95.8699H240.341C241.532 91.2914 241.457 86.1917 238.684 80.7571C235.687 74.8571 230.271 70.3902 223.793 69.0316C219.754 68.1754 215.901 68.5104 212.42 69.6644C212.42 69.4224 212.42 69.1991 212.42 68.9571C212.42 47.5906 195.091 30.2629 173.722 30.2629C154.811 30.2629 139.082 43.831 135.713 61.7357C134.149 61.4379 132.549 61.2704 130.911 61.2704C117.36 61.2704 106.322 71.8606 105.559 85.2053H45.8834C38.5124 85.2053 32.0906 90.8819 31.8673 98.2523C31.6439 105.883 37.7492 112.118 45.325 112.118H284.269C288.755 112.118 292.403 108.47 292.403 103.985C292.403 99.4993 288.755 95.8513 284.269 95.8513V95.8699Z" fill="#DBE0FF"/>
<path d="M447.436 47.5908H421.302C422.009 44.8734 421.972 41.8397 420.315 38.6012C418.528 35.1022 415.308 32.4407 411.455 31.6217C409.054 31.1192 406.765 31.3053 404.698 31.994C404.698 31.8451 404.698 31.7148 404.698 31.5659C404.698 18.854 394.387 8.54297 381.673 8.54297C370.431 8.54297 361.068 16.6205 359.058 27.2666C358.127 27.0804 357.178 26.9874 356.191 26.9874C348.131 26.9874 341.561 33.2968 341.096 41.2255H305.581C301.188 41.2255 297.372 44.6129 297.242 48.9867C297.111 53.528 300.741 57.2503 305.246 57.2503H447.417C450.097 57.2503 452.256 55.0914 452.256 52.4112C452.256 49.7311 450.097 47.5721 447.417 47.5721L447.436 47.5908Z" fill="#DBE0FF"/>
<path d="M50.9277 361.499C73.1339 387.816 138.766 438.217 306.549 415.567C391.037 404.158 469.81 399.579 519.993 391.855C483.77 363.36 384.82 328.537 279.467 328.537C192.783 328.537 104.61 343.594 50.9277 361.499Z" fill="#1B224C"/>
<path d="M390.608 133.019C391.278 129.781 388.467 126.189 387.071 123.211C385.973 120.884 384.856 118.558 383.776 116.213C383.609 115.859 383.348 114.835 383.199 115.115C383.441 114.333 384.26 113.365 384.614 112.714C386.513 109.27 389.081 106.181 389.081 102.217V93.562C389.081 91.9055 389.547 89.4115 389.081 87.7923C388.542 85.9497 386.662 84.1816 385.526 82.6554C384.521 81.3153 383.516 79.9753 382.511 78.6352C381.934 77.8535 381.245 76.2715 381.04 76.9974C381.413 75.1362 384.093 72.1211 384.968 70.6507C386.308 68.4173 387.648 66.1839 388.988 63.9318C389.547 63.0012 388.262 62.4987 387.611 62.4987H287.73C287.842 62.3498 287.897 62.1823 287.897 61.9962V2.68001C288.698 1.73081 287.823 -0.260669 286.185 0.0371215C272.243 2.53112 259.623 9.30585 245.886 12.4699C245.235 12.6188 244.9 13.0282 244.769 13.5121C244.602 13.661 244.49 13.8472 244.49 14.0333V62.5545H152.93C152.278 62.5545 151.236 63.1129 151.236 63.8574C151.198 70.5763 151.143 77.2952 151.105 84.0141C151.105 86.1358 150.956 86.4708 152.315 87.9226C154.214 89.9513 156.838 91.5891 159.202 93.2642C159.184 93.2828 159.165 93.3014 159.147 93.3386C156.727 94.6229 154.307 95.9071 151.887 97.1727C151.496 97.3774 151.012 97.7683 151.012 98.2708C150.975 105.529 150.919 112.769 150.882 120.028L150.789 134.862C150.789 137.207 150.212 140.408 150.733 142.716C151.347 145.396 154.139 148.207 155.666 150.459C155.833 150.701 156.094 151.017 156.354 151.333C155.926 151.799 155.759 152.357 156.224 152.636C156.187 152.673 156.15 152.711 156.112 152.766C154.605 154.255 153.246 156.284 151.999 157.996C150.249 160.397 150.603 162.24 150.584 165.255C150.566 169.424 150.528 173.575 150.51 177.744C150.51 178.581 151.254 178.842 151.98 178.86C178.542 179.698 205.104 180.554 231.665 181.392L246.966 181.876V380.316C245.886 381.042 246.184 383.219 247.878 383.294L285.775 385.155C286.892 385.211 287.395 384.317 287.32 383.461C287.376 383.294 287.432 383.108 287.432 382.884V183.16C310.997 183.904 334.581 184.667 358.145 185.412C367.694 185.71 377.262 186.026 386.811 186.324C387.09 186.38 387.388 186.38 387.685 186.305C388.113 186.249 388.449 186.082 388.672 185.821C388.988 185.542 389.174 185.151 389.081 184.723C387.053 175.212 385.024 165.702 382.995 156.191C382.827 155.391 382.622 153.492 382.492 153.883C382.827 151.929 384.13 149.751 384.837 147.927C386.68 143.181 389.621 138.026 390.645 133.038L390.608 133.019Z" fill="#DAEBFF"/>
<path d="M390.608 133.019C391.278 129.781 388.467 126.189 387.071 123.211C385.973 120.884 384.856 118.558 383.776 116.213C383.609 115.859 383.348 114.835 383.199 115.115C383.441 114.333 384.26 113.365 384.614 112.714C386.513 109.27 389.081 106.181 389.081 102.217V93.562C389.081 91.9055 389.547 89.4115 389.081 87.7923C388.542 85.9497 386.662 84.1816 385.526 82.6554C384.521 81.3153 383.516 79.9753 382.511 78.6352C381.934 77.8535 381.245 76.2715 381.04 76.9974C381.413 75.1362 384.093 72.1211 384.968 70.6507C386.308 68.4173 387.648 66.1839 388.988 63.9318C389.547 63.0012 388.262 62.4987 387.611 62.4987H287.73C287.842 62.3498 287.897 62.1823 287.897 61.9962V2.68001C288.698 1.73081 287.823 -0.260669 286.185 0.0371215C272.243 2.53112 259.623 9.30585 245.886 12.4699C245.235 12.6188 244.9 13.0282 244.769 13.5121C244.602 13.661 244.49 13.8472 244.49 14.0333V62.5545H152.93C152.278 62.5545 151.236 63.1129 151.236 63.8574C151.198 70.5763 151.143 77.2952 151.105 84.0141C151.105 86.1358 150.956 86.4708 152.315 87.9226C154.214 89.9513 156.838 91.5891 159.202 93.2642C159.184 93.2828 159.165 93.3014 159.147 93.3386C156.727 94.6229 154.307 95.9071 151.887 97.1727C151.496 97.3774 151.012 97.7683 151.012 98.2708C150.975 105.529 150.919 112.769 150.882 120.028L150.789 134.862C150.789 137.207 150.212 140.408 150.733 142.716C151.347 145.396 154.139 148.207 155.666 150.459C155.833 150.701 156.094 151.017 156.354 151.333C155.926 151.799 155.759 152.357 156.224 152.636C156.187 152.673 156.15 152.711 156.112 152.766C154.605 154.255 153.246 156.284 151.999 157.996C150.249 160.397 150.603 162.24 150.584 165.255C150.566 169.424 150.528 173.575 150.51 177.744C150.51 178.581 151.254 178.842 151.98 178.86C178.542 179.698 205.104 180.554 231.665 181.392L246.966 181.876V380.316C245.886 381.042 246.184 383.219 247.878 383.294L285.775 385.155C286.892 385.211 287.395 384.317 287.32 383.461C287.376 383.294 287.432 383.108 287.432 382.884V183.16C310.997 183.904 334.581 184.667 358.145 185.412C367.694 185.71 377.262 186.026 386.811 186.324C387.09 186.38 387.388 186.38 387.685 186.305C388.113 186.249 388.449 186.082 388.672 185.821C388.988 185.542 389.174 185.151 389.081 184.723C387.053 175.212 385.024 165.702 382.995 156.191C382.827 155.391 382.622 153.492 382.492 153.883C382.827 151.929 384.13 149.751 384.837 147.927C386.68 143.181 389.621 138.026 390.645 133.038L390.608 133.019ZM247.617 15.3547C260.275 12.2838 272.02 6.30934 284.77 3.592V62.294C284.77 62.294 284.77 62.4615 284.808 62.5545H247.636V15.3547H247.617ZM284.193 381.842C277.008 381.488 269.805 381.135 262.62 380.781C263.253 380.632 263.793 380.13 263.793 379.292V334.605C263.793 332.539 260.573 332.52 260.573 334.605V379.292C260.573 380.055 261.001 380.539 261.559 380.744C257.762 380.558 253.983 380.372 250.186 380.185V181.969C261.522 182.322 272.858 182.694 284.193 183.048V381.842ZM379.775 156.656C368.011 157.531 356.228 157.866 344.427 157.643C343.385 157.624 341.077 159.169 343.161 159.206C355.484 159.43 367.787 159.076 380.072 158.108C381.133 163.04 382.176 167.972 383.237 172.905C332.012 173.835 280.768 174.133 229.525 173.835C227.719 173.835 227.161 176.18 229.264 176.199C280.75 176.515 332.254 176.199 383.721 175.268C384.335 178.116 384.949 180.982 385.545 183.83L307.889 181.354C265.729 180.014 223.568 178.674 181.408 177.334C172.157 177.036 162.888 176.739 153.637 176.441C153.693 171.639 153.897 166.8 153.73 161.998C153.637 159.485 153.469 160.416 155.126 158.313C156.541 156.507 157.955 154.702 159.37 152.897C172.083 153.53 184.815 153.939 197.547 154.125C199.315 154.144 199.948 151.91 197.826 151.873C185.057 151.687 172.306 151.259 159.575 150.607C158.03 148.318 156.541 145.973 154.903 143.758C153.562 141.953 153.804 142.902 153.879 140.613C154.046 134.973 153.991 129.315 153.991 123.676C166.182 123.08 178.393 122.504 190.585 121.908C192.372 121.815 192.949 119.451 190.846 119.544C178.561 120.14 166.276 120.735 153.991 121.331C153.991 121.163 153.991 120.996 153.991 120.847C154.028 114.072 154.084 107.279 154.121 100.504C154.121 99.89 154.177 99.2572 154.121 98.6244C154.139 98.6244 154.177 98.6244 154.195 98.6244C156.373 98.2336 158.96 96.3724 161.138 95.0323C161.864 95.2557 162.627 95.2743 163.632 95.2184C164.396 95.1626 165.01 94.7159 165.215 94.2878C182.097 94.5112 198.998 94.7345 215.881 94.9579C217.091 94.9579 219.176 93.1711 217.072 93.1525C199.036 92.9106 180.999 92.6686 162.962 92.4453C162.944 92.4267 162.925 92.3894 162.888 92.3708C160.375 90.4352 157.937 88.1459 155.238 86.4895C154.977 86.3219 154.53 86.0614 154.214 85.7822C153.972 84.7772 154.233 83.3068 154.251 82.3018C154.288 76.5321 154.326 70.7438 154.363 64.9741H385.117C382.716 68.9756 380.314 72.9772 377.913 76.9602C377.764 77.2207 377.82 77.6488 377.988 77.8907C380.426 81.1292 383.851 84.4794 385.656 88.1087C385.824 88.4623 385.898 88.5182 385.898 88.4809C386.029 89.151 385.898 89.9885 385.898 90.6399V98.9222C385.898 103.687 385.768 104.748 383.516 108.842C382.362 110.946 380.668 112.9 380.389 115.04C367.154 114.835 353.939 115.17 340.742 116.082C339.141 116.194 338.21 118.111 340.351 117.962C353.734 117.032 367.136 116.697 380.556 116.957C381.822 121.443 384.8 126.356 386.941 130.469C387.183 130.935 387.611 131.586 387.723 132.126C387.723 132.144 387.723 132.144 387.723 132.163C387.723 132.2 387.723 132.219 387.723 132.256C387.592 133.913 386.234 136.09 385.619 137.635C383.758 142.418 381.841 147.183 380.017 151.985C379.253 153.976 379.328 154.721 379.737 156.694L379.775 156.656Z" fill="#1B224C"/>
<path d="M376.61 74.6151C350.16 74.0196 323.71 74.1685 297.26 75.0246C295.64 75.0804 294.747 76.9975 296.888 76.923C323.058 76.0669 349.248 75.9552 375.437 76.5322C376.722 76.5694 378.713 74.6524 376.61 74.6151Z" fill="#1B224C"/>
<path d="M191.422 71.8232C181.408 71.5999 171.375 71.3952 161.342 71.1718C159.555 71.1346 158.978 73.4425 161.082 73.4797C171.114 73.703 181.128 73.9078 191.161 74.1311C192.948 74.1683 193.525 71.8605 191.422 71.8232Z" fill="#1B224C"/>
<path d="M203.671 164.939C191.144 164.715 178.617 164.511 166.089 164.287C164.805 164.269 162.813 166.186 164.917 166.223C177.444 166.446 189.971 166.651 202.498 166.874C203.782 166.893 205.774 164.976 203.671 164.939Z" fill="#1B224C"/>
<path d="M371.027 165.274H373.167C373.819 165.274 374.805 164.771 374.898 164.045C374.991 163.245 374.061 163.077 373.484 163.077H371.343C370.692 163.077 369.705 163.58 369.612 164.306C369.519 165.106 370.45 165.274 371.027 165.274Z" fill="#1B224C"/>
<path d="M170.78 142.623C167.373 142.418 163.986 142.213 160.579 142.009C159.946 141.971 158.83 142.065 158.383 142.604C158.048 142.995 157.862 143.442 158.625 143.498L168.825 144.112C169.458 144.149 170.575 144.056 171.022 143.516C171.357 143.125 171.543 142.679 170.78 142.641V142.623Z" fill="#1B224C"/>
<path d="M370.729 107.67C365.536 107.465 360.342 107.26 355.149 107.074C354.07 107.037 351.799 108.582 353.883 108.675C359.077 108.88 364.27 109.084 369.463 109.27C370.543 109.308 372.814 107.763 370.729 107.67Z" fill="#1B224C"/>
<path d="M365.759 88.9275H347.499C346.866 88.9275 343.981 90.1559 345.47 90.1559H363.73C364.363 90.1559 367.248 88.9275 365.759 88.9275Z" fill="#1B224C"/>
<path d="M276.674 276.852C276.413 275.977 276.544 275.214 277.046 274.451C278.182 272.72 275.408 271.101 274.273 272.832C273.323 274.265 273.081 276.07 273.584 277.727C274.18 279.7 277.288 278.862 276.692 276.871L276.674 276.852Z" fill="#1B224C"/>
<path d="M274.886 320.981V325.094C274.812 325.224 274.756 325.355 274.756 325.522V362.876C274.756 364.235 277.25 363.919 277.25 362.727V326.658C277.734 326.434 278.106 325.969 278.106 325.28V320.981C278.106 318.915 274.886 318.896 274.886 320.981Z" fill="#1B224C"/>
<path d="M275.779 371.94C273.713 371.94 273.695 375.16 275.779 375.16C277.864 375.16 277.864 371.94 275.779 371.94Z" fill="#1B224C"/>
<path d="M276.505 231.96C276.282 219.788 276.058 207.634 275.835 195.462C275.816 194.29 273.341 194.736 273.359 195.704C273.583 207.876 273.806 220.03 274.03 232.202C274.048 233.375 276.524 232.928 276.505 231.96Z" fill="#1B224C"/>
<path d="M262.807 286.921V204.582C262.807 203.838 260.35 204.303 260.35 205.233V287.573C260.35 288.317 262.807 287.852 262.807 286.921Z" fill="#1B224C"/>
<path d="M269.6 289.694V254.034C269.6 252.75 267.105 253.103 267.105 254.22V289.88C267.105 291.165 269.6 290.811 269.6 289.694Z" fill="#1B224C"/>
<path d="M259.512 23.4324C258.618 23.4324 256.887 24.7724 258.544 24.7724C259.437 24.7724 261.168 23.4324 259.512 23.4324Z" fill="#1B224C"/>
<path d="M264.594 19.3377V50.7546C264.594 51.2757 267.051 50.8849 267.051 50.1032V18.6863C267.051 18.1651 264.594 18.556 264.594 19.3377Z" fill="#1B224C"/>
<path d="M258.637 31.8636V55.631C258.637 56.7849 261.112 56.3382 261.112 55.389V31.6216C261.112 30.4677 258.637 30.9144 258.637 31.8636Z" fill="#1B224C"/>
<path d="M279.855 13.1584V36.0697C279.855 37.3539 282.35 36.9817 282.35 35.8836V12.9723C282.35 11.6881 279.855 12.0603 279.855 13.1584Z" fill="#1B224C"/>
<path d="M261.969 319.418V301.587C261.969 300.303 259.475 300.675 259.475 301.773V319.604C259.475 320.888 261.969 320.516 261.969 319.418Z" fill="#1B224C"/>
<path d="M257.706 199.687V185.263C257.706 184.09 255.23 184.556 255.23 185.505V199.929C255.23 201.102 257.706 200.636 257.706 199.687Z" fill="#1B224C"/>
<path d="M339.627 148.8V126.981H347.771C349.573 126.981 351.151 127.268 352.503 127.842C353.855 128.416 354.982 129.194 355.883 130.177C356.805 131.161 357.492 132.318 357.942 133.65C358.413 134.961 358.649 136.364 358.649 137.86C358.649 139.519 358.393 141.025 357.881 142.377C357.369 143.709 356.631 144.856 355.668 145.819C354.726 146.762 353.579 147.499 352.226 148.032C350.895 148.544 349.409 148.8 347.771 148.8H339.627ZM353.517 137.86C353.517 136.897 353.384 136.026 353.118 135.248C352.872 134.449 352.503 133.763 352.011 133.189C351.52 132.615 350.915 132.175 350.198 131.868C349.481 131.56 348.672 131.407 347.771 131.407H344.667V144.375H347.771C348.692 144.375 349.512 144.211 350.229 143.883C350.946 143.555 351.54 143.105 352.011 142.531C352.503 141.937 352.872 141.251 353.118 140.472C353.384 139.673 353.517 138.802 353.517 137.86Z" fill="#1B224C"/>
<path d="M321.348 136.323V148.8H316.309V126.981H320.242L330.414 139.796V126.981H335.454V148.8H331.397L321.348 136.323Z" fill="#1B224C"/>
<path d="M302.723 144.498C303.584 144.498 304.311 144.324 304.905 143.975C305.499 143.607 305.98 143.125 306.349 142.531C306.718 141.937 306.974 141.261 307.118 140.503C307.281 139.724 307.363 138.936 307.363 138.137V126.981H312.403V138.137C312.403 139.653 312.209 141.066 311.819 142.377C311.451 143.689 310.867 144.836 310.068 145.819C309.289 146.803 308.285 147.581 307.056 148.155C305.847 148.708 304.403 148.984 302.723 148.984C300.982 148.984 299.496 148.687 298.267 148.093C297.038 147.499 296.034 146.71 295.256 145.727C294.498 144.723 293.934 143.566 293.565 142.254C293.217 140.943 293.043 139.571 293.043 138.137V126.981H298.083V138.137C298.083 138.977 298.165 139.776 298.329 140.534C298.493 141.292 298.759 141.968 299.128 142.562C299.496 143.156 299.968 143.627 300.541 143.975C301.135 144.324 301.863 144.498 302.723 144.498Z" fill="#1B224C"/>
<path d="M279.559 148.985C277.941 148.985 276.466 148.667 275.134 148.032C273.802 147.397 272.665 146.567 271.723 145.543C270.781 144.498 270.043 143.31 269.51 141.978C268.998 140.646 268.742 139.274 268.742 137.86C268.742 136.426 269.009 135.043 269.541 133.712C270.094 132.38 270.852 131.212 271.815 130.208C272.799 129.184 273.956 128.375 275.288 127.781C276.619 127.166 278.074 126.859 279.651 126.859C281.27 126.859 282.745 127.176 284.077 127.811C285.408 128.446 286.545 129.286 287.488 130.331C288.43 131.376 289.157 132.564 289.67 133.896C290.182 135.228 290.438 136.58 290.438 137.952C290.438 139.386 290.161 140.769 289.608 142.101C289.075 143.433 288.328 144.611 287.365 145.635C286.402 146.639 285.255 147.448 283.923 148.063C282.591 148.677 281.137 148.985 279.559 148.985ZM273.874 137.922C273.874 138.762 273.997 139.581 274.243 140.38C274.489 141.159 274.847 141.855 275.318 142.47C275.81 143.084 276.415 143.576 277.132 143.945C277.849 144.314 278.668 144.498 279.59 144.498C280.553 144.498 281.393 144.303 282.11 143.914C282.827 143.525 283.421 143.023 283.892 142.408C284.363 141.773 284.712 141.066 284.937 140.288C285.183 139.489 285.306 138.68 285.306 137.86C285.306 137.02 285.183 136.211 284.937 135.432C284.691 134.633 284.323 133.937 283.831 133.343C283.339 132.728 282.735 132.247 282.018 131.898C281.321 131.53 280.512 131.345 279.59 131.345C278.627 131.345 277.787 131.54 277.07 131.929C276.374 132.298 275.779 132.79 275.288 133.404C274.817 134.019 274.458 134.726 274.212 135.525C273.987 136.303 273.874 137.102 273.874 137.922Z" fill="#1B224C"/>
<path d="M252.986 148.8V126.981H267.798V131.407H258.026V136.108H266.077V140.196H258.026V148.8H252.986Z" fill="#1B224C"/>
<path d="M244.223 131.407H237.585V148.8H232.545V131.407H225.877V126.981H244.223V131.407Z" fill="#1B224C"/>
<path d="M214.829 148.985C213.21 148.985 211.735 148.667 210.404 148.032C209.072 147.397 207.935 146.567 206.993 145.543C206.05 144.498 205.313 143.31 204.78 141.978C204.268 140.646 204.012 139.274 204.012 137.86C204.012 136.426 204.278 135.043 204.811 133.712C205.364 132.38 206.122 131.212 207.085 130.208C208.068 129.184 209.226 128.375 210.557 127.781C211.889 127.166 213.344 126.859 214.921 126.859C216.539 126.859 218.015 127.176 219.346 127.811C220.678 128.446 221.815 129.286 222.757 130.331C223.7 131.376 224.427 132.564 224.939 133.896C225.451 135.228 225.707 136.58 225.707 137.952C225.707 139.386 225.431 140.769 224.878 142.101C224.345 143.433 223.597 144.611 222.634 145.635C221.671 146.639 220.524 147.448 219.193 148.063C217.861 148.677 216.406 148.985 214.829 148.985ZM209.144 137.922C209.144 138.762 209.267 139.581 209.512 140.38C209.758 141.159 210.117 141.855 210.588 142.47C211.08 143.084 211.684 143.576 212.401 143.945C213.118 144.314 213.938 144.498 214.86 144.498C215.822 144.498 216.662 144.303 217.379 143.914C218.097 143.525 218.691 143.023 219.162 142.408C219.633 141.773 219.981 141.066 220.207 140.288C220.453 139.489 220.575 138.68 220.575 137.86C220.575 137.02 220.453 136.211 220.207 135.432C219.961 134.633 219.592 133.937 219.1 133.343C218.609 132.728 218.004 132.247 217.287 131.898C216.591 131.53 215.781 131.345 214.86 131.345C213.897 131.345 213.057 131.54 212.34 131.929C211.643 132.298 211.049 132.79 210.557 133.404C210.086 134.019 209.728 134.726 209.482 135.525C209.256 136.303 209.144 137.102 209.144 137.922Z" fill="#1B224C"/>
<path d="M186.993 136.323V148.8H181.953V126.981H185.887L196.058 139.796V126.981H201.098V148.8H197.042L186.993 136.323Z" fill="#1B224C"/>
<path d="M307.95 107.984V112.409H292.615V90.5901H307.673V95.0153H297.655V99.2561H306.26V103.343H297.655V107.984H307.95Z" fill="#1B224C"/>
<path d="M285.105 110.258C283.445 111.794 281.53 112.562 279.358 112.562C277.924 112.562 276.572 112.296 275.302 111.763C274.031 111.21 272.915 110.442 271.952 109.459C271.01 108.475 270.262 107.297 269.709 105.925C269.155 104.532 268.879 103.005 268.879 101.346C268.879 99.8503 269.155 98.4367 269.709 97.105C270.262 95.7734 271.02 94.6159 271.983 93.6325C272.966 92.6491 274.124 91.8706 275.455 91.297C276.787 90.7233 278.221 90.4365 279.757 90.4365C281.786 90.4365 283.558 90.8667 285.074 91.7272C286.59 92.5672 287.727 93.7247 288.485 95.1997L284.736 98.0269C284.244 97.0436 283.527 96.2855 282.585 95.7529C281.663 95.1997 280.659 94.9232 279.573 94.9232C278.733 94.9232 277.965 95.0973 277.268 95.4456C276.592 95.7734 276.008 96.2446 275.517 96.8592C275.025 97.4533 274.646 98.1499 274.38 98.9489C274.113 99.7478 273.98 100.608 273.98 101.53C273.98 102.473 274.124 103.343 274.41 104.142C274.697 104.941 275.097 105.638 275.609 106.232C276.121 106.806 276.725 107.256 277.422 107.584C278.139 107.912 278.928 108.076 279.788 108.076C281.755 108.076 283.527 107.164 285.105 105.341V104.665H280.864V101.008H289.284V112.409H285.105V110.258Z" fill="#1B224C"/>
<path d="M256.262 90.5901H260.81L268.769 112.409H263.606L261.916 107.523H255.125L253.465 112.409H248.303L256.262 90.5901ZM261.087 104.05L258.536 96.3367L255.924 104.05H261.087Z" fill="#1B224C"/>
<path d="M232.564 112.409V90.5901H241.876C242.921 90.5901 243.873 90.8052 244.734 91.2354C245.615 91.6657 246.362 92.229 246.977 92.9256C247.612 93.6222 248.104 94.4109 248.452 95.2918C248.821 96.1728 249.005 97.064 249.005 97.9654C249.005 98.9283 248.831 99.8502 248.483 100.731C248.155 101.612 247.684 102.401 247.069 103.097C246.475 103.794 245.748 104.347 244.887 104.757C244.027 105.167 243.074 105.371 242.029 105.371H237.604V112.409H232.564ZM237.604 100.977H241.722C242.316 100.977 242.828 100.721 243.259 100.209C243.689 99.6965 243.904 98.9488 243.904 97.9654C243.904 97.4532 243.832 97.0128 243.689 96.644C243.566 96.2752 243.392 95.9679 243.166 95.7221C242.941 95.4762 242.685 95.3021 242.398 95.1997C242.111 95.0767 241.825 95.0153 241.538 95.0153H237.604V100.977Z" fill="#1B224C"/>
<path d="M120.17 357.274V367.827C120.17 368.628 121.975 368.293 121.975 367.623V357.07C121.975 356.269 120.17 356.604 120.17 357.274Z" fill="#1B224C"/>
<path d="M110.489 366.32H137.126V277.932C168.359 275.81 193.116 249.735 193.116 217.983C193.116 210.445 186.992 204.322 179.453 204.322C171.915 204.322 165.791 210.445 165.791 217.983C165.791 234.659 153.264 248.469 137.126 250.498V213.013C137.126 205.662 131.169 199.706 123.817 199.706C116.464 199.706 110.508 205.662 110.508 213.013V281.431C96.7339 277.541 86.6081 264.885 86.6081 249.884C86.6081 242.346 80.4842 236.222 72.9456 236.222C65.4071 236.222 59.2832 242.346 59.2832 249.884C59.2832 279.998 81.5638 305.012 110.508 309.33V366.32H110.489Z" fill="#DAEBFF"/>
<path d="M109.094 309.404C110.136 310.428 109.094 317.221 109.094 318.71V354.836C109.094 358.391 108.722 362.43 109.001 366.32H111.83C111.439 361.797 111.886 356.958 111.886 352.454V309.33C111.886 308.771 111.458 308.083 110.862 307.99C84.1516 303.43 59.7118 279.811 60.6983 251.223C60.9403 244.095 64.9609 237.637 72.9275 237.637C81.3595 237.637 84.3005 244.151 85.2498 251.205C85.864 255.765 86.3852 259.934 88.3769 264.196C92.6766 273.465 100.532 279.681 110.136 282.789C111.011 283.068 111.905 282.324 111.905 281.449V218.28C111.905 212.455 111.793 206.238 117.805 202.739C126.386 197.733 134.855 204.768 135.749 213.478C135.916 215.135 135.749 216.903 135.749 218.56V250.498C135.749 251.484 136.642 251.987 137.517 251.838C147.848 250.125 156.912 244.579 162.366 235.496C164.637 231.7 166.126 227.493 166.796 223.138C167.727 217.126 167.02 211.04 173.274 207.392C181.873 202.367 190.92 208.974 191.72 217.983C191.05 248.841 167.932 273.781 137.126 276.536C136.382 276.61 135.73 277.113 135.73 277.932V362.914C135.73 364.03 135.786 365.184 135.73 366.301H138.708C139.062 361.518 138.504 356.399 138.504 351.802V291.872C138.504 288.429 137.405 282.957 138.504 279.681C138.727 279.048 138.746 278.769 138.727 278.657C138.783 278.657 138.894 278.657 139.099 278.527C140.83 277.597 147.345 277.839 150.063 277.038C158.253 274.674 165.884 270.543 172.436 265.089C186.527 253.345 194.103 236.129 194.494 217.964C193.414 205.978 180.217 197.956 169.942 206.313C165.121 210.221 164.935 214.893 164.284 220.57C163.651 226.19 161.882 231.513 158.588 236.129C153.953 242.625 148.257 244.542 141.724 248.097C138.578 249.809 139.211 250.833 138.522 248.748C138.02 247.185 138.522 244.486 138.522 242.811V223.789C138.522 215.284 139.881 205.326 131.244 200.283C121.063 194.327 109.857 202.181 109.113 213.05C108.573 220.737 109.113 228.666 109.113 236.371V272.069C109.113 273.93 110.08 279.141 109.113 280.854C109.801 279.644 104.273 277.466 102.188 276.108C96.2877 272.236 91.746 266.336 89.5496 259.617C87.3717 252.954 89.2145 245.752 84.3749 240.094C80.5964 235.664 74.5283 233.877 68.9628 235.422C54.4627 239.405 57.2362 257.123 60.6425 268.086C65.1842 282.715 75.2915 295.352 88.5072 303.058C91.4854 304.789 94.6125 306.278 97.8513 307.487C100.029 308.306 102.765 309.497 105.111 309.702C102.728 309.497 110.211 310.465 109.113 309.404H109.094Z" fill="#1B224C"/>
<path d="M127.279 225.651V269.24C127.279 270.003 128.824 269.742 128.824 269.109V225.52C128.824 224.757 127.279 225.018 127.279 225.651Z" fill="#1B224C"/>
<path d="M129.922 287.759V299.317C129.922 299.707 131.448 299.447 131.448 298.907V287.349C131.448 286.958 129.922 287.219 129.922 287.759Z" fill="#1B224C"/>
<path d="M127.299 319.25V349.699C127.299 350.034 128.825 349.792 128.825 349.29V318.841C128.825 318.506 127.299 318.747 127.299 319.25Z" fill="#1B224C"/>
<path d="M120.449 246.645V291.797C120.449 292.616 121.994 292.393 121.994 291.686V246.533C121.994 245.714 120.449 245.938 120.449 246.645Z" fill="#1B224C"/>
<path d="M120.467 303.504V311.377C120.467 311.843 121.993 311.545 121.993 310.968V303.095C121.993 302.63 120.467 302.927 120.467 303.504Z" fill="#1B224C"/>
<path d="M117.842 210.426V220.402C117.842 221.128 119.368 220.849 119.368 220.253V210.277C119.368 209.551 117.842 209.831 117.842 210.426Z" fill="#1B224C"/>
<path d="M101.276 288.633C88.8983 278.62 78.1769 265.127 79.0331 248.357C79.0331 248.059 77.544 248.264 77.5068 248.767C76.6505 265.592 87.4279 279.123 99.8432 289.173C100.197 289.452 101.556 288.875 101.276 288.633Z" fill="#1B224C"/>
<path d="M88.3393 287.219C85.0261 284.52 82.3829 281.207 80.5215 277.355C80.2423 276.778 78.7532 277.243 78.9952 277.764C80.8938 281.691 83.5556 285.078 86.9433 287.833C87.4086 288.205 88.8233 287.591 88.3579 287.2L88.3393 287.219Z" fill="#1B224C"/>
<path d="M77.7864 284.595C69.2054 275.177 64.7568 262.93 65.3338 250.2C65.371 249.399 63.8261 249.604 63.7889 250.311C63.1932 263.228 67.6791 275.717 76.3903 285.265C76.8743 285.786 78.3075 285.172 77.7864 284.576V284.595Z" fill="#1B224C"/>
<path d="M173.255 219.9C171.301 229.038 167.373 237.413 161.566 244.747C161.491 244.858 162.794 244.821 163.073 244.467C168.862 237.134 172.808 228.759 174.763 219.62C174.837 219.304 173.348 219.527 173.255 219.9Z" fill="#1B224C"/>
<path d="M148.406 253.178C146.712 255.337 144.18 256.379 141.444 256.007C140.7 255.895 139.899 256.975 140.923 257.105C144.273 257.57 147.587 256.286 149.671 253.625C150.267 252.861 148.834 252.619 148.406 253.178Z" fill="#1B224C"/>
<path d="M182.301 210.687C182.264 210.37 180.738 210.687 180.775 211.096C181.427 216.624 180.384 221.891 177.704 226.749C177.573 226.972 178.988 226.879 179.211 226.488C181.929 221.575 182.971 216.252 182.301 210.687Z" fill="#1B224C"/>
<path d="M185.317 228.722C178.932 248.339 161.714 263.452 141.332 266.951C140.569 267.081 140.123 268.105 141.165 267.918C162.292 264.289 180.216 248.971 186.843 228.573C187.048 227.959 185.503 228.145 185.317 228.722Z" fill="#1B224C"/>
<path d="M117.004 340.524V360.382C117.004 360.792 118.809 360.494 118.809 359.898V340.04C118.809 339.63 117.004 339.928 117.004 340.524Z" fill="#1B224C"/>
<path d="M190.939 386.29C190.976 388.393 188.947 389.938 187.477 391.073C186.937 391.483 186.918 392.581 187.44 393.028C190.678 395.652 195.257 399.3 194.066 404.065C192.428 410.579 183.903 406.037 180.46 403.934C179.845 403.562 179.25 403.73 178.84 404.12L120.058 418.433C119.388 418.6 119.09 419.103 119.053 419.624C118.997 419.773 118.941 419.941 118.941 420.127C118.662 425.747 113.674 429.972 108.034 428.465C104.59 427.553 101.761 424.538 103.064 420.778C104.125 417.744 107.14 416.013 109.728 414.45C110.882 413.761 110.491 411.937 109.095 411.882C106.489 411.77 103.957 411.156 101.761 409.685C98.3173 407.377 97.4611 403.097 101.24 400.566C106.098 397.327 111.477 401.124 115.107 404.697C114.195 405.516 114.865 407.433 116.354 407.061L176.83 392.339C177.444 392.581 178.189 392.451 178.468 391.743C178.803 391.408 178.896 390.943 178.803 390.496C179.641 387.612 181.483 385.155 184.331 383.889C186.509 382.921 190.865 382.233 190.939 386.309V386.29Z" fill="#DAEBFF"/>
<path d="M176.197 389.659L118.122 403.804C113.096 398.574 103.306 392.544 97.5539 400.324C92.6585 406.931 99.0989 412.254 105.39 414.022C102.71 415.939 100.402 418.359 99.9737 421.802C99.4898 425.785 102.245 429.079 105.763 430.587C113.171 433.769 120.877 428.539 121.659 420.89L179.547 406.801C179.547 406.801 179.696 406.745 179.771 406.726C184.517 409.499 192.502 412.905 195.964 406.801C199.203 401.105 194.792 395.745 190.585 392.097C192.484 390.348 193.954 388.133 193.656 385.378C193.377 382.717 191.33 380.949 188.761 380.521C182.935 379.553 177.76 384.411 176.178 389.696L176.197 389.659ZM190.939 386.29C190.976 388.393 188.947 389.938 187.477 391.074C186.937 391.483 186.918 392.581 187.439 393.028C190.678 395.652 195.257 399.3 194.066 404.065C192.428 410.579 183.903 406.038 180.459 403.934C179.845 403.562 179.249 403.73 178.84 404.121L120.058 418.433C119.388 418.601 119.09 419.103 119.053 419.624C118.997 419.773 118.941 419.941 118.941 420.127C118.662 425.748 113.673 429.972 108.033 428.465C104.59 427.553 101.761 424.538 103.064 420.778C104.125 417.744 107.14 416.014 109.727 414.45C110.881 413.761 110.49 411.938 109.094 411.882C106.489 411.77 103.957 411.156 101.761 409.685C98.3171 407.378 97.4609 403.097 101.239 400.566C106.098 397.327 111.477 401.124 115.107 404.697C114.195 405.516 114.865 407.433 116.354 407.061L176.83 392.339C177.444 392.581 178.188 392.451 178.468 391.744C178.803 391.409 178.896 390.943 178.803 390.497C179.64 387.612 181.483 385.155 184.331 383.889C186.509 382.922 190.864 382.233 190.939 386.309V386.29Z" fill="#1B224C"/>
<path d="M116.8 412.235L156.447 402.576C157.303 402.371 156.447 400.528 155.758 400.696L116.111 410.355C115.255 410.56 116.111 412.403 116.8 412.235Z" fill="#1B224C"/>
<path d="M163.39 401.347L170.073 399.728C170.389 399.654 169.644 397.774 169.086 397.923L162.404 399.542C162.087 399.616 162.832 401.496 163.39 401.347Z" fill="#1B224C"/>
<path d="M184.442 285.172C184.442 282.287 186.788 279.961 189.654 279.961C192.521 279.961 194.866 282.306 194.866 285.172C194.866 291.537 199.65 296.823 205.811 297.586V283.273C205.811 280.463 208.082 278.192 210.892 278.192C213.703 278.192 215.974 280.463 215.974 283.273V309.405C221.242 307.916 225.113 303.076 225.113 297.344C225.113 294.459 227.44 292.133 230.325 292.133C233.21 292.133 235.537 294.459 235.537 297.344C235.537 308.846 227.031 318.413 215.974 320.051V342.162C215.974 344.972 213.703 347.243 210.892 347.243C208.082 347.243 205.811 344.972 205.811 342.162V308.065C193.88 307.246 184.424 297.288 184.424 285.172H184.442Z" fill="#1B224C"/>
<path d="M448.404 328.109C448.404 325.522 450.508 323.419 453.095 323.419C455.682 323.419 457.786 325.522 457.786 328.109C457.786 333.823 462.085 338.569 467.614 339.258V326.397C467.614 323.866 469.661 321.837 472.174 321.837C474.705 321.837 476.734 323.884 476.734 326.397V349.867C481.462 348.527 484.924 344.19 484.924 339.053C484.924 336.466 487.028 334.363 489.615 334.363C492.202 334.363 494.306 336.466 494.306 339.053C494.306 349.383 486.655 357.963 476.734 359.433V379.274C476.734 381.805 474.687 383.833 472.174 383.833C469.643 383.833 467.614 381.786 467.614 379.274V348.657C456.911 347.931 448.404 338.979 448.404 328.091V328.109Z" fill="#1B224C"/>
<path d="M466.944 261.814C460.764 261.814 455.776 266.82 455.776 272.981V273.576C455.776 283.199 447.958 291.016 438.335 291.016H431.783V230.955C431.783 223.883 426.05 218.132 418.958 218.132C411.866 218.132 406.133 223.864 406.133 230.955V264.159C399.414 263.824 394.053 258.259 394.053 251.466V249.735C394.053 243.555 389.046 238.567 382.885 238.567C376.723 238.567 371.716 243.574 371.716 249.735V251.466C371.716 270.58 387.11 286.177 406.152 286.53V316.049H399.004C389.381 316.049 381.563 308.232 381.563 298.61C381.563 292.43 376.556 287.442 370.395 287.442C364.234 287.442 359.227 292.449 359.227 298.61C359.227 320.553 377.077 338.402 399.023 338.402H406.17V363.025H431.801V313.369H438.353C460.299 313.369 478.149 295.52 478.149 273.576V272.981C478.149 266.802 473.142 261.814 466.981 261.814H466.944Z" fill="#DAEBFF"/>
<path d="M467.521 260.604C467.353 260.529 467.167 260.492 466.944 260.529C466.702 260.511 466.516 260.529 466.348 260.622C461.527 261.255 457.321 263.545 455.385 268.309C454.119 271.399 454.771 274.693 453.877 277.876C451.83 285.302 445.222 289.303 437.832 289.732C436.25 289.825 433.588 289.08 432.918 289.732C432.937 289.08 433.03 288.373 433.048 288.038C433.402 283.292 433.048 278.378 433.048 273.614V237.879C433.048 229.745 432.993 221.054 423.742 217.685C413.616 214 405.165 222.17 404.811 231.942C404.644 236.836 404.811 241.787 404.811 246.682C404.811 250.423 406.505 259.729 404.811 263.154C404.774 263.21 404.774 263.247 404.756 263.284C404.7 263.284 404.644 263.284 404.551 263.303C403.173 263.675 397.236 257.793 396.808 257.03C394.63 253.141 396.026 248.953 394.425 245.026C392.545 240.391 387.873 237.246 382.866 237.246C367.826 237.246 369.185 255.728 373.131 265.294C375.532 271.101 379.441 276.238 384.411 280.109C386.849 282.008 389.511 283.608 392.359 284.837C394.444 285.749 396.603 286.456 398.818 286.958C398.874 286.958 405.053 287.833 404.272 287.182C404.644 287.498 404.793 288.317 404.793 290.513V297.902C404.793 302.927 406.077 309.963 404.793 314.876C404.011 314.913 403.043 314.802 402.503 314.727C398.334 314.206 394.797 314.876 390.795 312.513C380.688 306.594 386.16 294.533 377.487 288.391C366.076 280.314 356.863 292.654 358.128 303.374C359.822 317.761 369.296 330.473 382.587 336.261C388.748 338.941 395.095 339.63 401.74 339.667C402.708 339.667 403.695 339.686 404.662 339.667C404.774 339.667 404.867 339.667 404.96 339.667C405.221 341.398 404.793 343.874 404.793 345.456C404.793 350.295 403.937 356.902 404.327 363.007H407.38C406.989 354.836 407.38 346.554 407.38 338.383C407.38 337.676 406.784 337.08 406.077 337.08C396.733 337.08 387.873 336.727 379.515 331.813C368.273 325.224 356.341 308.474 361.888 295.092C362.651 290.923 365.462 288.782 370.32 288.708C376.332 289.266 379.627 292.561 380.204 298.591C380.725 300.619 380.539 302.574 381.246 304.64C382.438 308.12 384.578 311.154 387.501 313.406C393.085 317.724 399.451 317.314 406.096 317.314C406.803 317.314 407.399 316.719 407.399 316.012V286.493C407.399 285.767 406.803 285.227 406.096 285.19C389.437 284.334 369.278 268.626 372.963 249.697C374.006 244.374 377.3 240.596 382.847 239.814C389.734 238.865 391.689 245.882 392.731 250.553C393.159 252.452 392.899 254.313 393.587 256.23C395.523 261.628 400.288 264.605 405.761 265.369C406.58 265.48 407.399 265.052 407.399 264.122V235.794C407.399 228.349 409.241 219.416 418.921 219.416C427.837 219.416 430.442 227.568 430.442 234.752V290.979C430.442 291.686 431.038 292.281 431.745 292.281C438.242 292.281 444.459 292.523 449.875 288.261C453.002 285.804 455.31 282.361 456.371 278.527C458.251 271.734 456.557 264.122 466.925 263.079C487.791 265.182 471.653 295.371 463.854 302.295C454.529 310.577 443.677 312.029 431.745 312.029C431.038 312.029 430.442 312.624 430.442 313.331V361.909C430.442 362.262 430.442 362.634 430.442 362.988H433.476C434.128 354.724 433.048 345.735 433.048 337.769V319.659C433.048 318.282 432.732 316.272 432.918 314.746C433.57 315.1 435.338 314.634 436.604 314.616C452.63 314.467 467.372 306.854 474.873 292.244C480.346 281.58 483.454 262.614 467.502 260.529L467.521 260.604Z" fill="#1B224C"/>
<path d="M423.928 272.999V312.308C423.928 312.754 425.603 312.457 425.603 311.861V272.553C425.603 272.106 423.928 272.404 423.928 272.999Z" fill="#1B224C"/>
<path d="M415.83 287.908V299.186C415.83 299.912 417.505 299.577 417.505 299V287.721C417.505 286.996 415.83 287.331 415.83 287.908Z" fill="#1B224C"/>
<path d="M416.705 319.808V345.53C416.705 345.791 418.38 345.549 418.38 345.083V319.362C418.38 319.101 416.705 319.343 416.705 319.808Z" fill="#1B224C"/>
<path d="M421.322 227.047V245.249C421.322 245.565 422.997 245.323 422.997 244.802V226.6C422.997 226.283 421.322 226.525 421.322 227.047Z" fill="#1B224C"/>
<path d="M413.504 236.446V241.638C413.504 242.401 415.179 242.085 415.179 241.452V236.241C415.179 235.478 413.504 235.794 413.504 236.427V236.446Z" fill="#1B224C"/>
<path d="M464.282 277.448C462.03 282.678 459.74 288.187 455.627 292.263C449.968 297.865 442.969 298.088 435.487 297.642C434.705 297.604 433.756 298.74 434.891 298.796C441.387 299.186 448.07 299.335 453.672 295.52C459.871 291.295 462.998 284.26 465.864 277.597C466.237 276.74 464.543 276.796 464.264 277.448H464.282Z" fill="#1B224C"/>
<path d="M468.563 286.344C467.186 289.88 465.045 292.933 462.235 295.464C461.825 295.818 463.426 295.687 463.761 295.39C466.646 292.821 468.824 289.676 470.22 286.084C470.369 285.693 468.749 285.879 468.563 286.344Z" fill="#1B224C"/>
<path d="M425.602 363.044V338.625C425.602 337.713 423.908 337.936 423.908 338.737V363.044H425.602Z" fill="#1B224C"/>
<path d="M424.783 327.03V330.492C424.783 331.385 426.477 331.143 426.477 330.38V326.918C426.477 326.025 424.783 326.267 424.783 327.03Z" fill="#1B224C"/>
<path d="M396.641 322.246C384.56 320.59 375.644 311.47 374.1 299.41C374.025 298.833 372.35 299.223 372.424 299.856C374.006 312.215 383.313 321.483 395.617 323.177C396.157 323.251 397.59 322.377 396.641 322.246Z" fill="#1B224C"/>
<path d="M394.91 328.928C393.384 328.984 391.95 328.705 390.554 328.109C389.81 327.793 388.618 328.872 389.605 329.282C391.262 329.97 392.993 330.268 394.78 330.212C395.747 330.175 396.045 328.891 394.91 328.928Z" fill="#1B224C"/>
<path d="M393.495 275.531C389.791 275.438 385.194 269.147 383.146 266.411C379.944 262.13 378.046 257.272 378.865 251.875C378.958 251.279 377.283 251.596 377.19 252.117C376.315 257.905 378.455 263.117 382.029 267.602C384.523 270.747 388.414 276.312 392.825 276.405C393.402 276.405 394.612 275.568 393.495 275.531Z" fill="#1B224C"/>
<path d="M394.685 265.424C391.949 264.959 389.864 262.726 389.473 260.008C389.436 259.711 387.742 260.046 387.798 260.455C388.208 263.321 390.46 265.573 393.308 266.057C393.662 266.113 394.164 266.02 394.481 265.834C394.592 265.778 395.076 265.499 394.685 265.424Z" fill="#1B224C"/>
<path d="M410.916 258.687V274.284C410.916 274.693 412.591 274.414 412.591 273.837V258.24C412.591 257.831 410.916 258.11 410.916 258.687Z" fill="#1B224C"/>
<path d="M424.355 254.667V260.734C424.355 261.46 426.031 261.125 426.031 260.529V254.462C426.031 253.736 424.355 254.071 424.355 254.667Z" fill="#1B224C"/>
<path d="M56.456 334.028C54.334 334.028 52.6216 335.74 52.6216 337.862V338.067C52.6216 341.361 49.9412 344.041 46.6466 344.041H44.3943V323.475C44.3943 321.055 42.4213 319.083 40.0015 319.083C37.5817 319.083 35.6087 321.055 35.6087 323.475V334.847C33.3006 334.735 31.4764 332.837 31.4764 330.492V329.896C31.4764 327.774 29.764 326.062 27.642 326.062C25.52 326.062 23.8076 327.774 23.8076 329.896V330.492C23.8076 337.043 29.0752 342.385 35.6087 342.496V352.603H33.1516C29.857 352.603 27.1767 349.922 27.1767 346.628C27.1767 344.506 25.4642 342.794 23.3422 342.794C21.2203 342.794 19.5078 344.506 19.5078 346.628C19.5078 354.147 25.6317 360.252 33.133 360.252H35.59V369.595C35.59 372.015 37.5631 373.988 39.9829 373.988C42.4026 373.988 44.3757 372.015 44.3757 369.595V351.672H46.628C54.1479 351.672 60.2532 345.549 60.2532 338.048V337.843C60.2532 335.722 58.5407 334.009 56.4188 334.009L56.456 334.028Z" fill="#1C4788"/>
<path d="M464.505 407.247C462.718 406.949 460.875 407.042 459.163 407.564C458.958 407.619 458.697 407.694 458.437 407.768C459.442 405.051 460.038 402.148 460.764 399.318C460.894 398.835 460.41 398.332 459.907 398.593C457.785 399.709 455.794 401.031 453.97 402.52C453.635 398.09 450.824 393.977 448.832 390.143C448.627 389.752 448.032 389.678 447.79 390.068C445.891 393.028 444.551 396.192 443.751 399.579C443.341 398.965 442.894 398.388 442.392 397.848C441.387 396.75 439.172 394.498 437.496 394.87C435.71 395.28 436.491 398.276 436.584 399.523C436.771 401.887 437.087 404.232 437.645 406.54C435.244 406.782 432.917 407.34 430.721 408.382C428.413 409.462 427.613 410.169 429.679 412.03C434.239 416.144 439.339 420.145 445.761 420.201C445.761 420.201 445.761 420.201 445.78 420.22C445.854 420.294 445.947 420.331 446.022 420.35C446.189 420.462 446.412 420.499 446.617 420.424C446.952 420.406 447.287 420.276 447.604 420.108C454.77 418.693 461.043 414.599 466.869 410.355C469.307 408.587 466.329 407.582 464.468 407.266L464.505 407.247Z" fill="#DAEBFF"/>
<path d="M464.505 407.247C462.718 406.949 460.875 407.042 459.163 407.564C458.958 407.619 458.697 407.694 458.437 407.768C459.442 405.051 460.038 402.148 460.764 399.318C460.894 398.835 460.41 398.332 459.907 398.593C457.785 399.709 455.794 401.031 453.97 402.52C453.635 398.09 450.824 393.977 448.832 390.143C448.627 389.752 448.032 389.678 447.79 390.068C445.891 393.028 444.551 396.192 443.751 399.579C443.341 398.965 442.894 398.388 442.392 397.848C441.387 396.75 439.172 394.498 437.496 394.87C435.71 395.28 436.491 398.276 436.584 399.523C436.771 401.887 437.087 404.232 437.645 406.54C435.244 406.782 432.917 407.34 430.721 408.382C428.413 409.462 427.613 410.169 429.679 412.03C434.239 416.144 439.339 420.145 445.761 420.201C445.761 420.201 445.761 420.201 445.78 420.22C445.854 420.294 445.947 420.331 446.022 420.35C446.189 420.462 446.412 420.499 446.617 420.424C446.952 420.406 447.287 420.276 447.604 420.108C454.77 418.693 461.043 414.599 466.869 410.355C469.307 408.587 466.329 407.582 464.468 407.266L464.505 407.247ZM433.29 413.538C432.322 412.756 431.093 411.937 430.33 410.951C429.902 410.393 429.697 410.616 430.144 410.002C430.386 409.667 431.224 409.443 431.577 409.294C433.606 408.382 435.765 407.88 437.962 407.675C437.98 407.75 437.999 407.824 438.018 407.917C438.892 410.914 440.214 413.706 442.02 416.181C439.283 414.859 436.882 412.961 434.946 410.579C434.835 410.448 434.369 410.579 434.481 410.728C436.64 413.389 439.376 415.436 442.485 416.795C443.062 417.521 443.658 418.228 444.328 418.88C440.158 418.414 436.529 416.2 433.271 413.538H433.29ZM446.263 418.265C444.346 412.98 442.541 407.638 440.866 402.259C440.791 402.036 440.307 402.129 440.382 402.352C442.094 407.806 443.918 413.222 445.873 418.582C445.91 418.675 446.022 418.712 446.133 418.694C446.096 418.731 446.059 418.768 446.022 418.805C445.482 418.321 444.961 417.819 444.477 417.279C444.495 417.242 444.477 417.205 444.402 417.167H444.365C442.355 414.952 440.847 412.328 439.805 409.499C439.488 408.662 439.246 407.806 439.004 406.931C439.004 406.838 438.986 406.763 438.93 406.689C438.632 405.516 438.39 404.344 438.204 403.171C438.036 402.11 437.906 401.049 437.813 399.989C437.757 399.337 437.72 398.667 437.683 398.016C437.645 397.308 437.31 396.713 438.092 396.471C439.767 395.987 442.187 399.356 442.932 400.547C444.048 402.315 444.774 404.306 445.296 406.317C445.686 407.843 446.059 409.462 446.319 411.118C446.319 411.212 446.319 411.305 446.357 411.379C446.692 413.705 446.766 416.069 446.245 418.284L446.263 418.265ZM447.808 408.643C447.808 408.476 447.808 408.327 447.808 408.159C447.808 407.545 447.808 406.912 447.808 406.298C447.808 405.349 447.864 404.4 447.92 403.432C448.032 401.533 448.199 399.635 448.441 397.736C448.479 397.476 447.976 397.495 447.957 397.736C447.678 399.951 447.473 402.166 447.38 404.381C447.343 405.349 447.324 406.317 447.306 407.284C447.306 407.75 447.194 408.382 447.25 408.941C446.859 407.098 446.357 405.33 445.798 403.73C445.482 402.818 445.091 401.924 444.644 401.049C445.296 397.662 446.505 394.517 448.255 391.576C450.265 395.242 452.853 399.263 452.797 403.469C450.973 405.07 449.335 406.875 447.864 408.829C447.864 408.755 447.864 408.699 447.827 408.624L447.808 408.643ZM447.399 418.824C447.566 418.154 447.697 417.447 447.771 416.739C450.526 413.594 453.039 410.244 455.254 406.707C455.403 406.465 454.919 406.41 454.807 406.596C452.741 409.909 450.414 413.035 447.864 415.995C447.976 414.413 447.901 412.794 447.678 411.174C449.372 408.643 451.345 406.372 453.597 404.4C453.765 404.362 453.895 404.251 453.97 404.083C455.608 402.669 457.394 401.403 459.293 400.324C458.642 403.041 458.065 405.889 456.948 408.457C456.743 408.624 456.575 408.829 456.501 409.09C456.464 409.183 456.464 409.294 456.501 409.406C456.203 409.983 455.887 410.541 455.515 411.081C454.36 412.775 452.909 414.245 451.364 415.585C450.675 416.181 449.986 416.739 449.26 417.279C449.037 417.446 448.106 418.303 447.399 418.824ZM465.566 409.797C465.119 410.113 464.691 410.411 464.244 410.728C463.053 411.565 461.843 412.384 460.615 413.166C457.246 415.306 453.728 417.167 449.912 418.284C449.949 418.247 450.005 418.21 450.042 418.191C451.047 417.409 452.034 416.609 452.983 415.734C455.682 413.761 458.493 411.937 461.396 410.281C461.62 410.151 461.136 410.151 461.024 410.206C458.697 411.528 456.427 412.961 454.23 414.487C454.602 414.096 454.956 413.705 455.31 413.296C456.24 412.198 456.948 411.007 457.562 409.778C457.674 409.723 457.748 409.611 457.785 409.481C457.785 409.443 457.785 409.406 457.804 409.369C457.804 409.313 457.804 409.276 457.804 409.22C457.804 409.22 457.804 409.183 457.823 409.164C458.623 408.569 461.341 408.289 461.955 408.252C463.09 408.196 465.119 408.159 466.05 408.866C466.236 408.922 466.422 408.978 466.608 409.015C466.255 409.257 465.92 409.518 465.566 409.76V409.797Z" fill="#1B224C"/>
<path d="M83.0908 421.616C81.3039 421.318 79.4612 421.411 77.7487 421.932C77.544 421.988 77.2834 422.062 77.0228 422.137C78.0279 419.419 78.6236 416.516 79.3495 413.687C79.4798 413.203 78.9958 412.7 78.4933 412.961C76.3713 414.078 74.3796 415.399 72.5555 416.888C72.2204 412.459 69.4098 408.345 67.4181 404.511C67.2134 404.12 66.6177 404.046 66.3757 404.437C64.4772 407.396 63.137 410.56 62.3366 413.947C61.9271 413.333 61.4803 412.756 60.9778 412.217C59.9726 411.118 57.7576 408.866 56.0824 409.239C54.2955 409.648 55.0772 412.645 55.1703 413.892C55.3564 416.255 55.6729 418.6 56.2313 420.908C53.8301 421.15 51.5034 421.709 49.307 422.751C46.9989 423.83 46.1985 424.538 48.2646 426.399C52.825 430.512 57.9251 434.514 64.3469 434.569C64.3469 434.569 64.3469 434.569 64.3655 434.588C64.4399 434.663 64.533 434.7 64.6074 434.718C64.775 434.83 64.9983 434.867 65.2031 434.793C65.5381 434.774 65.8732 434.644 66.1896 434.476C73.3559 433.062 79.6287 428.967 85.4548 424.724C87.8932 422.956 84.915 421.951 83.0536 421.634L83.0908 421.616Z" fill="#DAEBFF"/>
<path d="M83.0908 421.616C81.3039 421.318 79.4612 421.411 77.7487 421.932C77.544 421.988 77.2834 422.062 77.0228 422.137C78.0279 419.419 78.6236 416.516 79.3495 413.687C79.4798 413.203 78.9958 412.7 78.4933 412.961C76.3713 414.078 74.3796 415.399 72.5555 416.888C72.2204 412.459 69.4098 408.345 67.4181 404.511C67.2134 404.12 66.6177 404.046 66.3757 404.437C64.4772 407.396 63.137 410.56 62.3366 413.947C61.9271 413.333 61.4803 412.756 60.9778 412.217C59.9726 411.118 57.7576 408.866 56.0824 409.239C54.2955 409.648 55.0772 412.645 55.1703 413.892C55.3564 416.255 55.6729 418.6 56.2313 420.908C53.8301 421.15 51.5034 421.709 49.307 422.751C46.9989 423.83 46.1985 424.538 48.2646 426.399C52.825 430.512 57.9251 434.514 64.3469 434.569C64.3469 434.569 64.3469 434.569 64.3655 434.588C64.4399 434.663 64.533 434.7 64.6074 434.718C64.775 434.83 64.9983 434.867 65.2031 434.793C65.5381 434.774 65.8732 434.644 66.1896 434.476C73.3559 433.062 79.6287 428.967 85.4548 424.724C87.8932 422.956 84.915 421.951 83.0536 421.634L83.0908 421.616ZM51.8757 427.906C50.9078 427.125 49.6793 426.306 48.9161 425.319C48.488 424.761 48.2832 424.984 48.73 424.37C48.972 424.035 49.8096 423.812 50.1632 423.663C52.1921 422.751 54.3513 422.248 56.5477 422.044C56.5663 422.118 56.5849 422.193 56.6036 422.286C57.4784 425.282 58.8 428.074 60.6055 430.549C57.8693 429.228 55.4681 427.329 53.5323 424.947C53.4206 424.817 52.9553 424.947 53.067 425.096C55.2262 427.757 57.9624 429.805 61.0709 431.163C61.6479 431.889 62.2435 432.597 62.9136 433.248C58.7441 432.783 55.1145 430.568 51.8571 427.906H51.8757ZM64.8494 432.615C62.9322 427.329 61.1267 421.988 59.4515 416.609C59.377 416.386 58.893 416.479 58.9675 416.702C60.68 422.155 62.5041 427.571 64.4585 432.932C64.4958 433.025 64.6075 433.062 64.7191 433.043C64.6819 433.081 64.6447 433.118 64.6074 433.155C64.0677 432.671 63.5465 432.169 63.0625 431.629C63.0811 431.592 63.0625 431.554 62.9881 431.517H62.9508C60.9406 429.302 59.4328 426.678 58.3905 423.849C58.074 423.011 57.8321 422.155 57.5901 421.281C57.5901 421.188 57.5715 421.113 57.5156 421.039C57.2178 419.866 56.9758 418.694 56.7897 417.521C56.6222 416.46 56.4919 415.399 56.3988 414.338C56.343 413.687 56.3057 413.017 56.2685 412.365C56.2313 411.658 55.8962 411.063 56.678 410.821C58.3533 410.337 60.773 413.706 61.5176 414.897C62.6344 416.665 63.3603 418.656 63.8815 420.666C64.2724 422.193 64.6447 423.812 64.9053 425.468C64.9053 425.561 64.9053 425.654 64.9425 425.729C65.2775 428.055 65.352 430.419 64.8308 432.634L64.8494 432.615ZM66.3944 423.011C66.3944 422.844 66.3944 422.695 66.3944 422.528C66.3944 421.913 66.3944 421.281 66.3944 420.666C66.3944 419.717 66.4502 418.768 66.506 417.8C66.6177 415.902 66.7852 414.003 67.0272 412.105C67.0645 411.844 66.5619 411.863 66.5433 412.105C66.2641 414.32 66.0593 416.535 65.9662 418.749C65.929 419.717 65.9104 420.685 65.8918 421.653C65.8918 422.118 65.7801 422.751 65.836 423.309C65.4451 421.467 64.9425 419.699 64.3841 418.098C64.0677 417.186 63.6768 416.293 63.23 415.418C63.8815 412.03 65.0914 408.885 66.8411 405.944C68.8514 409.611 71.4387 413.631 71.3828 417.837C69.5587 419.438 67.9207 421.243 66.4502 423.198C66.4502 423.123 66.4502 423.067 66.413 422.993L66.3944 423.011ZM65.9849 433.192C66.1524 432.522 66.2827 431.815 66.3571 431.108C69.112 427.962 71.6248 424.612 73.8398 421.076C73.9887 420.834 73.5048 420.778 73.3931 420.964C71.327 424.277 69.0003 427.404 66.4502 430.363C66.5619 428.781 66.4874 427.162 66.2641 425.543C67.9579 423.011 69.931 420.741 72.1832 418.768C72.3507 418.731 72.481 418.619 72.5555 418.452C74.1935 417.037 75.9804 415.771 77.879 414.692C77.2275 417.409 76.6505 420.257 75.5337 422.825C75.3289 422.993 75.1614 423.198 75.087 423.458C75.0497 423.551 75.0497 423.663 75.087 423.775C74.7891 424.352 74.4727 424.91 74.1004 425.45C72.9464 427.143 71.4945 428.614 69.9496 429.954C69.2609 430.549 68.5722 431.108 67.8462 431.647C67.6229 431.815 66.6922 432.671 65.9849 433.192ZM84.1518 424.165C83.7051 424.482 83.277 424.78 82.8302 425.096C81.639 425.934 80.4291 426.752 79.2006 427.534C75.8315 429.675 72.3135 431.536 68.4977 432.652C68.5349 432.615 68.5908 432.578 68.628 432.559C69.6331 431.778 70.6197 430.977 71.569 430.103C74.268 428.13 77.0786 426.306 79.9824 424.649C80.2057 424.519 79.7218 424.519 79.6101 424.575C77.2834 425.896 75.0125 427.329 72.8161 428.856C73.1884 428.465 73.542 428.074 73.8957 427.664C74.8264 426.566 75.5337 425.394 76.1479 424.147C76.2596 424.091 76.3341 423.979 76.3713 423.849V423.737C76.3713 423.737 76.4085 423.644 76.4085 423.588C76.4085 423.588 76.4085 423.551 76.4271 423.533C77.2275 422.937 79.9451 422.658 80.5594 422.621C81.6948 422.565 83.7237 422.528 84.6544 423.235C84.8405 423.291 85.0267 423.346 85.2128 423.384C84.8591 423.626 84.5241 423.886 84.1704 424.128L84.1518 424.165Z" fill="#1B224C"/>
<path d="M300.071 375.346C297.224 374.77 294.245 374.844 291.453 375.57C291.118 375.663 290.709 375.756 290.281 375.868C292.049 371.55 293.129 366.897 294.45 362.374C294.673 361.611 293.929 360.755 293.129 361.146C289.648 362.839 286.39 364.849 283.375 367.157C283.04 360.01 278.74 353.254 275.706 346.963C275.39 346.312 274.44 346.182 274.031 346.796C270.848 351.449 268.521 356.474 267.069 361.89C266.436 360.885 265.748 359.936 264.985 359.042C263.421 357.218 259.959 353.496 257.26 354.017C254.356 354.576 255.473 359.452 255.566 361.481C255.752 365.277 256.143 369.074 256.925 372.815C253.053 373.076 249.275 373.876 245.701 375.421C241.941 377.04 240.601 378.138 243.858 381.246C251.006 388.077 258.991 394.796 269.322 395.205C269.322 395.205 269.34 395.224 269.359 395.243C269.489 395.354 269.619 395.41 269.75 395.447C270.01 395.652 270.383 395.708 270.718 395.615C271.257 395.615 271.797 395.429 272.318 395.15C283.933 393.233 294.227 386.942 303.813 380.409C307.833 377.673 303.068 375.923 300.109 375.328L300.071 375.346Z" fill="#DAEBFF"/>
<path d="M300.071 375.346C297.224 374.77 294.245 374.844 291.453 375.57C291.118 375.663 290.709 375.756 290.281 375.868C292.049 371.55 293.129 366.897 294.45 362.374C294.673 361.611 293.929 360.755 293.129 361.146C289.648 362.839 286.39 364.849 283.375 367.157C283.04 360.01 278.74 353.254 275.706 346.963C275.39 346.312 274.44 346.182 274.031 346.796C270.848 351.449 268.521 356.474 267.069 361.89C266.436 360.885 265.748 359.936 264.985 359.042C263.421 357.218 259.959 353.496 257.26 354.017C254.356 354.576 255.473 359.452 255.566 361.481C255.752 365.277 256.143 369.074 256.925 372.815C253.053 373.076 249.275 373.876 245.701 375.421C241.941 377.04 240.601 378.138 243.858 381.246C251.006 388.077 258.991 394.796 269.322 395.205C269.322 395.205 269.34 395.224 269.359 395.243C269.489 395.354 269.619 395.41 269.75 395.447C270.01 395.652 270.383 395.708 270.718 395.615C271.257 395.615 271.797 395.429 272.318 395.15C283.933 393.233 294.227 386.942 303.813 380.409C307.833 377.673 303.068 375.923 300.109 375.328L300.071 375.346ZM249.535 383.927C248.028 382.605 246.073 381.228 244.9 379.627C244.23 378.715 243.895 379.05 244.64 378.082C245.031 377.561 246.408 377.245 246.985 377.003C250.298 375.644 253.779 374.918 257.353 374.732C257.39 374.863 257.409 374.993 257.446 375.123C258.693 379.981 260.685 384.559 263.477 388.617C259.14 386.346 255.38 383.182 252.365 379.236C252.197 379.013 251.434 379.218 251.62 379.46C254.97 383.834 259.27 387.277 264.203 389.622C265.096 390.813 266.027 391.967 267.069 393.065C260.387 392.097 254.635 388.375 249.554 383.927H249.535ZM270.196 392.153C267.367 383.536 264.743 374.863 262.286 366.134C262.193 365.78 261.392 365.91 261.485 366.245C263.961 375.105 266.641 383.889 269.508 392.637C269.564 392.786 269.75 392.842 269.917 392.842C269.861 392.898 269.787 392.935 269.731 393.009C268.875 392.209 268.093 391.371 267.33 390.497C267.367 390.441 267.349 390.366 267.218 390.31C267.2 390.31 267.162 390.292 267.144 390.273C264.017 386.607 261.727 382.307 260.201 377.71C259.754 376.333 259.382 374.937 259.047 373.541C259.047 373.392 259.01 373.262 258.954 373.15C258.526 371.27 258.209 369.353 257.967 367.436C257.763 365.724 257.595 364.012 257.502 362.281C257.446 361.22 257.409 360.159 257.372 359.08C257.353 357.944 256.85 356.958 258.116 356.623C260.834 355.934 264.557 361.481 265.692 363.416C267.404 366.32 268.465 369.54 269.21 372.815C269.768 375.291 270.29 377.915 270.625 380.576C270.606 380.725 270.625 380.856 270.68 381.005C271.109 384.764 271.109 388.58 270.159 392.116L270.196 392.153ZM273.137 376.761V375.998C273.175 374.993 273.212 374.006 273.268 373.001C273.342 371.475 273.454 369.93 273.584 368.404C273.845 365.352 274.236 362.3 274.72 359.266C274.775 358.856 273.994 358.875 273.938 359.229C273.379 362.765 272.951 366.32 272.691 369.893C272.579 371.457 272.486 373.001 272.43 374.565C272.411 375.291 272.207 376.333 272.263 377.208C271.741 374.23 270.997 371.345 270.178 368.739C269.712 367.25 269.135 365.78 268.447 364.384C269.675 358.968 271.76 353.98 274.72 349.327C277.772 355.339 281.737 361.927 281.439 368.702C278.424 371.196 275.687 374.006 273.23 377.077C273.23 376.966 273.231 376.873 273.193 376.742L273.137 376.761ZM271.965 393.121C272.281 392.041 272.505 390.925 272.672 389.789C277.27 384.876 281.458 379.609 285.199 374.006C285.441 373.634 284.678 373.523 284.473 373.82C280.974 379.05 277.065 383.964 272.821 388.598C273.082 386.067 273.026 383.443 272.765 380.837C275.613 376.854 278.926 373.299 282.63 370.21C282.891 370.154 283.114 369.986 283.245 369.726C285.962 367.529 288.866 365.594 291.993 363.919C290.82 368.255 289.741 372.815 287.824 376.891C287.489 377.152 287.209 377.487 287.079 377.878C287.023 378.045 287.023 378.213 287.06 378.399C286.558 379.311 286.018 380.204 285.404 381.042C283.468 383.722 281.067 385.992 278.498 388.077C277.381 388.989 276.209 389.864 275.036 390.701C274.664 390.962 273.119 392.302 271.965 393.102V393.121ZM301.672 379.497C300.946 379.981 300.239 380.446 299.513 380.911C297.559 382.196 295.567 383.443 293.557 384.652C288.047 387.928 282.258 390.739 276.078 392.358C276.153 392.302 276.209 392.246 276.283 392.209C277.94 390.999 279.578 389.752 281.123 388.412C285.571 385.36 290.169 382.587 294.953 380.074C295.306 379.888 294.525 379.869 294.357 379.944C290.541 381.954 286.818 384.15 283.207 386.514C283.822 385.918 284.417 385.304 284.994 384.652C286.539 382.94 287.749 381.06 288.792 379.106C288.959 379.013 289.108 378.846 289.164 378.641C289.164 378.585 289.201 378.529 289.201 378.473C289.22 378.399 289.238 378.324 289.238 378.25C289.238 378.231 289.257 378.194 289.276 378.176C290.578 377.245 294.99 376.929 295.976 376.929C297.801 376.91 301.058 376.928 302.528 378.101C302.826 378.194 303.105 378.287 303.403 378.38C302.826 378.752 302.249 379.143 301.691 379.516L301.672 379.497Z" fill="#1B224C"/>
<path d="M273.472 370.731C271.182 371.084 268.986 371.959 267.087 373.281C266.864 373.448 266.584 373.616 266.287 373.82C266.417 370.117 265.952 366.338 265.691 362.597C265.654 361.965 264.853 361.537 264.369 362.058C262.247 364.273 260.368 366.673 258.73 369.242C256.514 363.993 251.433 360.122 247.45 356.269C247.04 355.879 246.296 356.046 246.147 356.604C245.048 360.96 244.695 365.352 245.104 369.8C244.36 369.223 243.578 368.702 242.759 368.237C241.084 367.306 237.491 365.482 235.611 366.618C233.601 367.827 235.76 371.178 236.393 372.648C237.566 375.44 238.906 378.176 240.525 380.744C237.696 382.01 235.109 383.648 232.856 385.788C230.493 388.021 229.804 389.212 233.08 390.646C240.302 393.791 248.12 396.601 255.937 394.07C255.937 394.07 255.956 394.07 255.975 394.07C256.105 394.126 256.217 394.126 256.328 394.126C256.57 394.2 256.868 394.126 257.091 393.977C257.482 393.81 257.836 393.53 258.171 393.195C266.324 388.561 272.28 381.042 277.641 373.541C279.893 370.396 275.854 370.396 273.472 370.768V370.731Z" fill="#DAEBFF"/>
<path d="M273.472 370.731C271.182 371.084 268.986 371.959 267.087 373.281C266.864 373.448 266.584 373.616 266.287 373.82C266.417 370.117 265.952 366.338 265.691 362.597C265.654 361.965 264.853 361.537 264.369 362.058C262.247 364.273 260.368 366.673 258.73 369.242C256.514 363.993 251.433 360.122 247.45 356.269C247.04 355.879 246.296 356.046 246.147 356.604C245.048 360.96 244.695 365.352 245.104 369.8C244.36 369.223 243.578 368.702 242.759 368.237C241.084 367.306 237.491 365.482 235.611 366.618C233.601 367.827 235.76 371.178 236.393 372.648C237.566 375.44 238.906 378.176 240.525 380.744C237.696 382.01 235.109 383.648 232.856 385.788C230.493 388.021 229.804 389.212 233.08 390.646C240.302 393.791 248.12 396.601 255.937 394.07C255.937 394.07 255.956 394.07 255.975 394.07C256.105 394.126 256.217 394.126 256.328 394.126C256.57 394.2 256.868 394.126 257.091 393.977C257.482 393.81 257.836 393.53 258.171 393.195C266.324 388.561 272.28 381.042 277.641 373.541C279.893 370.396 275.854 370.396 273.472 370.768V370.731ZM238.068 391.036C236.579 390.459 234.755 389.976 233.415 389.101C232.67 388.598 232.521 388.952 232.801 388.021C232.95 387.519 233.899 386.905 234.253 386.57C236.356 384.653 238.757 383.145 241.363 382.01C241.419 382.103 241.475 382.177 241.53 382.27C243.801 385.546 246.538 388.431 249.758 390.701C245.905 390.199 242.201 388.859 238.869 386.756C238.683 386.644 238.161 386.998 238.366 387.128C242.07 389.473 246.221 390.869 250.558 391.26C251.545 391.911 252.568 392.507 253.648 393.047C248.399 394.163 243.075 392.953 238.05 391.036H238.068ZM255.77 391.502C251.284 385.844 246.928 380.093 242.703 374.249C242.536 374.007 241.977 374.323 242.145 374.546C246.426 380.484 250.856 386.309 255.398 392.042C255.472 392.153 255.64 392.135 255.77 392.079C255.733 392.135 255.695 392.19 255.677 392.265C254.821 391.911 254.002 391.483 253.183 391.036C253.183 390.981 253.183 390.925 253.052 390.925C253.034 390.925 253.015 390.925 252.996 390.925C249.646 389.045 246.761 386.458 244.341 383.461C243.634 382.568 242.964 381.619 242.331 380.651C242.294 380.539 242.238 380.446 242.145 380.372C241.307 379.069 240.544 377.748 239.837 376.37C239.204 375.16 238.627 373.914 238.068 372.648C237.733 371.866 237.417 371.085 237.1 370.303C236.765 369.465 236.132 368.851 236.989 368.274C238.831 367.008 243.131 370.135 244.527 371.271C246.612 372.964 248.287 375.086 249.739 377.319C250.837 379.013 251.954 380.837 252.941 382.736C252.959 382.847 253.015 382.959 253.09 383.033C254.448 385.732 255.491 388.58 255.77 391.483V391.502ZM253.741 379.199C253.667 379.013 253.611 378.808 253.536 378.622C253.276 377.878 253.034 377.115 252.792 376.352C252.419 375.179 252.084 374.007 251.768 372.834C251.117 370.47 250.577 368.088 250.093 365.706C250.037 365.389 249.441 365.613 249.497 365.892C250.056 368.684 250.707 371.457 251.489 374.211C251.824 375.402 252.196 376.594 252.587 377.766C252.773 378.325 252.903 379.143 253.201 379.795C251.991 377.729 250.651 375.775 249.311 374.044C248.548 373.057 247.71 372.127 246.817 371.271C246.24 366.897 246.426 362.579 247.357 358.298C251.284 361.946 256.068 365.78 257.706 370.917C256.142 373.616 254.876 376.463 253.871 379.441C253.834 379.367 253.797 379.292 253.741 379.218V379.199ZM257.352 391.725C257.296 390.832 257.166 389.938 256.961 389.045C259.046 384.113 260.721 379.013 261.987 373.802C262.08 373.448 261.466 373.578 261.391 373.858C260.219 378.734 258.655 383.48 256.756 388.114C256.254 386.16 255.491 384.206 254.579 382.326C255.602 378.566 257.11 375.012 259.027 371.68C259.213 371.568 259.325 371.382 259.344 371.14C260.758 368.758 262.415 366.506 264.276 364.403C264.593 367.976 265.04 371.661 264.742 375.235C264.556 375.533 264.444 375.849 264.463 376.184C264.463 376.314 264.518 376.445 264.574 376.575C264.463 377.394 264.295 378.213 264.072 379.013C263.364 381.544 262.192 383.908 260.851 386.16C260.256 387.147 259.642 388.114 258.99 389.064C258.785 389.361 258.004 390.776 257.352 391.706V391.725ZM275.798 373.374C275.389 373.932 274.979 374.49 274.57 375.03C273.453 376.519 272.317 378.008 271.145 379.46C267.925 383.424 264.388 387.109 260.219 390.031C260.256 389.976 260.293 389.92 260.33 389.864C261.242 388.505 262.117 387.128 262.899 385.695C265.375 382.196 268.055 378.846 270.921 375.663C271.126 375.421 270.549 375.626 270.456 375.737C268.148 378.287 265.989 380.949 263.923 383.703C264.221 383.089 264.5 382.456 264.742 381.824C265.412 380.111 265.821 378.38 266.045 376.631C266.156 376.501 266.212 376.352 266.194 376.184V376.054C266.194 376.054 266.156 375.924 266.138 375.868C266.138 375.849 266.138 375.831 266.138 375.793C266.864 374.732 270.065 373.299 270.791 373.02C272.15 372.499 274.588 371.643 276.003 372.09C276.245 372.09 276.487 372.071 276.729 372.052C276.413 372.499 276.077 372.946 275.761 373.374H275.798Z" fill="#1B224C"/>
<path d="M389.362 350.258C387.91 360.141 382.308 369.074 374.025 374.714C373.727 374.639 373.429 374.751 373.224 374.956C370.711 373.932 369.557 370.88 368.068 368.721C366.84 366.934 365.369 365.854 363.396 364.998C363.005 364.831 362.633 364.663 362.242 364.496C372.312 361.983 381.582 357.088 389.362 350.239V350.258Z" fill="#DAEBFF"/>
<path d="M311.016 354.985C310.644 349.848 310.792 343.259 313.585 338.681C313.994 339.835 313.864 342.012 313.957 342.831C314.087 343.911 314.273 344.99 314.515 346.051C315.074 348.471 315.967 350.872 317.27 352.993C319.466 356.567 322.761 359.284 326.763 360.475C323.599 363.137 320.937 366.301 318.871 369.819C313.771 366.617 311.425 360.81 311.016 354.966V354.985Z" fill="#DAEBFF"/>
<path d="M372.219 390.552C371.14 392.19 369.204 395.373 367.324 396.248C365.369 397.141 364.643 395.224 362.838 395.466C359.432 395.95 359.729 400.677 358.631 402.967C356.602 407.154 352.377 410.523 348.915 413.482C347.742 414.487 343.722 418.75 342.4 417.577C342.27 417.465 342.14 416.479 341.991 416.237C341.749 415.846 341.414 415.53 341.023 415.269C339.05 413.91 336.462 414.674 334.992 416.367C333.95 417.577 333.484 419.122 333 420.611C332.367 422.546 331.846 422.9 329.724 423.067C328.44 423.179 327.081 423.012 325.797 422.974C323.247 422.919 320.697 422.937 318.147 422.788C316.695 422.714 313.27 421.932 312.283 420.332C312.358 420.22 312.414 420.09 312.432 419.941C312.507 419.159 312.655 418.377 312.842 417.633C312.842 417.633 312.842 417.633 312.842 417.614C313.046 417.391 313.084 417.13 313.009 416.907C314.182 412.775 316.583 409.015 317.067 404.679C317.7 399.114 315.168 393.661 315.243 388.04C315.373 377.45 320.436 367.306 328.756 360.792C328.998 360.606 329.054 360.383 328.998 360.159C330.934 358.614 333.261 357.702 335.774 357.628C338.361 357.554 340.334 358.614 342.642 359.564C346.719 361.239 351.111 359.415 355.132 360.811C357.254 361.555 358.054 363.77 359.823 364.961C362.019 366.431 364.55 366.766 366.281 368.963C368.627 371.941 369.893 376.11 374.006 376.742C377.524 380.725 374.751 386.625 372.163 390.534L372.219 390.552Z" fill="#DAEBFF"/>
<path d="M391.111 348.341C391.167 347.652 390.255 347.391 389.808 347.801C381.525 355.562 371.362 360.922 360.287 363.416C360.157 363.323 360.026 363.211 359.915 363.1C359.058 362.281 358.537 361.22 357.607 360.476C356.229 359.377 354.498 359.005 352.786 358.912C350.459 358.782 348.114 359.191 345.787 358.875C343.33 358.54 341.301 357.014 338.9 356.455C334.935 355.543 330.877 356.679 327.806 359.229C327.769 359.229 327.732 359.191 327.694 359.191C322.259 357.777 318.481 353.384 316.712 348.192C315.837 345.623 315.428 342.943 315.26 340.244C315.167 338.83 315.223 337.583 313.939 336.764C313.567 336.522 313.138 336.727 312.897 337.043C309.062 342.199 308.895 350.741 309.695 356.846C310.44 362.616 313.12 368.088 318.146 371.215C315.744 375.7 314.255 380.707 313.864 385.844C313.678 388.3 313.753 390.757 314.088 393.195C314.553 396.62 315.8 399.989 315.689 403.469C315.54 408.252 312.841 412.403 311.556 416.925C310.309 418.619 310.626 420.946 312.152 422.472C314.628 424.984 319.225 424.407 322.408 424.482C324.865 424.538 327.322 424.612 329.779 424.649C331.063 424.668 332.422 424.817 333.372 423.775C334.358 422.695 334.488 420.983 334.972 419.68C335.438 418.47 336.033 417.298 337.187 416.628C337.839 416.237 338.341 416.088 339.105 416.218C340.501 416.442 340.501 417 340.947 418.34C341.859 421.113 344.093 419.364 345.75 418.098C349.361 415.325 352.823 412.31 355.987 409.053C358.779 406.168 360.268 403.432 361.255 399.579C361.367 399.132 361.497 398.388 361.776 398.034C364.289 395.038 363.619 397.457 364.605 397.904C364.94 398.053 365.201 398.351 365.573 398.444C367.118 398.872 368.421 397.439 369.389 396.49C374.005 391.93 380.632 382.196 375.513 376.091C375.513 375.961 375.457 375.83 375.383 375.719C384.373 369.391 390.162 359.377 391.167 348.396L391.111 348.341ZM311.017 354.985C310.644 349.848 310.793 343.26 313.585 338.681C313.995 339.835 313.864 342.013 313.957 342.831C314.088 343.911 314.274 344.99 314.516 346.051C315.074 348.471 315.968 350.872 317.271 352.994C319.467 356.567 322.762 359.284 326.764 360.476C323.599 363.137 320.938 366.301 318.871 369.819C313.771 366.617 311.426 360.811 311.017 354.966V354.985ZM372.218 390.552C371.139 392.19 369.203 395.373 367.323 396.248C365.368 397.141 364.643 395.224 362.837 395.466C359.431 395.95 359.729 400.677 358.63 402.967C356.601 407.154 352.376 410.523 348.914 413.482C347.741 414.487 343.721 418.749 342.399 417.577C342.269 417.465 342.139 416.479 341.99 416.237C341.748 415.846 341.413 415.53 341.022 415.269C339.049 413.91 336.461 414.673 334.991 416.367C333.949 417.577 333.483 419.122 332.999 420.611C332.627 421.746 332.273 422.342 331.64 422.658C331.547 422.546 331.268 422.49 331.008 422.583C330.207 422.397 329.407 422.23 328.606 422.044C328.588 421.504 328.606 420.964 328.606 420.443C328.569 419.717 328.681 420.387 328.513 419.364C328.458 419.029 327.471 419.271 327.527 419.624C327.527 420.052 327.545 420.462 327.564 420.89C326.187 423.012 325.07 423.291 324.232 421.765C323.376 420.76 323.544 420.518 323.562 419.252C323.562 418.842 322.669 419.066 322.576 419.382C322.203 420.722 321.459 423.365 319.281 422.621C317.438 421.988 318.425 420.108 318.816 418.898C318.946 418.489 317.978 418.824 317.866 418.954C317.475 419.401 317.475 419.941 317.159 420.35C315.354 422.658 313.902 422.379 312.803 420.183C312.748 420.052 312.561 420.015 312.375 420.052C312.375 420.015 312.394 419.996 312.394 419.959C312.468 419.177 312.617 418.396 312.803 417.651C312.803 417.651 312.803 417.651 312.803 417.633C313.008 417.409 313.045 417.149 312.971 416.925C314.144 412.794 316.545 409.034 317.029 404.697C317.662 399.132 315.13 393.679 315.205 388.058C315.335 377.468 320.398 367.325 328.718 360.811C328.96 360.624 329.016 360.401 328.96 360.178C330.896 358.633 333.223 357.721 335.735 357.647C338.323 357.572 340.296 358.633 342.604 359.582C346.68 361.257 351.073 359.433 355.094 360.829C357.216 361.574 358.016 363.788 359.784 364.98C361.981 366.45 364.512 366.785 366.243 368.981C368.589 371.959 369.854 376.128 373.968 376.761C377.486 380.744 374.713 386.644 372.125 390.552H372.218ZM374.024 374.714C373.726 374.639 373.428 374.751 373.223 374.956C370.711 373.932 369.557 370.88 368.067 368.721C366.839 366.934 365.368 365.854 363.395 364.998C363.005 364.831 362.632 364.663 362.241 364.496C372.311 361.983 381.581 357.088 389.362 350.239C387.91 360.122 382.307 369.056 374.024 374.695V374.714Z" fill="#1B224C"/>
<path d="M358.352 380.223C358.072 374.844 353.884 370.358 348.337 370.358C342.791 370.358 338.305 374.918 338.305 380.39C338.305 385.862 342.884 390.441 348.337 390.422C353.884 390.403 358.072 385.955 358.352 380.558C358.352 380.502 358.352 380.465 358.352 380.409C358.352 380.353 358.352 380.297 358.352 380.241V380.223ZM350.366 383.629C351.036 382.493 351.427 381.209 351.539 379.869C351.539 379.683 351.52 379.534 351.427 379.422C351.483 379.18 351.539 378.92 351.595 378.678C351.632 380.595 351.185 382.512 350.18 384.224C350.255 384.038 350.311 383.833 350.366 383.629ZM348.337 371.605C348.71 371.605 349.082 371.643 349.436 371.68C349.343 371.866 349.343 372.108 349.51 372.331C349.547 372.387 349.566 372.443 349.603 372.48C349.51 372.555 349.454 372.648 349.417 372.759C349.063 372.238 348.598 371.829 347.984 371.624C348.095 371.624 348.207 371.624 348.337 371.624V371.605ZM348.728 383.256C348.728 383.256 348.728 383.256 348.747 383.256C348.71 383.387 348.672 383.498 348.617 383.61C348.393 383.926 348.133 384.206 347.854 384.448C348.151 384.057 348.431 383.647 348.71 383.238L348.728 383.256ZM341.45 377.952C341.413 378.082 341.376 378.213 341.339 378.343C341.227 378.473 341.153 378.622 341.134 378.827C341.134 378.845 341.134 378.864 341.134 378.901C341.134 378.901 341.134 378.901 341.134 378.92C341.06 378.92 340.985 378.92 340.911 378.92C341.06 378.566 341.264 378.231 341.488 377.915C341.488 377.915 341.488 377.952 341.469 377.971L341.45 377.952ZM340.371 376.78C341.06 375.272 342.158 374.006 343.517 373.094C342.269 374.211 341.171 375.681 340.371 376.78ZM344.112 374.937C344.112 374.937 344.075 374.937 344.056 374.937C344.205 374.788 344.354 374.639 344.54 374.49C344.54 374.602 344.559 374.695 344.577 374.807C344.522 374.844 344.447 374.881 344.391 374.918C344.298 374.918 344.224 374.918 344.131 374.918L344.112 374.937ZM345.08 387.742C344.857 387.667 344.633 387.556 344.429 387.426C344.54 387.314 344.596 387.165 344.633 386.997C344.801 386.997 344.987 386.997 345.173 386.96C345.136 387.128 345.117 387.295 345.08 387.444C345.08 387.537 345.08 387.63 345.08 387.723V387.742ZM347.742 389.101C350.013 387.909 351.837 384.708 352.526 382.717C353.773 379.125 353.14 375.253 351.148 372.089C352.06 372.406 352.879 372.871 353.605 373.429C353.605 373.504 353.605 373.578 353.605 373.653C355.131 378.715 354.312 383.982 351.334 388.337C351.278 388.431 351.26 388.505 351.241 388.598C350.329 388.933 349.343 389.119 348.3 389.119C348.095 389.119 347.909 389.119 347.723 389.082L347.742 389.101ZM352.898 387.816C355.243 383.833 355.95 379.218 354.945 374.732C356.23 376.258 357.011 378.25 357.086 380.372C356.974 383.48 355.355 386.253 352.898 387.816Z" fill="#1B224C"/>
<path d="M347.165 393.903C340.408 392.228 336.071 386.235 336.499 379.292C336.537 378.827 335.531 378.995 335.513 379.385C335.066 386.607 339.571 392.767 346.588 394.517C346.96 394.61 347.742 394.052 347.165 393.903Z" fill="#1B224C"/>
<path d="M354.387 401.869C353.028 403.395 352.06 405.144 350.944 406.838C349.399 409.183 347.444 410.765 345.118 412.31C344.727 412.57 345.695 412.459 345.862 412.328C347.63 411.156 349.38 409.927 350.739 408.271C352.414 406.224 353.494 403.767 355.262 401.794C355.448 401.571 354.536 401.701 354.369 401.869H354.387Z" fill="#1B224C"/>
<path d="M360.473 394.703C360.268 394.647 359.933 394.759 359.784 394.889C359.431 395.205 359.058 395.503 358.705 395.82C358.537 395.969 358.612 396.08 358.798 396.136C359.002 396.192 359.338 396.08 359.486 395.95C359.84 395.634 360.212 395.336 360.566 395.019C360.734 394.87 360.659 394.759 360.473 394.703Z" fill="#1B224C"/>
<path d="M371.92 387.128C371.268 389.659 369.835 391.818 367.75 393.4C367.322 393.735 368.29 393.716 368.532 393.53C370.71 391.892 372.218 389.622 372.906 386.979C373 386.644 372.013 386.793 371.939 387.109L371.92 387.128Z" fill="#1B224C"/>
<path d="M327.843 409.09C327.024 407.284 326.689 405.498 326.652 403.525C326.652 402.278 326.987 400.659 326.298 399.523C325.535 398.276 323.823 398.127 322.576 398.649C320.64 399.467 320.044 401.571 319.746 403.469C319.132 407.34 318.313 410.709 316.303 414.022C316.135 413.985 315.931 414.022 315.8 414.096C314.572 414.86 315.205 416.107 316.433 416.442C319.132 417.186 321.85 415.66 324.437 415.92C326.075 416.088 327.732 417.819 329.221 416.069C330.933 414.059 328.7 410.97 327.862 409.09H327.843Z" fill="#1B224C"/>
<path d="M317.531 364.384C314.907 362.281 313.641 359.042 314.144 355.73C314.181 355.488 313.213 355.655 313.176 355.897C312.655 359.284 313.92 362.56 316.601 364.719C316.805 364.887 317.662 364.496 317.513 364.384H317.531Z" fill="#1B224C"/>
<path d="M372.684 370.47C370.19 369.353 369.724 365.408 366.728 365.259C366.504 365.259 365.611 365.668 366.095 365.687C368.812 365.836 369.52 369.837 371.884 370.88C372.107 370.973 373 370.619 372.684 370.489V370.47Z" fill="#1B224C"/>
<path d="M336.907 391.129C335.288 388.933 334.302 386.495 333.911 383.815C333.855 383.424 332.868 383.647 332.924 384.076C333.315 386.811 334.357 389.324 335.995 391.539C336.237 391.855 337.168 391.502 336.889 391.129H336.907Z" fill="#1B224C"/>
<path d="M326.56 393.419L326.243 393.102C326.039 392.897 325.108 393.251 325.331 393.456C325.443 393.567 325.555 393.679 325.648 393.772C325.852 393.977 326.783 393.623 326.56 393.419Z" fill="#1B224C"/>
<path d="M331.417 408.513C330.151 407.005 329.462 405.219 329.444 403.246C329.444 402.706 328.439 402.836 328.457 403.302C328.457 405.405 329.165 407.34 330.523 408.941C330.821 409.295 331.752 408.904 331.417 408.494V408.513Z" fill="#1B224C"/>
<path d="M326.708 366.953C321.496 372.313 318.034 378.92 316.619 386.253C316.619 386.309 317.55 386.272 317.606 385.993C319.02 378.734 322.445 372.164 327.601 366.859C327.787 366.673 326.875 366.785 326.726 366.953H326.708Z" fill="#1B224C"/>
<path d="M341.636 361.63C339.775 360.345 337.597 359.861 335.345 360.178C335.103 360.215 334.284 360.624 334.917 360.55C337.001 360.271 338.974 360.773 340.706 361.965C340.929 362.113 341.748 361.723 341.636 361.648V361.63Z" fill="#1B224C"/>
<path d="M383.125 360.718C381.934 362.207 380.743 363.714 379.551 365.203C379.272 365.557 380.259 365.501 380.463 365.24C381.655 363.751 382.846 362.244 384.037 360.755C384.316 360.401 383.33 360.457 383.125 360.718Z" fill="#1B224C"/>
<path d="M374.118 363.528C373.895 363.751 373.69 363.956 373.466 364.179C373.075 364.57 374.025 364.552 374.248 364.328C374.472 364.105 374.676 363.9 374.9 363.677C375.291 363.286 374.341 363.305 374.118 363.528Z" fill="#1B224C"/>
</g>
<defs>
<clipPath id="clip0_1071_215879">
<rect width="534.548" height="465" fill="white"/>
</clipPath>
</defs>
</svg>
