<svg xmlns="http://www.w3.org/2000/svg" width="20" height="23" viewBox="0 0 20 23" fill="none">
  <path fillRule="evenodd" clipRule="evenodd" d="M11.7701 0.5C13.0253 0.5 14.2122 1.07153 14.9949 2.05284L18.3498 6.25906C18.9326 6.98972 19.25 7.89662 19.25 8.83123V18.375C19.25 20.6532 17.4032 22.5 15.125 22.5H4.125C1.84683 22.5 0 20.6532 0 18.375V4.625C0 2.34683 1.84683 0.5 4.125 0.5H11.7701ZM13.8566 8.29842C12.6374 7.07926 10.709 6.95585 9.34837 7.99002C9.04608 8.21978 8.98728 8.65109 9.21704 8.95338C9.44681 9.25567 9.87812 9.31446 10.1804 9.0847C10.9954 8.46527 12.153 8.53935 12.8843 9.27069C13.6898 10.0761 13.6898 11.382 12.8843 12.1875L10.4608 14.6172L9.28147 15.7903L9.19315 15.8737C8.3819 16.5962 7.13987 16.5685 6.36318 15.7918C5.58649 15.0151 5.55875 13.7731 6.27996 12.9632L6.30867 12.9317L6.36627 12.8813L7.9392 11.3084L7.99916 11.255C8.26902 11.0413 8.66216 11.0591 8.91147 11.3084C9.17995 11.5769 9.17995 12.0122 8.91147 12.2807L7.35666 13.8355L7.30324 13.8954C7.08955 14.1653 7.10736 14.5584 7.35666 14.8078C7.62515 15.0762 8.06045 15.0762 8.32894 14.8078L9.88374 13.2529L9.96696 13.1648C10.6882 12.3549 10.6604 11.1128 9.88374 10.3361C9.07828 9.53068 7.77238 9.53068 6.96692 10.3361L6.36679 10.9366L6.30697 10.9902L5.87257 11.4243L5.39301 11.9006C4.04849 13.2452 4.04848 15.4217 5.39091 16.7641C6.73334 18.1065 8.90984 18.1065 10.2523 16.7641L11.842 15.184L11.8851 15.1354L13.8566 13.1598L13.9598 13.0521C15.1981 11.7034 15.1637 9.60551 13.8566 8.29842Z" fill="#8D90A5"/>
</svg>