<svg xmlns="http://www.w3.org/2000/svg" width="21" height="21" viewBox="0 0 21 21" fill="none">
  <path d="M5.53291 0.757324C5.93486 0.757324 6.26071 1.07069 6.26071 1.45725V2.86914C6.90629 2.8571 7.62991 2.8571 8.44411 2.8571H12.3257C13.1399 2.8571 13.8635 2.8571 14.5091 2.86914V1.45725C14.5091 1.07069 14.8349 0.757324 15.2369 0.757324C15.6388 0.757324 15.9648 1.07069 15.9648 1.45725V2.93107C17.3614 3.03863 18.2784 3.3026 18.952 3.95045C19.6257 4.5983 19.9002 5.48011 20.012 6.82334L20.0891 7.52327H1.65146H0.757812V6.82334C0.869654 5.48011 1.14415 4.5983 1.81779 3.95045C2.49145 3.3026 3.40838 3.03863 4.8051 2.93107V1.45725C4.8051 1.07069 5.13095 0.757324 5.53291 0.757324Z" fill="#8D90A5"/>
  <path d="M20.0892 13.0591V11.3017C20.0892 10.5644 20.0861 9.25009 20.0736 8.66553H0.767487C0.755009 9.25009 0.75817 10.5644 0.75817 11.3017V13.0591C0.75817 16.3728 0.75817 18.0297 1.89055 19.0591C3.02294 20.0886 4.84548 20.0886 8.49058 20.0886H12.3568C16.0019 20.0886 17.8244 20.0886 18.9569 19.0591C20.0892 18.0297 20.0892 16.3728 20.0892 13.0591Z" fill="#8D90A5"/>
</svg>