<svg xmlns="http://www.w3.org/2000/svg" width="21" height="15" viewBox="0 0 21 15" fill="none">
  <path d="M11.7967 8.86532C11.3832 9.1111 10.9082 9.24159 10.4235 9.24159C9.93883 9.24159 9.46383 9.1111 9.04959 8.86394L0.757812 3.95032V12.8731C0.757812 14.0123 1.68296 14.9443 2.82903 14.9443H18.018C19.164 14.9443 20.0892 14.0123 20.0892 12.8731V3.95032L11.7967 8.86532Z" fill="#8D90A5"/>
  <path d="M9.68429 7.79579C9.90798 7.92904 10.1627 7.99877 10.4237 7.99877C10.6847 7.99877 10.9401 7.92835 11.1624 7.79648L20.0818 2.51004C20.0411 1.40677 19.138 0.514771 18.0182 0.514771H2.82925C1.70941 0.514771 0.806359 1.40677 0.765625 2.51004L9.68429 7.79579Z" fill="#8D90A5"/>
</svg>