<svg xmlns="http://www.w3.org/2000/svg" width="20" height="20" viewBox="0 0 20 20" fill="none">
  <path fillRule="evenodd" clipRule="evenodd" d="M0.422496 3.14923C0.355469 3.50448 0.355469 3.93097 0.355469 4.78393V11.598C0.355469 15.2429 0.355469 17.0654 1.48779 18.1976C2.62012 19.33 4.44257 19.33 8.08747 19.33H11.9535C15.5983 19.33 17.4209 19.33 18.5531 18.1976C19.6855 17.0654 19.6855 15.2429 19.6855 11.598V9.46967C19.6855 6.92549 19.6855 5.6534 18.9417 4.82654C18.8734 4.75048 18.801 4.67809 18.725 4.60968C17.898 3.866 16.626 3.866 14.0818 3.866H13.7206C12.6056 3.866 12.0481 3.866 11.5286 3.71791C11.2432 3.63655 10.968 3.52261 10.7087 3.37833C10.2367 3.11568 9.84244 2.72146 9.05398 1.93301L9.05397 1.933L8.5221 1.40118L8.5218 1.40088C8.25776 1.13682 8.12569 1.00474 7.98689 0.889673C7.38823 0.393404 6.65381 0.0891983 5.87957 0.0167978C5.69998 0 5.51312 0 5.1394 0C4.28644 0 3.85995 0 3.5047 0.0670268C1.94083 0.36209 0.717558 1.58536 0.422496 3.14923ZM10.987 7.0071C10.5866 7.0071 10.2621 7.33164 10.2621 7.73198C10.2621 8.1323 10.5866 8.45685 10.987 8.45685H15.8195C16.2198 8.45685 16.5443 8.1323 16.5443 7.73198C16.5443 7.33164 16.2198 7.0071 15.8195 7.0071H10.987Z" fill="#8D90A5"/>
  <path d="M14.8381 0.986791C14.6898 0.966553 14.513 0.966553 14.1595 0.966553H10.0195L10.377 1.33684C11.0207 2.0036 11.2682 2.25249 11.554 2.41723C11.72 2.51286 11.896 2.58838 12.0786 2.6423C12.3932 2.73518 12.7381 2.74045 13.6484 2.74045H13.9716C14.9404 2.74043 15.7214 2.74042 16.3394 2.8209C16.4935 2.84097 16.6421 2.86652 16.785 2.89955C16.6056 1.89742 15.8227 1.12105 14.8381 0.986791Z" fill="#8D90A5"/>
</svg>