<svg xmlns="http://www.w3.org/2000/svg" width="24" height="22" viewBox="0 0 24 22" fill="none">
  <path fillRule="evenodd" clipRule="evenodd" d="M9.7949 1.76939C10.6312 1.87393 11.2245 2.63669 11.12 3.47304L10.7621 6.33604H14.808L15.2132 3.09445C15.3178 2.25809 16.0805 1.66484 16.9169 1.76939C17.7532 1.87393 18.3464 2.63669 18.242 3.47304L17.884 6.33604H20.2884C21.1312 6.33604 21.8145 7.01931 21.8145 7.86218C21.8145 8.70504 21.1312 9.38831 20.2884 9.38831H17.5025L16.9938 13.458H19.7797C20.6225 13.458 21.3058 14.1413 21.3058 14.9841C21.3058 15.827 20.6225 16.5102 19.7797 16.5102H16.6122L16.2071 19.7519C16.1025 20.5882 15.3398 21.1814 14.5034 21.0769C13.6671 20.9724 13.0738 20.2096 13.1783 19.3733L13.5363 16.5102H9.4903L9.0851 19.7519C8.98056 20.5882 8.21782 21.1814 7.38147 21.0769C6.54511 20.9724 5.95186 20.2096 6.05641 19.3733L6.41427 16.5102H4.51832C3.67546 16.5102 2.99219 15.827 2.99219 14.9841C2.99219 14.1413 3.67546 13.458 4.51832 13.458H6.79581L7.30452 9.38831H5.02704C4.18417 9.38831 3.5009 8.70504 3.5009 7.86218C3.5009 7.01931 4.18417 6.33604 5.02704 6.33604H7.68605L8.09125 3.09445C8.19579 2.25809 8.95855 1.66484 9.7949 1.76939ZM13.9178 13.458L14.4265 9.38831H10.3805L9.87184 13.458H13.9178Z" fill="#8D90A5"/>
</svg>