<svg xmlns="http://www.w3.org/2000/svg" width="21" height="21" viewBox="0 0 21 21" fill="none">
  <path d="M19.9922 5.02861C19.896 4.5295 19.7261 4.0416 19.4842 3.58029C19.2429 3.11954 18.9273 2.68768 18.5426 2.30305C18.0305 1.79038 17.4324 1.4016 16.7958 1.14319C15.8407 0.757354 14.8012 0.66062 13.803 0.854125C13.3039 0.950896 12.8154 1.11842 12.3547 1.3609C11.8951 1.60337 11.462 1.91781 11.0774 2.30305L8.57601 4.80444C8.07102 5.30827 8.07102 6.12771 8.57601 6.63154C9.08101 7.13537 9.89868 7.13537 10.4031 6.63154L12.9045 4.12897C13.17 3.86467 13.4715 3.66939 13.7953 3.53725C14.2803 3.3408 14.816 3.29065 15.3263 3.38977C15.5811 3.43934 15.8295 3.52547 16.0637 3.64818C16.2973 3.77089 16.5168 3.93018 16.7162 4.12897C16.9817 4.39622 17.1763 4.6971 17.3085 5.02038C17.5049 5.50533 17.5551 6.04159 17.456 6.5513C17.4064 6.80677 17.3203 7.05513 17.1981 7.28817C17.0743 7.52298 16.9156 7.74242 16.7162 7.94185L14.2148 10.4426C13.7104 10.947 13.7104 11.7659 14.2148 12.2697C14.7192 12.7736 15.5369 12.7736 16.0413 12.2697L18.5427 9.76778C19.0559 9.25568 19.4441 8.6575 19.7019 8.02092C20.0889 7.06574 20.1851 6.02622 19.9922 5.02861Z" fill="#8D90A5"/>
  <path d="M10.444 14.2147L7.94201 16.7167C7.67593 16.9816 7.37448 17.1769 7.05117 17.3084C6.56622 17.5054 6.02996 17.5556 5.52024 17.4571C5.26478 17.4069 5.01701 17.3202 4.78281 17.1981C4.54917 17.0748 4.32973 16.9149 4.13033 16.7167C3.86486 16.45 3.66958 16.1492 3.538 15.8253C3.34155 15.341 3.29141 14.8047 3.38992 14.2938C3.43949 14.0389 3.52618 13.7905 3.64833 13.5569C3.77221 13.3233 3.9309 13.1038 4.13033 12.9038L6.63233 10.4024C7.13616 9.8986 7.13616 9.08033 6.63233 8.57654C6.12733 8.07214 5.30967 8.07214 4.80524 8.57654L2.30384 11.0773C1.79057 11.5906 1.40239 12.1876 1.14398 12.8254C0.75758 13.7793 0.661413 14.8206 0.854314 15.8164C0.950481 16.3155 1.11978 16.804 1.36226 17.2647C1.60413 17.7255 1.91917 18.1585 2.30384 18.5426C2.81711 19.0553 3.41412 19.4446 4.0507 19.7013C5.00523 20.0889 6.04593 20.1851 7.04294 19.9921C7.54261 19.8953 8.03051 19.726 8.49069 19.4842C8.95144 19.2429 9.38447 18.9273 9.7691 18.5426L12.2705 16.0406C12.7743 15.5368 12.7743 14.7185 12.2705 14.2147C11.7655 13.7102 10.9478 13.7102 10.444 14.2147Z" fill="#8D90A5"/>
  <path d="M13.687 7.15961C13.1831 6.65578 12.3649 6.65578 11.8605 7.15961L7.15912 11.8603C6.65529 12.3647 6.65529 13.1824 7.15912 13.6862C7.66412 14.1912 8.48239 14.1912 8.98622 13.6862L13.687 8.9855C14.192 8.4811 14.192 7.664 13.687 7.15961Z" fill="#8D90A5"/>
</svg>