<svg xmlns="http://www.w3.org/2000/svg" width="16" height="21" viewBox="0 0 16 21" fill="none">
  <path d="M12.1159 2.93237C12.1159 4.13099 11.1396 5.10729 9.94094 5.10729H6.55773C5.95842 5.10729 5.41711 4.86563 5.02079 4.46931C4.62447 4.07299 4.38281 3.53168 4.38281 2.93237C4.38281 1.73374 5.35911 0.757446 6.55773 0.757446H9.94094C10.5403 0.757446 11.0816 0.999104 11.4779 1.39542C11.8742 1.79174 12.1159 2.33305 12.1159 2.93237Z" fill="#8D90A5"/>
  <path d="M14.8508 3.68516C14.6284 3.5015 14.3771 3.3565 14.1065 3.25017C13.8261 3.14384 13.5458 3.36617 13.4878 3.65616C13.1592 5.3091 11.6995 6.55605 9.94028 6.55605H6.55707C5.59044 6.55605 4.6818 6.17906 3.9955 5.49276C3.49285 4.99011 3.14486 4.35213 3.00953 3.66582C2.95153 3.37583 2.66155 3.14384 2.38122 3.25984C1.25993 3.71416 0.515625 4.73878 0.515625 6.79771V16.2223C0.515625 19.1222 2.24589 20.0888 4.38215 20.0888H12.1152C14.2515 20.0888 15.9817 19.1222 15.9817 16.2223V6.79771C15.9817 5.2221 15.5467 4.25547 14.8508 3.68516ZM4.38215 10.6642H8.24867C8.64499 10.6642 8.97365 10.9928 8.97365 11.3892C8.97365 11.7855 8.64499 12.1141 8.24867 12.1141H4.38215C3.98583 12.1141 3.65718 11.7855 3.65718 11.3892C3.65718 10.9928 3.98583 10.6642 4.38215 10.6642ZM12.1152 15.9807H4.38215C3.98583 15.9807 3.65718 15.652 3.65718 15.2557C3.65718 14.8594 3.98583 14.5307 4.38215 14.5307H12.1152C12.5115 14.5307 12.8402 14.8594 12.8402 15.2557C12.8402 15.652 12.5115 15.9807 12.1152 15.9807Z" fill="#8D90A5"/>
</svg>