<svg xmlns="http://www.w3.org/2000/svg" width="23" height="21" viewBox="0 0 23 21" fill="none">
  <path d="M17.3204 12.4286C18.0112 12.4286 18.6371 12.7094 19.0905 13.1622C19.5445 13.6149 19.8253 14.2414 19.8253 14.9328C19.8253 15.6236 19.5445 16.2496 19.0917 16.7029C18.6371 17.1569 18.0112 17.4377 17.3204 17.4377C16.629 17.4377 16.0025 17.1569 15.5424 16.6958C15.0908 16.2357 14.8162 15.616 14.8162 14.9328C14.8162 14.2414 15.097 13.6149 15.5498 13.1622C16.0025 12.7094 16.629 12.4286 17.3204 12.4286ZM13.2691 18.8792L12.629 18.2391C12.5361 18.1462 12.532 17.9975 12.6163 17.8993L13.3576 16.9182C13.3104 16.8241 13.2661 16.7274 13.2251 16.6289C13.1853 16.5327 13.1484 16.4333 13.1145 16.3316L11.8807 16.1602C11.7559 16.1428 11.6657 16.0357 11.6657 15.9133L11.6651 13.953C11.6651 13.8211 11.7677 13.7129 11.8975 13.7037L13.1145 13.5344C13.1484 13.4326 13.1856 13.3329 13.2281 13.2306C13.2706 13.1297 13.3127 13.0371 13.3576 12.9477L12.6069 11.9537C12.5311 11.8534 12.5432 11.7139 12.6296 11.6272L13.4992 10.7573C12.8547 10.4048 12.1662 10.124 11.445 9.92729C10.6463 9.70961 9.80238 9.5928 8.9281 9.5928C7.02912 9.5928 5.25963 10.1476 3.77449 11.103C2.24038 12.0903 1.00743 13.5055 0.244948 15.1791C0.0549911 15.5962 -0.0240592 16.0289 0.00632209 16.4528C0.0367034 16.8758 0.177401 17.2928 0.425761 17.6792C0.674416 18.0656 0.995632 18.3668 1.36729 18.5694C1.73835 18.7718 2.16516 18.8792 2.62619 18.8792H13.2691ZM18.8268 11.2977C18.7006 11.2455 18.5708 11.1992 18.4392 11.1602C18.341 11.1381 18.2619 11.057 18.2472 10.9514L18.0841 9.77716H16.5579L16.3945 10.9514C16.381 11.0455 16.314 11.1281 16.217 11.1561C16.0842 11.1948 15.9533 11.2411 15.8199 11.2956C15.6846 11.3523 15.5559 11.4139 15.4312 11.4823C15.3477 11.5281 15.2418 11.5239 15.161 11.4629L14.2147 10.7482L13.1361 11.8269L13.8472 12.7687C13.9074 12.8448 13.9198 12.953 13.8702 13.0436C13.8027 13.1669 13.7419 13.2917 13.6879 13.4217C13.6331 13.5551 13.5865 13.6845 13.5484 13.814C13.5263 13.9126 13.4452 13.9916 13.3393 14.0064L12.1647 14.1698V15.6965L13.3393 15.8596C13.4334 15.8732 13.516 15.9401 13.544 16.0372C13.5829 16.1717 13.6307 16.3059 13.6853 16.4377C13.7393 16.5681 13.8015 16.697 13.8702 16.8224C13.9159 16.9058 13.9118 17.0117 13.8508 17.0926L13.1358 18.0391L14.2147 19.1184L15.156 18.4069C15.2324 18.3465 15.3406 18.3341 15.4312 18.3836C15.5548 18.4512 15.6795 18.5119 15.8102 18.5662C15.9432 18.6211 16.0727 18.6677 16.2022 18.7057C16.3007 18.7278 16.3798 18.809 16.3945 18.9149L16.5579 20.0888H18.0841L18.2475 18.9143C18.2611 18.8202 18.328 18.7376 18.4251 18.7096C18.561 18.6703 18.6955 18.6225 18.8256 18.5689C18.9539 18.5161 19.0828 18.4532 19.2103 18.3836C19.2937 18.3379 19.3996 18.342 19.4804 18.4031L20.4273 19.1184L21.5063 18.0391L20.7948 17.0976C20.7343 17.0212 20.7219 16.9129 20.7715 16.8224C20.8402 16.697 20.9025 16.5681 20.9567 16.4372C21.0087 16.3121 21.055 16.1829 21.0933 16.0522C21.1154 15.9537 21.1965 15.8744 21.3024 15.8596L22.4764 15.6965V14.1698L21.3024 14.0066C21.2083 13.9931 21.1258 13.9261 21.0977 13.8291C21.0588 13.6949 21.0113 13.561 20.9567 13.4291C20.9025 13.2984 20.8399 13.1692 20.7712 13.0436C20.7255 12.9601 20.7296 12.8542 20.7907 12.7734L21.5063 11.8263L20.4273 10.7476L19.4855 11.4593C19.4091 11.5195 19.3008 11.5319 19.2103 11.4823C19.0855 11.4139 18.9566 11.352 18.8268 11.2977ZM11.7539 1.92698C11.0309 1.20461 10.0316 0.757446 8.9281 0.757446C7.83113 0.757446 6.83769 1.19901 6.11001 1.92079C5.38086 2.65053 4.9334 3.64957 4.9334 4.75274C4.9334 5.8559 5.38086 6.85495 6.10353 7.57761C6.8256 8.30116 7.82464 8.74803 8.9281 8.74803C10.0313 8.74803 11.0303 8.30057 11.7533 7.57761C12.4759 6.85495 12.9234 5.8559 12.9234 4.75274C12.9234 3.64928 12.4762 2.64994 11.7539 1.92698Z" fill="#8D90A5"/>
</svg>