<svg xmlns="http://www.w3.org/2000/svg" width="22" height="22" viewBox="0 0 22 22" fill="none">
  <path fillRule="evenodd" clipRule="evenodd" d="M0 9.99825C0 4.47639 4.47639 0 9.99826 0C15.5201 0 19.9965 4.47639 19.9965 9.99825C19.9965 15.5201 15.5201 19.9965 9.99826 19.9965C4.47639 19.9965 0 15.5201 0 9.99825ZM9.99826 1.62134C5.37183 1.62134 1.62134 5.37183 1.62134 9.99825C1.62134 14.6247 5.37183 18.3752 9.99826 18.3752C14.6247 18.3752 18.3752 14.6247 18.3752 9.99825C18.3752 5.37183 14.6247 1.62134 9.99826 1.62134Z" fill="#1B224C"/>
  <path fillRule="evenodd" clipRule="evenodd" d="M6.36832 5.82731C7.29658 4.89911 8.58125 4.32357 9.99878 4.32357C11.4163 4.32357 12.701 4.89911 13.6292 5.82733C13.9458 6.14392 13.9458 6.6572 13.6292 6.97379C13.3126 7.29037 12.7993 7.29037 12.4827 6.97379C11.8462 6.3372 10.969 5.94491 9.99878 5.94491C9.02851 5.94491 8.15139 6.3372 7.51474 6.97381C7.19814 7.29038 6.68485 7.29037 6.36828 6.97377C6.0517 6.65717 6.05172 6.14388 6.36832 5.82731Z" fill="#1B224C"/>
  <path fillRule="evenodd" clipRule="evenodd" d="M16.0304 16.0303C16.347 15.7137 16.8603 15.7137 17.1769 16.0303L21.7627 20.6161C22.0793 20.9327 22.0793 21.446 21.7627 21.7626C21.4461 22.0791 20.9328 22.0791 20.6163 21.7626L16.0304 17.1767C15.7138 16.8601 15.7138 16.3468 16.0304 16.0303Z" fill="#1B224C"/>
</svg>