<svg xmlns="http://www.w3.org/2000/svg" width="22" height="22" viewBox="0 0 22 22" fill="none">
  <path d="M13.2415 17.4063L13.4884 17.4045C14.6043 17.4045 15.1904 17.867 15.9136 18.9629L16.2737 19.5191C16.5544 19.9347 16.7296 20.1088 16.9503 20.1997C17.346 20.3628 17.6739 20.2826 18.8782 19.7028L19.2469 19.5233C20.0001 19.1535 20.5141 18.9418 21.0948 18.7966C21.4623 18.7048 21.8346 18.9282 21.9265 19.2956C22.0184 19.6631 21.7949 20.0355 21.4275 20.1273C21.0665 20.2176 20.7207 20.3471 20.2682 20.5556L19.2087 21.0652C17.775 21.7423 17.2887 21.8228 16.4276 21.4679C15.856 21.2323 15.531 20.8915 15.0554 20.1643L14.8774 19.8864C14.327 19.0191 14.05 18.7762 13.4884 18.7762L13.3433 18.7796C12.9472 18.8036 12.6908 18.9851 10.9822 20.253C9.38907 21.4353 8.17405 22 6.62894 22C4.74528 22 2.97037 21.6539 1.3095 20.9621L3.94519 20.3528C4.80834 20.5365 5.70264 20.6283 6.62894 20.6283C7.80916 20.6283 8.78745 20.1737 10.1648 19.1515L11.2256 18.3688C12.3882 17.5238 12.6468 17.4192 13.2415 17.4063ZM18.9998 1.14776C20.5303 2.67818 20.5303 5.15945 18.9999 6.6899L18.053 7.63692C19.1064 8.91852 19.0685 10.2768 18.0891 11.2591L15.3448 14.0033C15.0769 14.271 14.6426 14.2708 14.3749 14.0029C14.1072 13.7349 14.1074 13.3007 14.3754 13.033L17.1177 10.2906C17.5613 9.84575 17.6125 9.29346 17.0812 8.60937L7.39331 18.2971C7.12064 18.5698 6.77682 18.7603 6.40106 18.8471L0.840564 20.1302C0.346719 20.2442 -0.0958782 19.8016 0.0180859 19.3078L1.30129 13.7472C1.38799 13.3715 1.57853 13.0277 1.85118 12.7551L13.4578 1.14784C14.9882 -0.38258 17.4694 -0.382621 18.9998 1.14776Z" fill="#8D90A5"/>
</svg>