<svg xmlns="http://www.w3.org/2000/svg" width="22" height="16" viewBox="0 0 22 16" fill="none">
  <path d="M12.5978 12.0144H1.98645C1.47112 12.0325 0.98293 12.2499 0.624757 12.6209C0.266585 12.9918 0.0664063 13.4873 0.0664062 14.003C0.0664063 14.5186 0.266585 15.0141 0.624757 15.3851C0.98293 15.7561 1.47112 15.9735 1.98645 15.9915H12.5978C13.1131 15.9735 13.6013 15.7561 13.9595 15.3851C14.3177 15.0141 14.5178 14.5186 14.5178 14.003C14.5178 13.4873 14.3177 12.9918 13.9595 12.6209C13.6013 12.2499 13.1131 12.0325 12.5978 12.0144Z" fill="#8D90A5"/>
  <path d="M20.0118 6.00598H1.98645C1.47112 6.02405 0.98293 6.24147 0.624757 6.61242C0.266585 6.98338 0.0664062 7.47889 0.0664062 7.99454C0.0664062 8.51018 0.266585 9.0057 0.624757 9.37665C0.98293 9.7476 1.47112 9.96502 1.98645 9.98309H20.0118C20.5271 9.96502 21.0153 9.7476 21.3735 9.37665C21.7317 9.0057 21.9318 8.51018 21.9318 7.99454C21.9318 7.47889 21.7317 6.98338 21.3735 6.61242C21.0153 6.24147 20.5271 6.02405 20.0118 6.00598Z" fill="#8D90A5"/>
  <path d="M20.0127 0H1.98733C0.889759 0 0 0.889759 0 1.98733V1.98978C0 3.08735 0.889759 3.97711 1.98733 3.97711H20.0127C21.1102 3.97711 22 3.08735 22 1.98978V1.98733C22 0.889759 21.1102 0 20.0127 0Z" fill="#8D90A5"/>
</svg>