<svg xmlns="http://www.w3.org/2000/svg" width="19" height="21" viewBox="0 0 19 21" fill="none">
  <path fillRule="evenodd" clipRule="evenodd" d="M18.5873 16.9861C18.5873 16.6215 18.4913 16.2639 18.309 15.9484C18.3083 15.947 18.3077 15.9456 18.3063 15.9442C14.5028 9.47929 4.72185 9.48619 0.922548 15.947C0.921857 15.9484 0.920475 15.9505 0.920475 15.9505C0.739589 16.2632 0.643622 16.6174 0.642242 16.9778C0.636718 17.2463 0.636719 17.6316 0.636719 18.0175C0.636719 18.5671 0.854888 19.0939 1.24359 19.4819C1.63159 19.8706 2.15837 20.0887 2.70794 20.0887C5.82857 20.0887 13.3954 20.0887 16.5161 20.0887C17.0656 20.0887 17.5924 19.8706 17.9804 19.4819C18.3691 19.0939 18.5873 18.5671 18.5873 18.0175V16.9861ZM9.61199 0.757385C6.94496 0.757385 4.77915 2.92319 4.77915 5.59023C4.77915 8.25726 6.94496 10.4231 9.61199 10.4231C12.279 10.4231 14.4448 8.25726 14.4448 5.59023C14.4448 2.92319 12.279 0.757385 9.61199 0.757385Z" fill="#8D90A5"/>
</svg>