<svg xmlns="http://www.w3.org/2000/svg" width="16" height="16" viewBox="0 0 16 16" fill="none">
  <path d="M12.6673 5.66667C13.956 5.66667 15.0007 4.62199 15.0007 3.33333C15.0007 2.04467 13.956 1 12.6673 1C11.3786 1 10.334 2.04467 10.334 3.33333C10.334 4.62199 11.3786 5.66667 12.6673 5.66667Z" stroke="#757575" stroke-width="1.2" stroke-linecap="round" strokeLinejoin="round"/>
  <path d="M3.33333 15.0002C4.62199 15.0002 5.66667 13.9555 5.66667 12.6668C5.66667 11.3781 4.62199 10.3335 3.33333 10.3335C2.04467 10.3335 1 11.3781 1 12.6668C1 13.9555 2.04467 15.0002 3.33333 15.0002Z" stroke="#757575" stroke-width="1.2" stroke-linecap="round" strokeLinejoin="round"/>
  <path d="M3.33398 10.3333V1" stroke="#757575" stroke-width="1.2" stroke-linecap="round" strokeLinejoin="round"/>
  <path d="M5.66602 12.6668C8.38824 12.6668 12.666 11.0334 12.666 6.05566" stroke="#757575" stroke-width="1.2" stroke-linecap="round" strokeLinejoin="round"/>
</svg>