<svg xmlns="http://www.w3.org/2000/svg" width="17" height="18" viewBox="0 0 17 18" fill="none">
  <path d="M0.673828 3.13967C0.673828 3.30618 0.739985 3.46582 0.857716 3.58369C0.975446 3.70142 1.13523 3.76758 1.30174 3.76758H1.54701L2.25691 15.8335L2.25705 15.8333C2.29195 16.4193 2.54927 16.9699 2.97634 17.3725C3.40341 17.7752 3.96811 17.9996 4.55508 18H13.1183C13.7053 17.9996 14.27 17.7752 14.6971 17.3725C15.1241 16.9699 15.3814 16.4193 15.4164 15.8333L16.1264 3.76744H16.3717C16.5961 3.76744 16.8033 3.64775 16.9155 3.45349C17.0276 3.25922 17.0276 3.01983 16.9155 2.82558C16.8033 2.63132 16.5961 2.51162 16.3717 2.51162H13.4757L12.9734 1.00464C12.8771 0.712135 12.691 0.457466 12.4414 0.277095C12.1917 0.0967128 11.8917 -0.000279262 11.5837 6.05993e-07H6.09152C5.78359 -0.000279728 5.48352 0.0967092 5.2339 0.277095C4.98428 0.457476 4.79813 0.712145 4.70187 1.00464L4.19954 2.51162H1.3019C1.1354 2.51162 0.975615 2.57778 0.857884 2.69551C0.740153 2.81324 0.673997 2.97288 0.673997 3.13953L0.673828 3.13967ZM5.89228 1.39904C5.9213 1.31368 6.00133 1.25608 6.09145 1.25594H11.5819C11.672 1.25608 11.752 1.31368 11.781 1.39904L12.151 2.51176H5.52213L5.89228 1.39904ZM4.65064 3.76758H14.8647L14.1589 15.7588C14.1429 16.0251 14.026 16.2754 13.8318 16.4585C13.6376 16.6417 13.381 16.7439 13.1142 16.7441H4.55523C4.28851 16.7439 4.03202 16.6418 3.8379 16.4589C3.64378 16.2759 3.52661 16.0258 3.51049 15.7597L2.80885 3.76735L4.65064 3.76758Z" fill="#061349"/>
  <path d="M6.74119 12.9767C6.9077 12.9767 7.06734 12.9106 7.18521 12.7928C7.30294 12.6751 7.3691 12.5155 7.3691 12.3488V8.16301C7.3691 7.93862 7.2494 7.73133 7.05514 7.61921C6.86088 7.50708 6.62149 7.50708 6.42724 7.61921C6.23297 7.73133 6.11328 7.93862 6.11328 8.16301V12.3492V12.349C6.11328 12.5157 6.17944 12.6753 6.29717 12.7931C6.4149 12.9108 6.57454 12.977 6.74119 12.977V12.9767Z" fill="#061349"/>
  <path d="M10.9306 12.9767C11.0973 12.9767 11.2569 12.9106 11.3747 12.7928C11.4924 12.6751 11.5586 12.5155 11.5586 12.3488V8.16301C11.5586 7.93862 11.4389 7.73133 11.2446 7.61921C11.0503 7.50708 10.8109 7.50708 10.6167 7.61921C10.4224 7.73133 10.3027 7.93862 10.3027 8.16301V12.3492V12.349C10.3027 12.5157 10.3689 12.6753 10.4866 12.7931C10.6045 12.9108 10.7641 12.977 10.9306 12.977V12.9767Z" fill="#061349"/>
</svg>