<svg xmlns="http://www.w3.org/2000/svg" width="19" height="20" viewBox="0 0 19 20" fill="none">
  <path d="M14.2266 0.90332C14.3528 0.889214 14.479 0.918765 14.585 0.984375L14.6836 1.06152L18.6064 4.98438H18.6074C18.7141 5.08987 18.7734 5.2339 18.7734 5.38379C18.7734 5.49622 18.7397 5.60525 18.6777 5.69727L18.6074 5.7832L6.60547 17.7832V17.7842C6.54944 17.8397 6.48236 17.8824 6.40918 17.9102L6.33398 17.9326L1.25586 19.0869H1.25488C1.09028 19.1226 0.91969 19.0828 0.789062 18.9805L0.735352 18.9326C0.600313 18.7956 0.544458 18.5985 0.587891 18.4111L1.74219 13.335L1.76465 13.2598C1.79248 13.1862 1.8358 13.1187 1.8916 13.0625L13.8936 1.06152L13.9668 1.00098C14.0435 0.947559 14.1327 0.914543 14.2266 0.904297V0.90332ZM1.87891 17.7959L5.0957 17.0645L2.61035 14.5791L1.87891 17.7959ZM3.07715 13.4639L6.20996 16.5898L15.1133 7.69531L11.9805 4.5625L3.07715 13.4639ZM12.7705 3.77148L15.9033 6.89746L17.4209 5.38672L14.2881 2.25488L12.7705 3.77148Z" fill="#061349" stroke="#061349" stroke-width="0.2"/>
</svg>