<svg width="84" height="84" viewBox="0 0 84 84" fill="none" xmlns="http://www.w3.org/2000/svg">
<g id="Group 20857">
<path id="Vector" d="M84 42.001C84 65.1988 65.1975 84.0007 42.0007 84C18.8025 84.0007 5.26029e-08 65.1988 5.26029e-08 42.001C-0.00114838 18.8032 18.8025 0 42.0007 0C65.1975 0 84 18.8039 84 42.001Z" fill="#D72222"/>
<path id="Vector_2" d="M83.9528 43.8658C83.9333 43.8434 83.9138 43.8209 83.8924 43.7999C83.8559 43.7636 62.1192 22.0263 62.0733 21.9809C62.0369 21.9448 61.9962 21.9148 61.9596 21.879C61.9135 21.8327 61.8746 21.7815 61.8282 21.7356C56.5339 16.4964 49.4551 13.6701 41.9797 13.8166C34.4278 13.9464 27.3209 16.9973 21.9692 22.4071C16.5817 27.8528 13.6865 34.9855 13.8163 42.4908C13.9474 50.0415 16.9149 57.064 22.1726 62.265C22.2097 62.3015 22.2509 62.3322 22.288 62.3685C22.3332 62.4139 22.372 62.4648 22.4177 62.5101C22.4548 62.5467 43.8248 83.9061 43.8619 83.9425C43.8651 83.9458 43.8679 83.9496 43.8714 83.9529C65.5806 83.0013 83.0036 65.5766 83.9528 43.8658Z" fill="#B10808"/>
<g id="Group">
<path id="Vector_3" d="M41.9797 13.8169C34.4276 13.9467 27.3209 16.9976 21.9692 22.4074C16.5817 27.8531 13.6865 34.9857 13.8163 42.4911C13.9474 50.0421 16.9148 57.0644 22.1726 62.2654C27.3501 67.3867 34.2046 70.1891 41.5233 70.1891C41.689 70.1891 41.856 70.1879 42.0224 70.1848C49.5745 70.0537 56.6807 67.0025 62.0319 61.5927C67.4201 56.1473 70.3145 49.0155 70.1844 41.5108C70.0533 33.9593 67.0864 26.937 61.8287 21.736C56.534 16.4965 49.4552 13.6702 41.9797 13.8169ZM67.7328 41.5531C67.8526 48.3913 65.2085 54.8962 60.2898 59.8689C55.3905 64.8202 48.8879 67.6136 41.9794 67.7334C35.149 67.8693 28.7177 65.2913 23.8968 60.5224C19.0961 55.7744 16.3871 49.3553 16.2675 42.4483C16.1486 35.609 18.7923 29.1034 23.7119 24.1307C28.6111 19.1794 35.1137 16.3866 42.0222 16.2682C42.1753 16.2652 42.3287 16.2639 42.4813 16.2639C49.1489 16.2639 55.3915 18.8156 60.1049 23.4779C64.9042 28.2263 67.6132 34.6456 67.733 41.5526C67.7328 41.5531 67.7328 41.5531 67.7328 41.5531Z" fill="white"/>
<path id="Vector_4" d="M42.0001 46.903C42.677 46.903 43.2256 46.3543 43.2256 45.6775V26.0683C43.2256 25.3913 42.6769 24.8427 42.0001 24.8427C41.3232 24.8427 40.7746 25.3915 40.7746 26.0683V45.6773C40.7746 46.3543 41.3232 46.903 42.0001 46.903Z" fill="white"/>
<path id="Vector_5" d="M42.0012 51.8051H41.9569C40.6048 51.8051 39.5253 52.9459 39.5493 54.298C39.5721 55.6384 40.6646 56.7074 41.9987 56.7074H42.043C43.395 56.7074 44.4746 55.5665 44.4506 54.2145C44.4267 52.8741 43.3355 51.8051 42.0012 51.8051Z" fill="white"/>
</g>
</g>
</svg>
